<?xml version="1.0" encoding="utf-8" standalone="no"?>
<!DOCTYPE svg PUBLIC "-//W3C//DTD SVG 1.1//EN"
  "http://www.w3.org/Graphics/SVG/1.1/DTD/svg11.dtd">
<svg xmlns:xlink="http://www.w3.org/1999/xlink" width="371.78pt" height="304.983125pt" viewBox="0 0 371.78 304.983125" xmlns="http://www.w3.org/2000/svg" version="1.1">
 <metadata>
  <rdf:RDF xmlns:dc="http://purl.org/dc/elements/1.1/" xmlns:cc="http://creativecommons.org/ns#" xmlns:rdf="http://www.w3.org/1999/02/22-rdf-syntax-ns#">
   <cc:Work>
    <dc:type rdf:resource="http://purl.org/dc/dcmitype/StillImage"/>
    <dc:date>2024-07-03T11:48:30.334225</dc:date>
    <dc:format>image/svg+xml</dc:format>
    <dc:creator>
     <cc:Agent>
      <dc:title>Matplotlib v3.8.0, https://matplotlib.org/</dc:title>
     </cc:Agent>
    </dc:creator>
   </cc:Work>
  </rdf:RDF>
 </metadata>
 <defs>
  <style type="text/css">*{stroke-linejoin: round; stroke-linecap: butt}</style>
 </defs>
 <g id="figure_1">
  <g id="patch_1">
   <path d="M 0 304.983125 
L 371.78 304.983125 
L 371.78 0 
L 0 0 
z
" style="fill: #ffffff"/>
  </g>
  <g id="axes_1">
   <g id="patch_2">
    <path d="M 83.54 242.16 
L 351.38 242.16 
L 351.38 20.4 
L 83.54 20.4 
z
" style="fill: #ffffff"/>
   </g>
   <g id="matplotlib.axis_1">
    <g id="xtick_1">
     <g id="line2d_1">
      <defs>
       <path id="m3f2e4249b1" d="M 0 0 
L 0 6 
" style="stroke: #000000"/>
      </defs>
      <g>
       <use xlink:href="#m3f2e4249b1" x="95.714545" y="242.16" style="fill-opacity: 0; stroke: #000000"/>
      </g>
     </g>
     <g id="line2d_2">
      <defs>
       <path id="mc4b75a302e" d="M 0 0 
L 0 -6 
" style="stroke: #000000"/>
      </defs>
      <g>
       <use xlink:href="#mc4b75a302e" x="95.714545" y="20.4" style="fill-opacity: 0; stroke: #000000"/>
      </g>
     </g>
     <g id="text_1">
      <!-- 0 -->
      <g transform="translate(90.709702 264.544062) scale(0.18 -0.18)">
       <defs>
        <path id="ArialMT-30" d="M 266 2259 
Q 266 3072 433 3567 
Q 600 4063 929 4331 
Q 1259 4600 1759 4600 
Q 2128 4600 2406 4451 
Q 2684 4303 2865 4023 
Q 3047 3744 3150 3342 
Q 3253 2941 3253 2259 
Q 3253 1453 3087 958 
Q 2922 463 2592 192 
Q 2263 -78 1759 -78 
Q 1097 -78 719 397 
Q 266 969 266 2259 
z
M 844 2259 
Q 844 1131 1108 757 
Q 1372 384 1759 384 
Q 2147 384 2411 759 
Q 2675 1134 2675 2259 
Q 2675 3391 2411 3762 
Q 2147 4134 1753 4134 
Q 1366 4134 1134 3806 
Q 844 3388 844 2259 
z
" transform="scale(0.015625)"/>
       </defs>
       <use xlink:href="#ArialMT-30"/>
      </g>
     </g>
    </g>
    <g id="xtick_2">
     <g id="line2d_3">
      <g>
       <use xlink:href="#m3f2e4249b1" x="217.46" y="242.16" style="fill-opacity: 0; stroke: #000000"/>
      </g>
     </g>
     <g id="line2d_4">
      <g>
       <use xlink:href="#mc4b75a302e" x="217.46" y="20.4" style="fill-opacity: 0; stroke: #000000"/>
      </g>
     </g>
     <g id="text_2">
      <!-- 5 -->
      <g transform="translate(212.455156 264.544062) scale(0.18 -0.18)">
       <defs>
        <path id="ArialMT-35" d="M 266 1200 
L 856 1250 
Q 922 819 1161 601 
Q 1400 384 1738 384 
Q 2144 384 2425 690 
Q 2706 997 2706 1503 
Q 2706 1984 2436 2262 
Q 2166 2541 1728 2541 
Q 1456 2541 1237 2417 
Q 1019 2294 894 2097 
L 366 2166 
L 809 4519 
L 3088 4519 
L 3088 3981 
L 1259 3981 
L 1013 2750 
Q 1425 3038 1878 3038 
Q 2478 3038 2890 2622 
Q 3303 2206 3303 1553 
Q 3303 931 2941 478 
Q 2500 -78 1738 -78 
Q 1113 -78 717 272 
Q 322 622 266 1200 
z
" transform="scale(0.015625)"/>
       </defs>
       <use xlink:href="#ArialMT-35"/>
      </g>
     </g>
    </g>
    <g id="xtick_3">
     <g id="line2d_5">
      <g>
       <use xlink:href="#m3f2e4249b1" x="339.205455" y="242.16" style="fill-opacity: 0; stroke: #000000"/>
      </g>
     </g>
     <g id="line2d_6">
      <g>
       <use xlink:href="#mc4b75a302e" x="339.205455" y="20.4" style="fill-opacity: 0; stroke: #000000"/>
      </g>
     </g>
     <g id="text_3">
      <!-- 10 -->
      <g transform="translate(329.195767 264.544062) scale(0.18 -0.18)">
       <defs>
        <path id="ArialMT-31" d="M 2384 0 
L 1822 0 
L 1822 3584 
Q 1619 3391 1289 3197 
Q 959 3003 697 2906 
L 697 3450 
Q 1169 3672 1522 3987 
Q 1875 4303 2022 4600 
L 2384 4600 
L 2384 0 
z
" transform="scale(0.015625)"/>
       </defs>
       <use xlink:href="#ArialMT-31"/>
       <use xlink:href="#ArialMT-30" x="55.615234"/>
      </g>
     </g>
    </g>
    <g id="xtick_4">
     <g id="line2d_7">
      <defs>
       <path id="m7c1b53313c" d="M 0 0 
L 0 3 
" style="stroke: #000000"/>
      </defs>
      <g>
       <use xlink:href="#m7c1b53313c" x="120.063636" y="242.16" style="fill-opacity: 0; stroke: #000000"/>
      </g>
     </g>
     <g id="line2d_8">
      <defs>
       <path id="mb3050d36c6" d="M 0 0 
L 0 -3 
" style="stroke: #000000"/>
      </defs>
      <g>
       <use xlink:href="#mb3050d36c6" x="120.063636" y="20.4" style="fill-opacity: 0; stroke: #000000"/>
      </g>
     </g>
    </g>
    <g id="xtick_5">
     <g id="line2d_9">
      <g>
       <use xlink:href="#m7c1b53313c" x="144.412727" y="242.16" style="fill-opacity: 0; stroke: #000000"/>
      </g>
     </g>
     <g id="line2d_10">
      <g>
       <use xlink:href="#mb3050d36c6" x="144.412727" y="20.4" style="fill-opacity: 0; stroke: #000000"/>
      </g>
     </g>
    </g>
    <g id="xtick_6">
     <g id="line2d_11">
      <g>
       <use xlink:href="#m7c1b53313c" x="168.761818" y="242.16" style="fill-opacity: 0; stroke: #000000"/>
      </g>
     </g>
     <g id="line2d_12">
      <g>
       <use xlink:href="#mb3050d36c6" x="168.761818" y="20.4" style="fill-opacity: 0; stroke: #000000"/>
      </g>
     </g>
    </g>
    <g id="xtick_7">
     <g id="line2d_13">
      <g>
       <use xlink:href="#m7c1b53313c" x="193.110909" y="242.16" style="fill-opacity: 0; stroke: #000000"/>
      </g>
     </g>
     <g id="line2d_14">
      <g>
       <use xlink:href="#mb3050d36c6" x="193.110909" y="20.4" style="fill-opacity: 0; stroke: #000000"/>
      </g>
     </g>
    </g>
    <g id="xtick_8">
     <g id="line2d_15">
      <g>
       <use xlink:href="#m7c1b53313c" x="241.809091" y="242.16" style="fill-opacity: 0; stroke: #000000"/>
      </g>
     </g>
     <g id="line2d_16">
      <g>
       <use xlink:href="#mb3050d36c6" x="241.809091" y="20.4" style="fill-opacity: 0; stroke: #000000"/>
      </g>
     </g>
    </g>
    <g id="xtick_9">
     <g id="line2d_17">
      <g>
       <use xlink:href="#m7c1b53313c" x="266.158182" y="242.16" style="fill-opacity: 0; stroke: #000000"/>
      </g>
     </g>
     <g id="line2d_18">
      <g>
       <use xlink:href="#mb3050d36c6" x="266.158182" y="20.4" style="fill-opacity: 0; stroke: #000000"/>
      </g>
     </g>
    </g>
    <g id="xtick_10">
     <g id="line2d_19">
      <g>
       <use xlink:href="#m7c1b53313c" x="290.507273" y="242.16" style="fill-opacity: 0; stroke: #000000"/>
      </g>
     </g>
     <g id="line2d_20">
      <g>
       <use xlink:href="#mb3050d36c6" x="290.507273" y="20.4" style="fill-opacity: 0; stroke: #000000"/>
      </g>
     </g>
    </g>
    <g id="xtick_11">
     <g id="line2d_21">
      <g>
       <use xlink:href="#m7c1b53313c" x="314.856364" y="242.16" style="fill-opacity: 0; stroke: #000000"/>
      </g>
     </g>
     <g id="line2d_22">
      <g>
       <use xlink:href="#mb3050d36c6" x="314.856364" y="20.4" style="fill-opacity: 0; stroke: #000000"/>
      </g>
     </g>
    </g>
    <g id="text_4">
     <!-- $x$ label -->
     <g transform="translate(191.36 287.005625) scale(0.18 -0.18)">
      <defs>
       <path id="Arial-ItalicMT-78" d="M -9 0 
L 1434 1684 
L 606 3319 
L 1231 3319 
L 1513 2728 
Q 1669 2397 1794 2094 
L 2750 3319 
L 3441 3319 
L 2047 1641 
L 2884 0 
L 2259 0 
L 1928 675 
Q 1822 891 1688 1209 
L 700 0 
L -9 0 
z
" transform="scale(0.015625)"/>
       <path id="ArialMT-20" transform="scale(0.015625)"/>
       <path id="ArialMT-6c" d="M 409 0 
L 409 4581 
L 972 4581 
L 972 0 
L 409 0 
z
" transform="scale(0.015625)"/>
       <path id="ArialMT-61" d="M 2588 409 
Q 2275 144 1986 34 
Q 1697 -75 1366 -75 
Q 819 -75 525 192 
Q 231 459 231 875 
Q 231 1119 342 1320 
Q 453 1522 633 1644 
Q 813 1766 1038 1828 
Q 1203 1872 1538 1913 
Q 2219 1994 2541 2106 
Q 2544 2222 2544 2253 
Q 2544 2597 2384 2738 
Q 2169 2928 1744 2928 
Q 1347 2928 1158 2789 
Q 969 2650 878 2297 
L 328 2372 
Q 403 2725 575 2942 
Q 747 3159 1072 3276 
Q 1397 3394 1825 3394 
Q 2250 3394 2515 3294 
Q 2781 3194 2906 3042 
Q 3031 2891 3081 2659 
Q 3109 2516 3109 2141 
L 3109 1391 
Q 3109 606 3145 398 
Q 3181 191 3288 0 
L 2700 0 
Q 2613 175 2588 409 
z
M 2541 1666 
Q 2234 1541 1622 1453 
Q 1275 1403 1131 1340 
Q 988 1278 909 1158 
Q 831 1038 831 891 
Q 831 666 1001 516 
Q 1172 366 1500 366 
Q 1825 366 2078 508 
Q 2331 650 2450 897 
Q 2541 1088 2541 1459 
L 2541 1666 
z
" transform="scale(0.015625)"/>
       <path id="ArialMT-62" d="M 941 0 
L 419 0 
L 419 4581 
L 981 4581 
L 981 2947 
Q 1338 3394 1891 3394 
Q 2197 3394 2470 3270 
Q 2744 3147 2920 2923 
Q 3097 2700 3197 2384 
Q 3297 2069 3297 1709 
Q 3297 856 2875 390 
Q 2453 -75 1863 -75 
Q 1275 -75 941 416 
L 941 0 
z
M 934 1684 
Q 934 1088 1097 822 
Q 1363 388 1816 388 
Q 2184 388 2453 708 
Q 2722 1028 2722 1663 
Q 2722 2313 2464 2622 
Q 2206 2931 1841 2931 
Q 1472 2931 1203 2611 
Q 934 2291 934 1684 
z
" transform="scale(0.015625)"/>
       <path id="ArialMT-65" d="M 2694 1069 
L 3275 997 
Q 3138 488 2766 206 
Q 2394 -75 1816 -75 
Q 1088 -75 661 373 
Q 234 822 234 1631 
Q 234 2469 665 2931 
Q 1097 3394 1784 3394 
Q 2450 3394 2872 2941 
Q 3294 2488 3294 1666 
Q 3294 1616 3291 1516 
L 816 1516 
Q 847 969 1125 678 
Q 1403 388 1819 388 
Q 2128 388 2347 550 
Q 2566 713 2694 1069 
z
M 847 1978 
L 2700 1978 
Q 2663 2397 2488 2606 
Q 2219 2931 1791 2931 
Q 1403 2931 1139 2672 
Q 875 2413 847 1978 
z
" transform="scale(0.015625)"/>
      </defs>
      <use xlink:href="#Arial-ItalicMT-78" transform="translate(0 0.421875)"/>
      <use xlink:href="#ArialMT-20" transform="translate(50 0.421875)"/>
      <use xlink:href="#ArialMT-6c" transform="translate(77.783203 0.421875)"/>
      <use xlink:href="#ArialMT-61" transform="translate(100 0.421875)"/>
      <use xlink:href="#ArialMT-62" transform="translate(155.615234 0.421875)"/>
      <use xlink:href="#ArialMT-65" transform="translate(211.230469 0.421875)"/>
      <use xlink:href="#ArialMT-6c" transform="translate(266.845703 0.421875)"/>
     </g>
    </g>
   </g>
   <g id="matplotlib.axis_2">
    <g id="ytick_1">
     <g id="line2d_23">
      <defs>
       <path id="m4740955754" d="M 0 0 
L -6 0 
" style="stroke: #000000"/>
      </defs>
      <g>
       <use xlink:href="#m4740955754" x="83.54" y="202.186615" style="fill-opacity: 0; stroke: #000000"/>
      </g>
     </g>
     <g id="line2d_24">
      <defs>
       <path id="m1e5814d67f" d="M 0 0 
L 6 0 
" style="stroke: #000000"/>
      </defs>
      <g>
       <use xlink:href="#m1e5814d67f" x="351.38" y="202.186615" style="fill-opacity: 0; stroke: #000000"/>
      </g>
     </g>
     <g id="text_5">
      <!-- $\mathdefault{10^{-3}}$ -->
      <g transform="translate(37.32 208.767865) scale(0.18 -0.18)">
       <defs>
        <path id="ArialMT-2212" d="M 3381 1997 
L 356 1997 
L 356 2522 
L 3381 2522 
L 3381 1997 
z
" transform="scale(0.015625)"/>
        <path id="ArialMT-33" d="M 269 1209 
L 831 1284 
Q 928 806 1161 595 
Q 1394 384 1728 384 
Q 2125 384 2398 659 
Q 2672 934 2672 1341 
Q 2672 1728 2419 1979 
Q 2166 2231 1775 2231 
Q 1616 2231 1378 2169 
L 1441 2663 
Q 1497 2656 1531 2656 
Q 1891 2656 2178 2843 
Q 2466 3031 2466 3422 
Q 2466 3731 2256 3934 
Q 2047 4138 1716 4138 
Q 1388 4138 1169 3931 
Q 950 3725 888 3313 
L 325 3413 
Q 428 3978 793 4289 
Q 1159 4600 1703 4600 
Q 2078 4600 2393 4439 
Q 2709 4278 2876 4000 
Q 3044 3722 3044 3409 
Q 3044 3113 2884 2869 
Q 2725 2625 2413 2481 
Q 2819 2388 3044 2092 
Q 3269 1797 3269 1353 
Q 3269 753 2831 336 
Q 2394 -81 1725 -81 
Q 1122 -81 723 278 
Q 325 638 269 1209 
z
" transform="scale(0.015625)"/>
       </defs>
       <use xlink:href="#ArialMT-31" transform="translate(0 0.8625)"/>
       <use xlink:href="#ArialMT-30" transform="translate(55.615234 0.8625)"/>
       <use xlink:href="#ArialMT-2212" transform="translate(116.4575 40.6875) scale(0.7)"/>
       <use xlink:href="#ArialMT-33" transform="translate(157.336406 40.6875) scale(0.7)"/>
      </g>
     </g>
    </g>
    <g id="ytick_2">
     <g id="line2d_25">
      <g>
       <use xlink:href="#m4740955754" x="83.54" y="155.766499" style="fill-opacity: 0; stroke: #000000"/>
      </g>
     </g>
     <g id="line2d_26">
      <g>
       <use xlink:href="#m1e5814d67f" x="351.38" y="155.766499" style="fill-opacity: 0; stroke: #000000"/>
      </g>
     </g>
     <g id="text_6">
      <!-- $\mathdefault{10^{-2}}$ -->
      <g transform="translate(37.32 162.347749) scale(0.18 -0.18)">
       <defs>
        <path id="ArialMT-32" d="M 3222 541 
L 3222 0 
L 194 0 
Q 188 203 259 391 
Q 375 700 629 1000 
Q 884 1300 1366 1694 
Q 2113 2306 2375 2664 
Q 2638 3022 2638 3341 
Q 2638 3675 2398 3904 
Q 2159 4134 1775 4134 
Q 1369 4134 1125 3890 
Q 881 3647 878 3216 
L 300 3275 
Q 359 3922 746 4261 
Q 1134 4600 1788 4600 
Q 2447 4600 2831 4234 
Q 3216 3869 3216 3328 
Q 3216 3053 3103 2787 
Q 2991 2522 2730 2228 
Q 2469 1934 1863 1422 
Q 1356 997 1212 845 
Q 1069 694 975 541 
L 3222 541 
z
" transform="scale(0.015625)"/>
       </defs>
       <use xlink:href="#ArialMT-31" transform="translate(0 0.8625)"/>
       <use xlink:href="#ArialMT-30" transform="translate(55.615234 0.8625)"/>
       <use xlink:href="#ArialMT-2212" transform="translate(116.4575 40.6875) scale(0.7)"/>
       <use xlink:href="#ArialMT-32" transform="translate(157.336406 40.6875) scale(0.7)"/>
      </g>
     </g>
    </g>
    <g id="ytick_3">
     <g id="line2d_27">
      <g>
       <use xlink:href="#m4740955754" x="83.54" y="109.346384" style="fill-opacity: 0; stroke: #000000"/>
      </g>
     </g>
     <g id="line2d_28">
      <g>
       <use xlink:href="#m1e5814d67f" x="351.38" y="109.346384" style="fill-opacity: 0; stroke: #000000"/>
      </g>
     </g>
     <g id="text_7">
      <!-- $\mathdefault{10^{-1}}$ -->
      <g transform="translate(37.32 115.927634) scale(0.18 -0.18)">
       <use xlink:href="#ArialMT-31" transform="translate(0 0.8625)"/>
       <use xlink:href="#ArialMT-30" transform="translate(55.615234 0.8625)"/>
       <use xlink:href="#ArialMT-2212" transform="translate(116.4575 40.6875) scale(0.7)"/>
       <use xlink:href="#ArialMT-31" transform="translate(157.336406 40.6875) scale(0.7)"/>
      </g>
     </g>
    </g>
    <g id="ytick_4">
     <g id="line2d_29">
      <g>
       <use xlink:href="#m4740955754" x="83.54" y="62.926268" style="fill-opacity: 0; stroke: #000000"/>
      </g>
     </g>
     <g id="line2d_30">
      <g>
       <use xlink:href="#m1e5814d67f" x="351.38" y="62.926268" style="fill-opacity: 0; stroke: #000000"/>
      </g>
     </g>
     <g id="text_8">
      <!-- $\mathdefault{10^{0}}$ -->
      <g transform="translate(44.7 69.507518) scale(0.18 -0.18)">
       <use xlink:href="#ArialMT-31" transform="translate(0 0.8625)"/>
       <use xlink:href="#ArialMT-30" transform="translate(55.615234 0.8625)"/>
       <use xlink:href="#ArialMT-30" transform="translate(116.4575 40.6875) scale(0.7)"/>
      </g>
     </g>
    </g>
    <g id="ytick_5">
     <g id="line2d_31">
      <defs>
       <path id="m01d1b22d0c" d="M 0 0 
L -3 0 
" style="stroke: #000000"/>
      </defs>
      <g>
       <use xlink:href="#m01d1b22d0c" x="83.54" y="234.632883" style="fill-opacity: 0; stroke: #000000"/>
      </g>
     </g>
     <g id="line2d_32">
      <defs>
       <path id="mab5273ffe8" d="M 0 0 
L 3 0 
" style="stroke: #000000"/>
      </defs>
      <g>
       <use xlink:href="#mab5273ffe8" x="351.38" y="234.632883" style="fill-opacity: 0; stroke: #000000"/>
      </g>
     </g>
    </g>
    <g id="ytick_6">
     <g id="line2d_33">
      <g>
       <use xlink:href="#m01d1b22d0c" x="83.54" y="226.458706" style="fill-opacity: 0; stroke: #000000"/>
      </g>
     </g>
     <g id="line2d_34">
      <g>
       <use xlink:href="#mab5273ffe8" x="351.38" y="226.458706" style="fill-opacity: 0; stroke: #000000"/>
      </g>
     </g>
    </g>
    <g id="ytick_7">
     <g id="line2d_35">
      <g>
       <use xlink:href="#m01d1b22d0c" x="83.54" y="220.659036" style="fill-opacity: 0; stroke: #000000"/>
      </g>
     </g>
     <g id="line2d_36">
      <g>
       <use xlink:href="#mab5273ffe8" x="351.38" y="220.659036" style="fill-opacity: 0; stroke: #000000"/>
      </g>
     </g>
    </g>
    <g id="ytick_8">
     <g id="line2d_37">
      <g>
       <use xlink:href="#m01d1b22d0c" x="83.54" y="216.160462" style="fill-opacity: 0; stroke: #000000"/>
      </g>
     </g>
     <g id="line2d_38">
      <g>
       <use xlink:href="#mab5273ffe8" x="351.38" y="216.160462" style="fill-opacity: 0; stroke: #000000"/>
      </g>
     </g>
    </g>
    <g id="ytick_9">
     <g id="line2d_39">
      <g>
       <use xlink:href="#m01d1b22d0c" x="83.54" y="212.484859" style="fill-opacity: 0; stroke: #000000"/>
      </g>
     </g>
     <g id="line2d_40">
      <g>
       <use xlink:href="#mab5273ffe8" x="351.38" y="212.484859" style="fill-opacity: 0; stroke: #000000"/>
      </g>
     </g>
    </g>
    <g id="ytick_10">
     <g id="line2d_41">
      <g>
       <use xlink:href="#m01d1b22d0c" x="83.54" y="209.377182" style="fill-opacity: 0; stroke: #000000"/>
      </g>
     </g>
     <g id="line2d_42">
      <g>
       <use xlink:href="#mab5273ffe8" x="351.38" y="209.377182" style="fill-opacity: 0; stroke: #000000"/>
      </g>
     </g>
    </g>
    <g id="ytick_11">
     <g id="line2d_43">
      <g>
       <use xlink:href="#m01d1b22d0c" x="83.54" y="206.685189" style="fill-opacity: 0; stroke: #000000"/>
      </g>
     </g>
     <g id="line2d_44">
      <g>
       <use xlink:href="#mab5273ffe8" x="351.38" y="206.685189" style="fill-opacity: 0; stroke: #000000"/>
      </g>
     </g>
    </g>
    <g id="ytick_12">
     <g id="line2d_45">
      <g>
       <use xlink:href="#m01d1b22d0c" x="83.54" y="204.310683" style="fill-opacity: 0; stroke: #000000"/>
      </g>
     </g>
     <g id="line2d_46">
      <g>
       <use xlink:href="#mab5273ffe8" x="351.38" y="204.310683" style="fill-opacity: 0; stroke: #000000"/>
      </g>
     </g>
    </g>
    <g id="ytick_13">
     <g id="line2d_47">
      <g>
       <use xlink:href="#m01d1b22d0c" x="83.54" y="188.212768" style="fill-opacity: 0; stroke: #000000"/>
      </g>
     </g>
     <g id="line2d_48">
      <g>
       <use xlink:href="#mab5273ffe8" x="351.38" y="188.212768" style="fill-opacity: 0; stroke: #000000"/>
      </g>
     </g>
    </g>
    <g id="ytick_14">
     <g id="line2d_49">
      <g>
       <use xlink:href="#m01d1b22d0c" x="83.54" y="180.038591" style="fill-opacity: 0; stroke: #000000"/>
      </g>
     </g>
     <g id="line2d_50">
      <g>
       <use xlink:href="#mab5273ffe8" x="351.38" y="180.038591" style="fill-opacity: 0; stroke: #000000"/>
      </g>
     </g>
    </g>
    <g id="ytick_15">
     <g id="line2d_51">
      <g>
       <use xlink:href="#m01d1b22d0c" x="83.54" y="174.23892" style="fill-opacity: 0; stroke: #000000"/>
      </g>
     </g>
     <g id="line2d_52">
      <g>
       <use xlink:href="#mab5273ffe8" x="351.38" y="174.23892" style="fill-opacity: 0; stroke: #000000"/>
      </g>
     </g>
    </g>
    <g id="ytick_16">
     <g id="line2d_53">
      <g>
       <use xlink:href="#m01d1b22d0c" x="83.54" y="169.740346" style="fill-opacity: 0; stroke: #000000"/>
      </g>
     </g>
     <g id="line2d_54">
      <g>
       <use xlink:href="#mab5273ffe8" x="351.38" y="169.740346" style="fill-opacity: 0; stroke: #000000"/>
      </g>
     </g>
    </g>
    <g id="ytick_17">
     <g id="line2d_55">
      <g>
       <use xlink:href="#m01d1b22d0c" x="83.54" y="166.064744" style="fill-opacity: 0; stroke: #000000"/>
      </g>
     </g>
     <g id="line2d_56">
      <g>
       <use xlink:href="#mab5273ffe8" x="351.38" y="166.064744" style="fill-opacity: 0; stroke: #000000"/>
      </g>
     </g>
    </g>
    <g id="ytick_18">
     <g id="line2d_57">
      <g>
       <use xlink:href="#m01d1b22d0c" x="83.54" y="162.957066" style="fill-opacity: 0; stroke: #000000"/>
      </g>
     </g>
     <g id="line2d_58">
      <g>
       <use xlink:href="#mab5273ffe8" x="351.38" y="162.957066" style="fill-opacity: 0; stroke: #000000"/>
      </g>
     </g>
    </g>
    <g id="ytick_19">
     <g id="line2d_59">
      <g>
       <use xlink:href="#m01d1b22d0c" x="83.54" y="160.265073" style="fill-opacity: 0; stroke: #000000"/>
      </g>
     </g>
     <g id="line2d_60">
      <g>
       <use xlink:href="#mab5273ffe8" x="351.38" y="160.265073" style="fill-opacity: 0; stroke: #000000"/>
      </g>
     </g>
    </g>
    <g id="ytick_20">
     <g id="line2d_61">
      <g>
       <use xlink:href="#m01d1b22d0c" x="83.54" y="157.890567" style="fill-opacity: 0; stroke: #000000"/>
      </g>
     </g>
     <g id="line2d_62">
      <g>
       <use xlink:href="#mab5273ffe8" x="351.38" y="157.890567" style="fill-opacity: 0; stroke: #000000"/>
      </g>
     </g>
    </g>
    <g id="ytick_21">
     <g id="line2d_63">
      <g>
       <use xlink:href="#m01d1b22d0c" x="83.54" y="141.792652" style="fill-opacity: 0; stroke: #000000"/>
      </g>
     </g>
     <g id="line2d_64">
      <g>
       <use xlink:href="#mab5273ffe8" x="351.38" y="141.792652" style="fill-opacity: 0; stroke: #000000"/>
      </g>
     </g>
    </g>
    <g id="ytick_22">
     <g id="line2d_65">
      <g>
       <use xlink:href="#m01d1b22d0c" x="83.54" y="133.618476" style="fill-opacity: 0; stroke: #000000"/>
      </g>
     </g>
     <g id="line2d_66">
      <g>
       <use xlink:href="#mab5273ffe8" x="351.38" y="133.618476" style="fill-opacity: 0; stroke: #000000"/>
      </g>
     </g>
    </g>
    <g id="ytick_23">
     <g id="line2d_67">
      <g>
       <use xlink:href="#m01d1b22d0c" x="83.54" y="127.818805" style="fill-opacity: 0; stroke: #000000"/>
      </g>
     </g>
     <g id="line2d_68">
      <g>
       <use xlink:href="#mab5273ffe8" x="351.38" y="127.818805" style="fill-opacity: 0; stroke: #000000"/>
      </g>
     </g>
    </g>
    <g id="ytick_24">
     <g id="line2d_69">
      <g>
       <use xlink:href="#m01d1b22d0c" x="83.54" y="123.320231" style="fill-opacity: 0; stroke: #000000"/>
      </g>
     </g>
     <g id="line2d_70">
      <g>
       <use xlink:href="#mab5273ffe8" x="351.38" y="123.320231" style="fill-opacity: 0; stroke: #000000"/>
      </g>
     </g>
    </g>
    <g id="ytick_25">
     <g id="line2d_71">
      <g>
       <use xlink:href="#m01d1b22d0c" x="83.54" y="119.644628" style="fill-opacity: 0; stroke: #000000"/>
      </g>
     </g>
     <g id="line2d_72">
      <g>
       <use xlink:href="#mab5273ffe8" x="351.38" y="119.644628" style="fill-opacity: 0; stroke: #000000"/>
      </g>
     </g>
    </g>
    <g id="ytick_26">
     <g id="line2d_73">
      <g>
       <use xlink:href="#m01d1b22d0c" x="83.54" y="116.536951" style="fill-opacity: 0; stroke: #000000"/>
      </g>
     </g>
     <g id="line2d_74">
      <g>
       <use xlink:href="#mab5273ffe8" x="351.38" y="116.536951" style="fill-opacity: 0; stroke: #000000"/>
      </g>
     </g>
    </g>
    <g id="ytick_27">
     <g id="line2d_75">
      <g>
       <use xlink:href="#m01d1b22d0c" x="83.54" y="113.844958" style="fill-opacity: 0; stroke: #000000"/>
      </g>
     </g>
     <g id="line2d_76">
      <g>
       <use xlink:href="#mab5273ffe8" x="351.38" y="113.844958" style="fill-opacity: 0; stroke: #000000"/>
      </g>
     </g>
    </g>
    <g id="ytick_28">
     <g id="line2d_77">
      <g>
       <use xlink:href="#m01d1b22d0c" x="83.54" y="111.470452" style="fill-opacity: 0; stroke: #000000"/>
      </g>
     </g>
     <g id="line2d_78">
      <g>
       <use xlink:href="#mab5273ffe8" x="351.38" y="111.470452" style="fill-opacity: 0; stroke: #000000"/>
      </g>
     </g>
    </g>
    <g id="ytick_29">
     <g id="line2d_79">
      <g>
       <use xlink:href="#m01d1b22d0c" x="83.54" y="95.372537" style="fill-opacity: 0; stroke: #000000"/>
      </g>
     </g>
     <g id="line2d_80">
      <g>
       <use xlink:href="#mab5273ffe8" x="351.38" y="95.372537" style="fill-opacity: 0; stroke: #000000"/>
      </g>
     </g>
    </g>
    <g id="ytick_30">
     <g id="line2d_81">
      <g>
       <use xlink:href="#m01d1b22d0c" x="83.54" y="87.19836" style="fill-opacity: 0; stroke: #000000"/>
      </g>
     </g>
     <g id="line2d_82">
      <g>
       <use xlink:href="#mab5273ffe8" x="351.38" y="87.19836" style="fill-opacity: 0; stroke: #000000"/>
      </g>
     </g>
    </g>
    <g id="ytick_31">
     <g id="line2d_83">
      <g>
       <use xlink:href="#m01d1b22d0c" x="83.54" y="81.398689" style="fill-opacity: 0; stroke: #000000"/>
      </g>
     </g>
     <g id="line2d_84">
      <g>
       <use xlink:href="#mab5273ffe8" x="351.38" y="81.398689" style="fill-opacity: 0; stroke: #000000"/>
      </g>
     </g>
    </g>
    <g id="ytick_32">
     <g id="line2d_85">
      <g>
       <use xlink:href="#m01d1b22d0c" x="83.54" y="76.900115" style="fill-opacity: 0; stroke: #000000"/>
      </g>
     </g>
     <g id="line2d_86">
      <g>
       <use xlink:href="#mab5273ffe8" x="351.38" y="76.900115" style="fill-opacity: 0; stroke: #000000"/>
      </g>
     </g>
    </g>
    <g id="ytick_33">
     <g id="line2d_87">
      <g>
       <use xlink:href="#m01d1b22d0c" x="83.54" y="73.224513" style="fill-opacity: 0; stroke: #000000"/>
      </g>
     </g>
     <g id="line2d_88">
      <g>
       <use xlink:href="#mab5273ffe8" x="351.38" y="73.224513" style="fill-opacity: 0; stroke: #000000"/>
      </g>
     </g>
    </g>
    <g id="ytick_34">
     <g id="line2d_89">
      <g>
       <use xlink:href="#m01d1b22d0c" x="83.54" y="70.116835" style="fill-opacity: 0; stroke: #000000"/>
      </g>
     </g>
     <g id="line2d_90">
      <g>
       <use xlink:href="#mab5273ffe8" x="351.38" y="70.116835" style="fill-opacity: 0; stroke: #000000"/>
      </g>
     </g>
    </g>
    <g id="ytick_35">
     <g id="line2d_91">
      <g>
       <use xlink:href="#m01d1b22d0c" x="83.54" y="67.424842" style="fill-opacity: 0; stroke: #000000"/>
      </g>
     </g>
     <g id="line2d_92">
      <g>
       <use xlink:href="#mab5273ffe8" x="351.38" y="67.424842" style="fill-opacity: 0; stroke: #000000"/>
      </g>
     </g>
    </g>
    <g id="ytick_36">
     <g id="line2d_93">
      <g>
       <use xlink:href="#m01d1b22d0c" x="83.54" y="65.050336" style="fill-opacity: 0; stroke: #000000"/>
      </g>
     </g>
     <g id="line2d_94">
      <g>
       <use xlink:href="#mab5273ffe8" x="351.38" y="65.050336" style="fill-opacity: 0; stroke: #000000"/>
      </g>
     </g>
    </g>
    <g id="ytick_37">
     <g id="line2d_95">
      <g>
       <use xlink:href="#m01d1b22d0c" x="83.54" y="48.952421" style="fill-opacity: 0; stroke: #000000"/>
      </g>
     </g>
     <g id="line2d_96">
      <g>
       <use xlink:href="#mab5273ffe8" x="351.38" y="48.952421" style="fill-opacity: 0; stroke: #000000"/>
      </g>
     </g>
    </g>
    <g id="ytick_38">
     <g id="line2d_97">
      <g>
       <use xlink:href="#m01d1b22d0c" x="83.54" y="40.778245" style="fill-opacity: 0; stroke: #000000"/>
      </g>
     </g>
     <g id="line2d_98">
      <g>
       <use xlink:href="#mab5273ffe8" x="351.38" y="40.778245" style="fill-opacity: 0; stroke: #000000"/>
      </g>
     </g>
    </g>
    <g id="ytick_39">
     <g id="line2d_99">
      <g>
       <use xlink:href="#m01d1b22d0c" x="83.54" y="34.978574" style="fill-opacity: 0; stroke: #000000"/>
      </g>
     </g>
     <g id="line2d_100">
      <g>
       <use xlink:href="#mab5273ffe8" x="351.38" y="34.978574" style="fill-opacity: 0; stroke: #000000"/>
      </g>
     </g>
    </g>
    <g id="ytick_40">
     <g id="line2d_101">
      <g>
       <use xlink:href="#m01d1b22d0c" x="83.54" y="30.48" style="fill-opacity: 0; stroke: #000000"/>
      </g>
     </g>
     <g id="line2d_102">
      <g>
       <use xlink:href="#mab5273ffe8" x="351.38" y="30.48" style="fill-opacity: 0; stroke: #000000"/>
      </g>
     </g>
    </g>
    <g id="ytick_41">
     <g id="line2d_103">
      <g>
       <use xlink:href="#m01d1b22d0c" x="83.54" y="26.804397" style="fill-opacity: 0; stroke: #000000"/>
      </g>
     </g>
     <g id="line2d_104">
      <g>
       <use xlink:href="#mab5273ffe8" x="351.38" y="26.804397" style="fill-opacity: 0; stroke: #000000"/>
      </g>
     </g>
    </g>
    <g id="ytick_42">
     <g id="line2d_105">
      <g>
       <use xlink:href="#m01d1b22d0c" x="83.54" y="23.69672" style="fill-opacity: 0; stroke: #000000"/>
      </g>
     </g>
     <g id="line2d_106">
      <g>
       <use xlink:href="#mab5273ffe8" x="351.38" y="23.69672" style="fill-opacity: 0; stroke: #000000"/>
      </g>
     </g>
    </g>
    <g id="ytick_43">
     <g id="line2d_107">
      <g>
       <use xlink:href="#m01d1b22d0c" x="83.54" y="21.004727" style="fill-opacity: 0; stroke: #000000"/>
      </g>
     </g>
     <g id="line2d_108">
      <g>
       <use xlink:href="#mab5273ffe8" x="351.38" y="21.004727" style="fill-opacity: 0; stroke: #000000"/>
      </g>
     </g>
    </g>
    <g id="text_9">
     <!-- $y$ label -->
     <g transform="translate(27.36 157.38) rotate(-90) scale(0.18 -0.18)">
      <defs>
       <path id="Arial-ItalicMT-79" d="M 0 -1281 
L 34 -750 
Q 209 -800 375 -800 
Q 547 -800 653 -722 
Q 791 -619 953 -334 
L 1134 -9 
L 581 3319 
L 1138 3319 
L 1388 1641 
Q 1463 1144 1516 647 
L 3000 3319 
L 3591 3319 
L 1475 -441 
Q 1169 -991 931 -1169 
Q 694 -1347 384 -1347 
Q 188 -1347 0 -1281 
z
" transform="scale(0.015625)"/>
      </defs>
      <use xlink:href="#Arial-ItalicMT-79" transform="translate(0 0.421875)"/>
      <use xlink:href="#ArialMT-20" transform="translate(50 0.421875)"/>
      <use xlink:href="#ArialMT-6c" transform="translate(77.783203 0.421875)"/>
      <use xlink:href="#ArialMT-61" transform="translate(100 0.421875)"/>
      <use xlink:href="#ArialMT-62" transform="translate(155.615234 0.421875)"/>
      <use xlink:href="#ArialMT-65" transform="translate(211.230469 0.421875)"/>
      <use xlink:href="#ArialMT-6c" transform="translate(266.845703 0.421875)"/>
     </g>
    </g>
   </g>
   <g id="line2d_109">
    <path d="M 95.714545 30.48 
L 339.205455 232.08 
L 339.205455 232.08 
" clip-path="url(#pd1fafc9db6)" style="fill: none; stroke: #000000; stroke-width: 2"/>
   </g>
   <g id="patch_3">
    <path d="M 83.54 242.16 
L 83.54 20.4 
" style="fill: none; stroke: #000000; stroke-linejoin: miter; stroke-linecap: square"/>
   </g>
   <g id="patch_4">
    <path d="M 351.38 242.16 
L 351.38 20.4 
" style="fill: none; stroke: #000000; stroke-linejoin: miter; stroke-linecap: square"/>
   </g>
   <g id="patch_5">
    <path d="M 83.54 242.16 
L 351.38 242.16 
" style="fill: none; stroke: #000000; stroke-linejoin: miter; stroke-linecap: square"/>
   </g>
   <g id="patch_6">
    <path d="M 83.54 20.4 
L 351.38 20.4 
" style="fill: none; stroke: #000000; stroke-linejoin: miter; stroke-linecap: square"/>
   </g>
  </g>
 </g>
 <defs>
  <clipPath id="pd1fafc9db6">
   <rect x="83.54" y="20.4" width="267.84" height="221.76"/>
  </clipPath>
 </defs>
</svg>
