<?xml version="1.0" encoding="utf-8" standalone="no"?>
<!DOCTYPE svg PUBLIC "-//W3C//DTD SVG 1.1//EN"
  "http://www.w3.org/Graphics/SVG/1.1/DTD/svg11.dtd">
<svg xmlns:xlink="http://www.w3.org/1999/xlink" width="368.18pt" height="304.758125pt" viewBox="0 0 368.18 304.758125" xmlns="http://www.w3.org/2000/svg" version="1.1">
 <metadata>
  <rdf:RDF xmlns:dc="http://purl.org/dc/elements/1.1/" xmlns:cc="http://creativecommons.org/ns#" xmlns:rdf="http://www.w3.org/1999/02/22-rdf-syntax-ns#">
   <cc:Work>
    <dc:type rdf:resource="http://purl.org/dc/dcmitype/StillImage"/>
    <dc:date>2024-12-03T18:57:34.741971</dc:date>
    <dc:format>image/svg+xml</dc:format>
    <dc:creator>
     <cc:Agent>
      <dc:title>Matplotlib v3.9.2, https://matplotlib.org/</dc:title>
     </cc:Agent>
    </dc:creator>
   </cc:Work>
  </rdf:RDF>
 </metadata>
 <defs>
  <style type="text/css">*{stroke-linejoin: round; stroke-linecap: butt}</style>
 </defs>
 <g id="figure_1">
  <g id="patch_1">
   <path d="M 0 304.758125 
L 368.18 304.758125 
L 368.18 0 
L 0 0 
z
" style="fill: #ffffff"/>
  </g>
  <g id="axes_1">
   <g id="patch_2">
    <path d="M 79.94 242.16 
L 347.78 242.16 
L 347.78 20.4 
L 79.94 20.4 
z
" style="fill: #ffffff"/>
   </g>
   <g id="matplotlib.axis_1">
    <g id="xtick_1">
     <g id="line2d_1">
      <defs>
       <path id="mcb2e112854" d="M 0 0 
L 0 6 
" style="stroke: #000000"/>
      </defs>
      <g>
       <use xlink:href="#mcb2e112854" x="92.114545" y="242.16" style="fill-opacity: 0; stroke: #000000"/>
      </g>
     </g>
     <g id="line2d_2">
      <defs>
       <path id="m1b3b94eb60" d="M 0 0 
L 0 -6 
" style="stroke: #000000"/>
      </defs>
      <g>
       <use xlink:href="#m1b3b94eb60" x="92.114545" y="20.4" style="fill-opacity: 0; stroke: #000000"/>
      </g>
     </g>
     <g id="text_1">
      <!-- 0 -->
      <g transform="translate(87.614545 264.15875) scale(0.18 -0.18)">
       <defs>
        <path id="TimesNewRomanPSMT-30" d="M 231 2094 
Q 231 2819 450 3342 
Q 669 3866 1031 4122 
Q 1313 4325 1613 4325 
Q 2100 4325 2488 3828 
Q 2972 3213 2972 2159 
Q 2972 1422 2759 906 
Q 2547 391 2217 158 
Q 1888 -75 1581 -75 
Q 975 -75 572 641 
Q 231 1244 231 2094 
z
M 844 2016 
Q 844 1141 1059 588 
Q 1238 122 1591 122 
Q 1759 122 1940 273 
Q 2122 425 2216 781 
Q 2359 1319 2359 2297 
Q 2359 3022 2209 3506 
Q 2097 3866 1919 4016 
Q 1791 4119 1609 4119 
Q 1397 4119 1231 3928 
Q 1006 3669 925 3112 
Q 844 2556 844 2016 
z
" transform="scale(0.015625)"/>
       </defs>
       <use xlink:href="#TimesNewRomanPSMT-30"/>
      </g>
     </g>
    </g>
    <g id="xtick_2">
     <g id="line2d_3">
      <g>
       <use xlink:href="#mcb2e112854" x="213.86" y="242.16" style="fill-opacity: 0; stroke: #000000"/>
      </g>
     </g>
     <g id="line2d_4">
      <g>
       <use xlink:href="#m1b3b94eb60" x="213.86" y="20.4" style="fill-opacity: 0; stroke: #000000"/>
      </g>
     </g>
     <g id="text_2">
      <!-- 5 -->
      <g transform="translate(209.36 264.15875) scale(0.18 -0.18)">
       <defs>
        <path id="TimesNewRomanPSMT-35" d="M 2778 4238 
L 2534 3706 
L 1259 3706 
L 981 3138 
Q 1809 3016 2294 2522 
Q 2709 2097 2709 1522 
Q 2709 1188 2573 903 
Q 2438 619 2231 419 
Q 2025 219 1772 97 
Q 1413 -75 1034 -75 
Q 653 -75 479 54 
Q 306 184 306 341 
Q 306 428 378 495 
Q 450 563 559 563 
Q 641 563 702 538 
Q 763 513 909 409 
Q 1144 247 1384 247 
Q 1750 247 2026 523 
Q 2303 800 2303 1197 
Q 2303 1581 2056 1914 
Q 1809 2247 1375 2428 
Q 1034 2569 447 2591 
L 1259 4238 
L 2778 4238 
z
" transform="scale(0.015625)"/>
       </defs>
       <use xlink:href="#TimesNewRomanPSMT-35"/>
      </g>
     </g>
    </g>
    <g id="xtick_3">
     <g id="line2d_5">
      <g>
       <use xlink:href="#mcb2e112854" x="335.605455" y="242.16" style="fill-opacity: 0; stroke: #000000"/>
      </g>
     </g>
     <g id="line2d_6">
      <g>
       <use xlink:href="#m1b3b94eb60" x="335.605455" y="20.4" style="fill-opacity: 0; stroke: #000000"/>
      </g>
     </g>
     <g id="text_3">
      <!-- 10 -->
      <g transform="translate(326.605455 264.15875) scale(0.18 -0.18)">
       <defs>
        <path id="TimesNewRomanPSMT-31" d="M 750 3822 
L 1781 4325 
L 1884 4325 
L 1884 747 
Q 1884 391 1914 303 
Q 1944 216 2037 169 
Q 2131 122 2419 116 
L 2419 0 
L 825 0 
L 825 116 
Q 1125 122 1212 167 
Q 1300 213 1334 289 
Q 1369 366 1369 747 
L 1369 3034 
Q 1369 3497 1338 3628 
Q 1316 3728 1258 3775 
Q 1200 3822 1119 3822 
Q 1003 3822 797 3725 
L 750 3822 
z
" transform="scale(0.015625)"/>
       </defs>
       <use xlink:href="#TimesNewRomanPSMT-31"/>
       <use xlink:href="#TimesNewRomanPSMT-30" x="50"/>
      </g>
     </g>
    </g>
    <g id="xtick_4">
     <g id="line2d_7">
      <defs>
       <path id="m105c4b1a16" d="M 0 0 
L 0 3 
" style="stroke: #000000"/>
      </defs>
      <g>
       <use xlink:href="#m105c4b1a16" x="116.463636" y="242.16" style="fill-opacity: 0; stroke: #000000"/>
      </g>
     </g>
     <g id="line2d_8">
      <defs>
       <path id="m8606765d5c" d="M 0 0 
L 0 -3 
" style="stroke: #000000"/>
      </defs>
      <g>
       <use xlink:href="#m8606765d5c" x="116.463636" y="20.4" style="fill-opacity: 0; stroke: #000000"/>
      </g>
     </g>
    </g>
    <g id="xtick_5">
     <g id="line2d_9">
      <g>
       <use xlink:href="#m105c4b1a16" x="140.812727" y="242.16" style="fill-opacity: 0; stroke: #000000"/>
      </g>
     </g>
     <g id="line2d_10">
      <g>
       <use xlink:href="#m8606765d5c" x="140.812727" y="20.4" style="fill-opacity: 0; stroke: #000000"/>
      </g>
     </g>
    </g>
    <g id="xtick_6">
     <g id="line2d_11">
      <g>
       <use xlink:href="#m105c4b1a16" x="165.161818" y="242.16" style="fill-opacity: 0; stroke: #000000"/>
      </g>
     </g>
     <g id="line2d_12">
      <g>
       <use xlink:href="#m8606765d5c" x="165.161818" y="20.4" style="fill-opacity: 0; stroke: #000000"/>
      </g>
     </g>
    </g>
    <g id="xtick_7">
     <g id="line2d_13">
      <g>
       <use xlink:href="#m105c4b1a16" x="189.510909" y="242.16" style="fill-opacity: 0; stroke: #000000"/>
      </g>
     </g>
     <g id="line2d_14">
      <g>
       <use xlink:href="#m8606765d5c" x="189.510909" y="20.4" style="fill-opacity: 0; stroke: #000000"/>
      </g>
     </g>
    </g>
    <g id="xtick_8">
     <g id="line2d_15">
      <g>
       <use xlink:href="#m105c4b1a16" x="238.209091" y="242.16" style="fill-opacity: 0; stroke: #000000"/>
      </g>
     </g>
     <g id="line2d_16">
      <g>
       <use xlink:href="#m8606765d5c" x="238.209091" y="20.4" style="fill-opacity: 0; stroke: #000000"/>
      </g>
     </g>
    </g>
    <g id="xtick_9">
     <g id="line2d_17">
      <g>
       <use xlink:href="#m105c4b1a16" x="262.558182" y="242.16" style="fill-opacity: 0; stroke: #000000"/>
      </g>
     </g>
     <g id="line2d_18">
      <g>
       <use xlink:href="#m8606765d5c" x="262.558182" y="20.4" style="fill-opacity: 0; stroke: #000000"/>
      </g>
     </g>
    </g>
    <g id="xtick_10">
     <g id="line2d_19">
      <g>
       <use xlink:href="#m105c4b1a16" x="286.907273" y="242.16" style="fill-opacity: 0; stroke: #000000"/>
      </g>
     </g>
     <g id="line2d_20">
      <g>
       <use xlink:href="#m8606765d5c" x="286.907273" y="20.4" style="fill-opacity: 0; stroke: #000000"/>
      </g>
     </g>
    </g>
    <g id="xtick_11">
     <g id="line2d_21">
      <g>
       <use xlink:href="#m105c4b1a16" x="311.256364" y="242.16" style="fill-opacity: 0; stroke: #000000"/>
      </g>
     </g>
     <g id="line2d_22">
      <g>
       <use xlink:href="#m8606765d5c" x="311.256364" y="20.4" style="fill-opacity: 0; stroke: #000000"/>
      </g>
     </g>
    </g>
    <g id="text_4">
     <!-- $x$ label -->
     <g transform="translate(190.1 286.507812) scale(0.18 -0.18)">
      <defs>
       <path id="TimesNewRomanPS-ItalicMT-78" d="M 1109 2828 
Q 1263 2666 1341 2503 
Q 1397 2391 1525 1913 
L 1800 2325 
Q 1909 2475 2065 2611 
Q 2222 2747 2341 2797 
Q 2416 2828 2506 2828 
Q 2641 2828 2720 2756 
Q 2800 2684 2800 2581 
Q 2800 2463 2753 2419 
Q 2666 2341 2553 2341 
Q 2488 2341 2413 2369 
Q 2266 2419 2216 2419 
Q 2141 2419 2038 2331 
Q 1844 2169 1575 1703 
L 1831 628 
Q 1891 381 1931 332 
Q 1972 284 2013 284 
Q 2078 284 2166 356 
Q 2338 500 2459 731 
L 2569 675 
Q 2372 306 2069 63 
Q 1897 -75 1778 -75 
Q 1603 -75 1500 122 
Q 1434 244 1228 1172 
Q 741 325 447 81 
Q 256 -75 78 -75 
Q -47 -75 -150 16 
Q -225 84 -225 200 
Q -225 303 -156 372 
Q -88 441 13 441 
Q 113 441 225 341 
Q 306 269 350 269 
Q 388 269 447 319 
Q 594 438 847 831 
Q 1100 1225 1178 1400 
Q 984 2159 969 2203 
Q 897 2406 781 2490 
Q 666 2575 441 2575 
Q 369 2575 275 2569 
L 275 2681 
L 1109 2828 
z
" transform="scale(0.015625)"/>
       <path id="TimesNewRomanPSMT-20" transform="scale(0.015625)"/>
       <path id="TimesNewRomanPSMT-6c" d="M 1184 4444 
L 1184 647 
Q 1184 378 1223 290 
Q 1263 203 1344 158 
Q 1425 113 1647 113 
L 1647 0 
L 244 0 
L 244 113 
Q 441 113 512 153 
Q 584 194 625 287 
Q 666 381 666 647 
L 666 3247 
Q 666 3731 644 3842 
Q 622 3953 573 3993 
Q 525 4034 450 4034 
Q 369 4034 244 3984 
L 191 4094 
L 1044 4444 
L 1184 4444 
z
" transform="scale(0.015625)"/>
       <path id="TimesNewRomanPSMT-61" d="M 1822 413 
Q 1381 72 1269 19 
Q 1100 -59 909 -59 
Q 613 -59 420 144 
Q 228 347 228 678 
Q 228 888 322 1041 
Q 450 1253 767 1440 
Q 1084 1628 1822 1897 
L 1822 2009 
Q 1822 2438 1686 2597 
Q 1550 2756 1291 2756 
Q 1094 2756 978 2650 
Q 859 2544 859 2406 
L 866 2225 
Q 866 2081 792 2003 
Q 719 1925 600 1925 
Q 484 1925 411 2006 
Q 338 2088 338 2228 
Q 338 2497 613 2722 
Q 888 2947 1384 2947 
Q 1766 2947 2009 2819 
Q 2194 2722 2281 2516 
Q 2338 2381 2338 1966 
L 2338 994 
Q 2338 584 2353 492 
Q 2369 400 2405 369 
Q 2441 338 2488 338 
Q 2538 338 2575 359 
Q 2641 400 2828 588 
L 2828 413 
Q 2478 -56 2159 -56 
Q 2006 -56 1915 50 
Q 1825 156 1822 413 
z
M 1822 616 
L 1822 1706 
Q 1350 1519 1213 1441 
Q 966 1303 859 1153 
Q 753 1003 753 825 
Q 753 600 887 451 
Q 1022 303 1197 303 
Q 1434 303 1822 616 
z
" transform="scale(0.015625)"/>
       <path id="TimesNewRomanPSMT-62" d="M 984 2369 
Q 1400 2947 1881 2947 
Q 2322 2947 2650 2570 
Q 2978 2194 2978 1541 
Q 2978 778 2472 313 
Q 2038 -88 1503 -88 
Q 1253 -88 995 3 
Q 738 94 469 275 
L 469 3241 
Q 469 3728 445 3840 
Q 422 3953 372 3993 
Q 322 4034 247 4034 
Q 159 4034 28 3984 
L -16 4094 
L 844 4444 
L 984 4444 
L 984 2369 
z
M 984 2169 
L 984 456 
Q 1144 300 1314 220 
Q 1484 141 1663 141 
Q 1947 141 2192 453 
Q 2438 766 2438 1363 
Q 2438 1913 2192 2208 
Q 1947 2503 1634 2503 
Q 1469 2503 1303 2419 
Q 1178 2356 984 2169 
z
" transform="scale(0.015625)"/>
       <path id="TimesNewRomanPSMT-65" d="M 681 1784 
Q 678 1147 991 784 
Q 1303 422 1725 422 
Q 2006 422 2214 576 
Q 2422 731 2563 1106 
L 2659 1044 
Q 2594 616 2278 264 
Q 1963 -88 1488 -88 
Q 972 -88 605 314 
Q 238 716 238 1394 
Q 238 2128 614 2539 
Q 991 2950 1559 2950 
Q 2041 2950 2350 2633 
Q 2659 2316 2659 1784 
L 681 1784 
z
M 681 1966 
L 2006 1966 
Q 1991 2241 1941 2353 
Q 1863 2528 1708 2628 
Q 1553 2728 1384 2728 
Q 1125 2728 920 2526 
Q 716 2325 681 1966 
z
" transform="scale(0.015625)"/>
      </defs>
      <use xlink:href="#TimesNewRomanPS-ItalicMT-78" transform="translate(0 0.5625)"/>
      <use xlink:href="#TimesNewRomanPSMT-20" transform="translate(44.384766 0.5625)"/>
      <use xlink:href="#TimesNewRomanPSMT-6c" transform="translate(69.384766 0.5625)"/>
      <use xlink:href="#TimesNewRomanPSMT-61" transform="translate(97.167969 0.5625)"/>
      <use xlink:href="#TimesNewRomanPSMT-62" transform="translate(141.552734 0.5625)"/>
      <use xlink:href="#TimesNewRomanPSMT-65" transform="translate(191.552734 0.5625)"/>
      <use xlink:href="#TimesNewRomanPSMT-6c" transform="translate(235.9375 0.5625)"/>
     </g>
    </g>
   </g>
   <g id="matplotlib.axis_2">
    <g id="ytick_1">
     <g id="line2d_23">
      <defs>
       <path id="m5ced10c519" d="M 0 0 
L -6 0 
" style="stroke: #000000"/>
      </defs>
      <g>
       <use xlink:href="#m5ced10c519" x="79.94" y="184.335473" style="fill-opacity: 0; stroke: #000000"/>
      </g>
     </g>
     <g id="line2d_24">
      <defs>
       <path id="mc43b0962eb" d="M 0 0 
L 6 0 
" style="stroke: #000000"/>
      </defs>
      <g>
       <use xlink:href="#mc43b0962eb" x="347.78" y="184.335473" style="fill-opacity: 0; stroke: #000000"/>
      </g>
     </g>
     <g id="text_5">
      <!-- $\mathdefault{10^{-1}}$ -->
      <g transform="translate(36.96 190.584848) scale(0.18 -0.18)">
       <defs>
        <path id="TimesNewRomanPSMT-2212" d="M 3484 2000 
L 116 2000 
L 116 2256 
L 3484 2256 
L 3484 2000 
z
" transform="scale(0.015625)"/>
       </defs>
       <use xlink:href="#TimesNewRomanPSMT-31" transform="translate(0 0.051562)"/>
       <use xlink:href="#TimesNewRomanPSMT-30" transform="translate(50 0.051562)"/>
       <use xlink:href="#TimesNewRomanPSMT-2212" transform="translate(104.508437 38.695312) scale(0.7)"/>
       <use xlink:href="#TimesNewRomanPSMT-31" transform="translate(143.985977 38.695312) scale(0.7)"/>
      </g>
     </g>
    </g>
    <g id="ytick_2">
     <g id="line2d_25">
      <g>
       <use xlink:href="#m5ced10c519" x="79.94" y="93.777352" style="fill-opacity: 0; stroke: #000000"/>
      </g>
     </g>
     <g id="line2d_26">
      <g>
       <use xlink:href="#mc43b0962eb" x="347.78" y="93.777352" style="fill-opacity: 0; stroke: #000000"/>
      </g>
     </g>
     <g id="text_6">
      <!-- $\mathdefault{10^{0}}$ -->
      <g transform="translate(44.16 100.026727) scale(0.18 -0.18)">
       <use xlink:href="#TimesNewRomanPSMT-31" transform="translate(0 0.051562)"/>
       <use xlink:href="#TimesNewRomanPSMT-30" transform="translate(50 0.051562)"/>
       <use xlink:href="#TimesNewRomanPSMT-30" transform="translate(104.508437 38.695312) scale(0.7)"/>
      </g>
     </g>
    </g>
    <g id="ytick_3">
     <g id="line2d_27">
      <defs>
       <path id="mcdb930c89e" d="M 0 0 
L -3 0 
" style="stroke: #000000"/>
      </defs>
      <g>
       <use xlink:href="#mcdb930c89e" x="79.94" y="231.68639" style="fill-opacity: 0; stroke: #000000"/>
      </g>
     </g>
     <g id="line2d_28">
      <defs>
       <path id="mea4cb1c5eb" d="M 0 0 
L 3 0 
" style="stroke: #000000"/>
      </defs>
      <g>
       <use xlink:href="#mea4cb1c5eb" x="347.78" y="231.68639" style="fill-opacity: 0; stroke: #000000"/>
      </g>
     </g>
    </g>
    <g id="ytick_4">
     <g id="line2d_29">
      <g>
       <use xlink:href="#mcdb930c89e" x="79.94" y="220.372173" style="fill-opacity: 0; stroke: #000000"/>
      </g>
     </g>
     <g id="line2d_30">
      <g>
       <use xlink:href="#mea4cb1c5eb" x="347.78" y="220.372173" style="fill-opacity: 0; stroke: #000000"/>
      </g>
     </g>
    </g>
    <g id="ytick_5">
     <g id="line2d_31">
      <g>
       <use xlink:href="#mcdb930c89e" x="79.94" y="211.596184" style="fill-opacity: 0; stroke: #000000"/>
      </g>
     </g>
     <g id="line2d_32">
      <g>
       <use xlink:href="#mea4cb1c5eb" x="347.78" y="211.596184" style="fill-opacity: 0; stroke: #000000"/>
      </g>
     </g>
    </g>
    <g id="ytick_6">
     <g id="line2d_33">
      <g>
       <use xlink:href="#mcdb930c89e" x="79.94" y="204.425679" style="fill-opacity: 0; stroke: #000000"/>
      </g>
     </g>
     <g id="line2d_34">
      <g>
       <use xlink:href="#mea4cb1c5eb" x="347.78" y="204.425679" style="fill-opacity: 0; stroke: #000000"/>
      </g>
     </g>
    </g>
    <g id="ytick_7">
     <g id="line2d_35">
      <g>
       <use xlink:href="#mcdb930c89e" x="79.94" y="198.363103" style="fill-opacity: 0; stroke: #000000"/>
      </g>
     </g>
     <g id="line2d_36">
      <g>
       <use xlink:href="#mea4cb1c5eb" x="347.78" y="198.363103" style="fill-opacity: 0; stroke: #000000"/>
      </g>
     </g>
    </g>
    <g id="ytick_8">
     <g id="line2d_37">
      <g>
       <use xlink:href="#mcdb930c89e" x="79.94" y="193.111462" style="fill-opacity: 0; stroke: #000000"/>
      </g>
     </g>
     <g id="line2d_38">
      <g>
       <use xlink:href="#mea4cb1c5eb" x="347.78" y="193.111462" style="fill-opacity: 0; stroke: #000000"/>
      </g>
     </g>
    </g>
    <g id="ytick_9">
     <g id="line2d_39">
      <g>
       <use xlink:href="#mcdb930c89e" x="79.94" y="188.479185" style="fill-opacity: 0; stroke: #000000"/>
      </g>
     </g>
     <g id="line2d_40">
      <g>
       <use xlink:href="#mea4cb1c5eb" x="347.78" y="188.479185" style="fill-opacity: 0; stroke: #000000"/>
      </g>
     </g>
    </g>
    <g id="ytick_10">
     <g id="line2d_41">
      <g>
       <use xlink:href="#mcdb930c89e" x="79.94" y="157.074762" style="fill-opacity: 0; stroke: #000000"/>
      </g>
     </g>
     <g id="line2d_42">
      <g>
       <use xlink:href="#mea4cb1c5eb" x="347.78" y="157.074762" style="fill-opacity: 0; stroke: #000000"/>
      </g>
     </g>
    </g>
    <g id="ytick_11">
     <g id="line2d_43">
      <g>
       <use xlink:href="#mcdb930c89e" x="79.94" y="141.128268" style="fill-opacity: 0; stroke: #000000"/>
      </g>
     </g>
     <g id="line2d_44">
      <g>
       <use xlink:href="#mea4cb1c5eb" x="347.78" y="141.128268" style="fill-opacity: 0; stroke: #000000"/>
      </g>
     </g>
    </g>
    <g id="ytick_12">
     <g id="line2d_45">
      <g>
       <use xlink:href="#mcdb930c89e" x="79.94" y="129.814051" style="fill-opacity: 0; stroke: #000000"/>
      </g>
     </g>
     <g id="line2d_46">
      <g>
       <use xlink:href="#mea4cb1c5eb" x="347.78" y="129.814051" style="fill-opacity: 0; stroke: #000000"/>
      </g>
     </g>
    </g>
    <g id="ytick_13">
     <g id="line2d_47">
      <g>
       <use xlink:href="#mcdb930c89e" x="79.94" y="121.038063" style="fill-opacity: 0; stroke: #000000"/>
      </g>
     </g>
     <g id="line2d_48">
      <g>
       <use xlink:href="#mea4cb1c5eb" x="347.78" y="121.038063" style="fill-opacity: 0; stroke: #000000"/>
      </g>
     </g>
    </g>
    <g id="ytick_14">
     <g id="line2d_49">
      <g>
       <use xlink:href="#mcdb930c89e" x="79.94" y="113.867558" style="fill-opacity: 0; stroke: #000000"/>
      </g>
     </g>
     <g id="line2d_50">
      <g>
       <use xlink:href="#mea4cb1c5eb" x="347.78" y="113.867558" style="fill-opacity: 0; stroke: #000000"/>
      </g>
     </g>
    </g>
    <g id="ytick_15">
     <g id="line2d_51">
      <g>
       <use xlink:href="#mcdb930c89e" x="79.94" y="107.804982" style="fill-opacity: 0; stroke: #000000"/>
      </g>
     </g>
     <g id="line2d_52">
      <g>
       <use xlink:href="#mea4cb1c5eb" x="347.78" y="107.804982" style="fill-opacity: 0; stroke: #000000"/>
      </g>
     </g>
    </g>
    <g id="ytick_16">
     <g id="line2d_53">
      <g>
       <use xlink:href="#mcdb930c89e" x="79.94" y="102.55334" style="fill-opacity: 0; stroke: #000000"/>
      </g>
     </g>
     <g id="line2d_54">
      <g>
       <use xlink:href="#mea4cb1c5eb" x="347.78" y="102.55334" style="fill-opacity: 0; stroke: #000000"/>
      </g>
     </g>
    </g>
    <g id="ytick_17">
     <g id="line2d_55">
      <g>
       <use xlink:href="#mcdb930c89e" x="79.94" y="97.921064" style="fill-opacity: 0; stroke: #000000"/>
      </g>
     </g>
     <g id="line2d_56">
      <g>
       <use xlink:href="#mea4cb1c5eb" x="347.78" y="97.921064" style="fill-opacity: 0; stroke: #000000"/>
      </g>
     </g>
    </g>
    <g id="ytick_18">
     <g id="line2d_57">
      <g>
       <use xlink:href="#mcdb930c89e" x="79.94" y="66.516641" style="fill-opacity: 0; stroke: #000000"/>
      </g>
     </g>
     <g id="line2d_58">
      <g>
       <use xlink:href="#mea4cb1c5eb" x="347.78" y="66.516641" style="fill-opacity: 0; stroke: #000000"/>
      </g>
     </g>
    </g>
    <g id="ytick_19">
     <g id="line2d_59">
      <g>
       <use xlink:href="#mcdb930c89e" x="79.94" y="50.570147" style="fill-opacity: 0; stroke: #000000"/>
      </g>
     </g>
     <g id="line2d_60">
      <g>
       <use xlink:href="#mea4cb1c5eb" x="347.78" y="50.570147" style="fill-opacity: 0; stroke: #000000"/>
      </g>
     </g>
    </g>
    <g id="ytick_20">
     <g id="line2d_61">
      <g>
       <use xlink:href="#mcdb930c89e" x="79.94" y="39.25593" style="fill-opacity: 0; stroke: #000000"/>
      </g>
     </g>
     <g id="line2d_62">
      <g>
       <use xlink:href="#mea4cb1c5eb" x="347.78" y="39.25593" style="fill-opacity: 0; stroke: #000000"/>
      </g>
     </g>
    </g>
    <g id="ytick_21">
     <g id="line2d_63">
      <g>
       <use xlink:href="#mcdb930c89e" x="79.94" y="30.479941" style="fill-opacity: 0; stroke: #000000"/>
      </g>
     </g>
     <g id="line2d_64">
      <g>
       <use xlink:href="#mea4cb1c5eb" x="347.78" y="30.479941" style="fill-opacity: 0; stroke: #000000"/>
      </g>
     </g>
    </g>
    <g id="ytick_22">
     <g id="line2d_65">
      <g>
       <use xlink:href="#mcdb930c89e" x="79.94" y="23.309436" style="fill-opacity: 0; stroke: #000000"/>
      </g>
     </g>
     <g id="line2d_66">
      <g>
       <use xlink:href="#mea4cb1c5eb" x="347.78" y="23.309436" style="fill-opacity: 0; stroke: #000000"/>
      </g>
     </g>
    </g>
    <g id="text_7">
     <!-- $y$ label -->
     <g transform="translate(27 155.04) rotate(-90) scale(0.18 -0.18)">
      <defs>
       <path id="TimesNewRomanPS-ItalicMT-79" d="M 1022 2828 
Q 1128 2647 1168 2489 
Q 1209 2331 1250 1869 
L 1388 331 
Q 1575 556 1931 1044 
Q 2103 1281 2356 1691 
Q 2509 1941 2544 2041 
Q 2563 2091 2563 2144 
Q 2563 2178 2541 2200 
Q 2519 2222 2426 2251 
Q 2334 2281 2273 2361 
Q 2213 2441 2213 2544 
Q 2213 2672 2288 2750 
Q 2363 2828 2475 2828 
Q 2613 2828 2709 2714 
Q 2806 2600 2806 2400 
Q 2806 2153 2637 1836 
Q 2469 1519 1987 862 
Q 1506 206 822 -569 
Q 350 -1103 122 -1242 
Q -106 -1381 -269 -1381 
Q -366 -1381 -439 -1307 
Q -513 -1234 -513 -1138 
Q -513 -1016 -411 -916 
Q -309 -816 -191 -816 
Q -128 -816 -88 -844 
Q -63 -859 -33 -932 
Q -3 -1006 22 -1031 
Q 38 -1047 59 -1047 
Q 78 -1047 125 -1016 
Q 297 -909 525 -678 
Q 825 -372 969 -178 
L 794 1803 
Q 750 2294 662 2400 
Q 575 2506 369 2506 
Q 303 2506 134 2488 
L 106 2603 
L 1022 2828 
z
" transform="scale(0.015625)"/>
      </defs>
      <use xlink:href="#TimesNewRomanPS-ItalicMT-79" transform="translate(0 0.5625)"/>
      <use xlink:href="#TimesNewRomanPSMT-20" transform="translate(44.384766 0.5625)"/>
      <use xlink:href="#TimesNewRomanPSMT-6c" transform="translate(69.384766 0.5625)"/>
      <use xlink:href="#TimesNewRomanPSMT-61" transform="translate(97.167969 0.5625)"/>
      <use xlink:href="#TimesNewRomanPSMT-62" transform="translate(141.552734 0.5625)"/>
      <use xlink:href="#TimesNewRomanPSMT-65" transform="translate(191.552734 0.5625)"/>
      <use xlink:href="#TimesNewRomanPSMT-6c" transform="translate(235.9375 0.5625)"/>
     </g>
    </g>
   </g>
   <g id="line2d_67">
    <path d="M 92.601848 305.758125 
L 92.602503 184.259369 
L 93.090461 157.006556 
L 93.578419 141.073227 
L 94.554334 121.025159 
L 95.53025 107.85532 
L 96.506165 98.055787 
L 97.482081 90.269215 
L 98.457996 83.826013 
L 99.921869 75.890124 
L 101.385742 69.410161 
L 102.849616 63.971923 
L 104.313489 59.321183 
L 105.777362 55.290765 
L 107.241235 51.76497 
L 109.193066 47.708178 
L 111.144897 44.261704 
L 113.096728 41.326789 
L 115.048559 38.832108 
L 117.00039 36.724951 
L 118.952221 34.965765 
L 120.904052 33.52465 
L 122.855883 32.379047 
L 124.807714 31.512172 
L 126.759545 30.911963 
L 128.711375 30.570379 
L 130.663206 30.48295 
L 132.615037 30.648546 
L 134.566868 31.069314 
L 136.518699 31.75079 
L 138.47053 32.702199 
L 140.422361 33.936971 
L 142.374192 35.473541 
L 144.326023 37.336537 
L 146.277854 39.558547 
L 148.229685 42.182738 
L 150.181516 45.266865 
L 152.133347 48.889563 
L 153.59722 52.024495 
L 155.061093 55.586402 
L 156.524966 59.660626 
L 157.988839 64.366058 
L 159.452713 69.875097 
L 160.916586 76.451125 
L 161.892501 81.630038 
L 162.868417 87.669437 
L 163.844332 94.883333 
L 164.820248 103.803672 
L 165.796163 115.444494 
L 166.284121 122.908527 
L 166.772079 132.148928 
L 167.260036 144.271056 
L 167.747994 161.909657 
L 168.235952 194.76935 
L 168.236551 305.758125 
M 245.332779 305.758125 
L 245.333274 214.030827 
L 245.821232 169.135814 
L 246.309189 148.725966 
L 246.797147 135.367932 
L 247.773062 117.511568 
L 248.748978 105.322414 
L 249.724893 96.080566 
L 250.700809 88.654792 
L 252.164682 79.722124 
L 253.628555 72.565802 
L 255.092428 66.635388 
L 256.556302 61.608018 
L 258.020175 57.278152 
L 259.484048 53.506958 
L 261.435879 49.182225 
L 263.38771 45.515716 
L 265.339541 42.394686 
L 267.291372 39.738604 
L 269.243203 37.488423 
L 271.195034 35.600051 
L 273.146865 34.040223 
L 275.098696 32.783786 
L 277.050527 31.811895 
L 279.002357 31.11078 
L 280.954188 30.670926 
L 282.906019 30.486534 
L 284.85785 30.555214 
L 286.809681 30.877853 
L 288.761512 31.458666 
L 290.713343 32.305419 
L 292.665174 33.429854 
L 294.617005 34.848375 
L 296.568836 36.583066 
L 298.520667 38.663216 
L 300.472498 41.127559 
L 302.424329 44.027674 
L 304.37616 47.433256 
L 305.840033 50.375739 
L 307.303906 53.710684 
L 308.767779 57.51106 
L 310.231652 61.876811 
L 311.695526 66.949753 
L 313.159399 72.940463 
L 314.623272 80.181041 
L 315.599187 85.967265 
L 316.575103 92.82925 
L 317.551018 101.225077 
L 318.526934 111.99673 
L 319.502849 126.972383 
L 319.990807 137.372384 
L 320.478765 151.574486 
L 320.966723 174.051113 
L 321.45468 232.08 
L 321.455078 305.758125 
L 321.455078 305.758125 
" clip-path="url(#p09b5fd0c4e)" style="fill: none; stroke: #000000; stroke-width: 2"/>
   </g>
   <g id="patch_3">
    <path d="M 79.94 242.16 
L 79.94 20.4 
" style="fill: none; stroke: #000000; stroke-linejoin: miter; stroke-linecap: square"/>
   </g>
   <g id="patch_4">
    <path d="M 347.78 242.16 
L 347.78 20.4 
" style="fill: none; stroke: #000000; stroke-linejoin: miter; stroke-linecap: square"/>
   </g>
   <g id="patch_5">
    <path d="M 79.94 242.16 
L 347.78 242.16 
" style="fill: none; stroke: #000000; stroke-linejoin: miter; stroke-linecap: square"/>
   </g>
   <g id="patch_6">
    <path d="M 79.94 20.4 
L 347.78 20.4 
" style="fill: none; stroke: #000000; stroke-linejoin: miter; stroke-linecap: square"/>
   </g>
  </g>
 </g>
 <defs>
  <clipPath id="p09b5fd0c4e">
   <rect x="79.94" y="20.4" width="267.84" height="221.76"/>
  </clipPath>
 </defs>
</svg>
