<?xml version="1.0" encoding="utf-8" standalone="no"?>
<!DOCTYPE svg PUBLIC "-//W3C//DTD SVG 1.1//EN"
  "http://www.w3.org/Graphics/SVG/1.1/DTD/svg11.dtd">
<svg xmlns:xlink="http://www.w3.org/1999/xlink" width="344.790312pt" height="282.409063pt" viewBox="0 0 344.790312 282.409063" xmlns="http://www.w3.org/2000/svg" version="1.1">
 <metadata>
  <rdf:RDF xmlns:dc="http://purl.org/dc/elements/1.1/" xmlns:cc="http://creativecommons.org/ns#" xmlns:rdf="http://www.w3.org/1999/02/22-rdf-syntax-ns#">
   <cc:Work>
    <dc:type rdf:resource="http://purl.org/dc/dcmitype/StillImage"/>
    <dc:date>2024-12-03T18:57:30.289233</dc:date>
    <dc:format>image/svg+xml</dc:format>
    <dc:creator>
     <cc:Agent>
      <dc:title>Matplotlib v3.9.2, https://matplotlib.org/</dc:title>
     </cc:Agent>
    </dc:creator>
   </cc:Work>
  </rdf:RDF>
 </metadata>
 <defs>
  <style type="text/css">*{stroke-linejoin: round; stroke-linecap: butt}</style>
 </defs>
 <g id="figure_1">
  <g id="patch_1">
   <path d="M 0 282.409063 
L 344.790312 282.409063 
L 344.790312 0 
L 0 0 
z
" style="fill: #ffffff"/>
  </g>
  <g id="axes_1">
   <g id="patch_2">
    <path d="M 56.550312 242.16 
L 324.390312 242.16 
L 324.390312 20.4 
L 56.550312 20.4 
z
" style="fill: #ffffff"/>
   </g>
   <g id="matplotlib.axis_1">
    <g id="xtick_1">
     <g id="line2d_1">
      <defs>
       <path id="mcecc336d90" d="M 0 0 
L 0 6 
" style="stroke: #000000"/>
      </defs>
      <g>
       <use xlink:href="#mcecc336d90" x="68.724858" y="242.16" style="fill-opacity: 0; stroke: #000000"/>
      </g>
     </g>
     <g id="line2d_2">
      <defs>
       <path id="m2a19c3e6ea" d="M 0 0 
L 0 -6 
" style="stroke: #000000"/>
      </defs>
      <g>
       <use xlink:href="#m2a19c3e6ea" x="68.724858" y="20.4" style="fill-opacity: 0; stroke: #000000"/>
      </g>
     </g>
     <g id="text_1">
      <!-- 0 -->
      <g transform="translate(64.224858 264.15875) scale(0.18 -0.18)">
       <defs>
        <path id="TimesNewRomanPSMT-30" d="M 231 2094 
Q 231 2819 450 3342 
Q 669 3866 1031 4122 
Q 1313 4325 1613 4325 
Q 2100 4325 2488 3828 
Q 2972 3213 2972 2159 
Q 2972 1422 2759 906 
Q 2547 391 2217 158 
Q 1888 -75 1581 -75 
Q 975 -75 572 641 
Q 231 1244 231 2094 
z
M 844 2016 
Q 844 1141 1059 588 
Q 1238 122 1591 122 
Q 1759 122 1940 273 
Q 2122 425 2216 781 
Q 2359 1319 2359 2297 
Q 2359 3022 2209 3506 
Q 2097 3866 1919 4016 
Q 1791 4119 1609 4119 
Q 1397 4119 1231 3928 
Q 1006 3669 925 3112 
Q 844 2556 844 2016 
z
" transform="scale(0.015625)"/>
       </defs>
       <use xlink:href="#TimesNewRomanPSMT-30"/>
      </g>
     </g>
    </g>
    <g id="xtick_2">
     <g id="line2d_3">
      <g>
       <use xlink:href="#mcecc336d90" x="190.470312" y="242.16" style="fill-opacity: 0; stroke: #000000"/>
      </g>
     </g>
     <g id="line2d_4">
      <g>
       <use xlink:href="#m2a19c3e6ea" x="190.470312" y="20.4" style="fill-opacity: 0; stroke: #000000"/>
      </g>
     </g>
     <g id="text_2">
      <!-- 5 -->
      <g transform="translate(185.970312 264.15875) scale(0.18 -0.18)">
       <defs>
        <path id="TimesNewRomanPSMT-35" d="M 2778 4238 
L 2534 3706 
L 1259 3706 
L 981 3138 
Q 1809 3016 2294 2522 
Q 2709 2097 2709 1522 
Q 2709 1188 2573 903 
Q 2438 619 2231 419 
Q 2025 219 1772 97 
Q 1413 -75 1034 -75 
Q 653 -75 479 54 
Q 306 184 306 341 
Q 306 428 378 495 
Q 450 563 559 563 
Q 641 563 702 538 
Q 763 513 909 409 
Q 1144 247 1384 247 
Q 1750 247 2026 523 
Q 2303 800 2303 1197 
Q 2303 1581 2056 1914 
Q 1809 2247 1375 2428 
Q 1034 2569 447 2591 
L 1259 4238 
L 2778 4238 
z
" transform="scale(0.015625)"/>
       </defs>
       <use xlink:href="#TimesNewRomanPSMT-35"/>
      </g>
     </g>
    </g>
    <g id="xtick_3">
     <g id="line2d_5">
      <g>
       <use xlink:href="#mcecc336d90" x="312.215767" y="242.16" style="fill-opacity: 0; stroke: #000000"/>
      </g>
     </g>
     <g id="line2d_6">
      <g>
       <use xlink:href="#m2a19c3e6ea" x="312.215767" y="20.4" style="fill-opacity: 0; stroke: #000000"/>
      </g>
     </g>
     <g id="text_3">
      <!-- 10 -->
      <g transform="translate(303.215767 264.15875) scale(0.18 -0.18)">
       <defs>
        <path id="TimesNewRomanPSMT-31" d="M 750 3822 
L 1781 4325 
L 1884 4325 
L 1884 747 
Q 1884 391 1914 303 
Q 1944 216 2037 169 
Q 2131 122 2419 116 
L 2419 0 
L 825 0 
L 825 116 
Q 1125 122 1212 167 
Q 1300 213 1334 289 
Q 1369 366 1369 747 
L 1369 3034 
Q 1369 3497 1338 3628 
Q 1316 3728 1258 3775 
Q 1200 3822 1119 3822 
Q 1003 3822 797 3725 
L 750 3822 
z
" transform="scale(0.015625)"/>
       </defs>
       <use xlink:href="#TimesNewRomanPSMT-31"/>
       <use xlink:href="#TimesNewRomanPSMT-30" x="50"/>
      </g>
     </g>
    </g>
    <g id="xtick_4">
     <g id="line2d_7">
      <defs>
       <path id="m7bb8df7f93" d="M 0 0 
L 0 3 
" style="stroke: #000000"/>
      </defs>
      <g>
       <use xlink:href="#m7bb8df7f93" x="93.073949" y="242.16" style="fill-opacity: 0; stroke: #000000"/>
      </g>
     </g>
     <g id="line2d_8">
      <defs>
       <path id="mf7a018db86" d="M 0 0 
L 0 -3 
" style="stroke: #000000"/>
      </defs>
      <g>
       <use xlink:href="#mf7a018db86" x="93.073949" y="20.4" style="fill-opacity: 0; stroke: #000000"/>
      </g>
     </g>
    </g>
    <g id="xtick_5">
     <g id="line2d_9">
      <g>
       <use xlink:href="#m7bb8df7f93" x="117.42304" y="242.16" style="fill-opacity: 0; stroke: #000000"/>
      </g>
     </g>
     <g id="line2d_10">
      <g>
       <use xlink:href="#mf7a018db86" x="117.42304" y="20.4" style="fill-opacity: 0; stroke: #000000"/>
      </g>
     </g>
    </g>
    <g id="xtick_6">
     <g id="line2d_11">
      <g>
       <use xlink:href="#m7bb8df7f93" x="141.772131" y="242.16" style="fill-opacity: 0; stroke: #000000"/>
      </g>
     </g>
     <g id="line2d_12">
      <g>
       <use xlink:href="#mf7a018db86" x="141.772131" y="20.4" style="fill-opacity: 0; stroke: #000000"/>
      </g>
     </g>
    </g>
    <g id="xtick_7">
     <g id="line2d_13">
      <g>
       <use xlink:href="#m7bb8df7f93" x="166.121222" y="242.16" style="fill-opacity: 0; stroke: #000000"/>
      </g>
     </g>
     <g id="line2d_14">
      <g>
       <use xlink:href="#mf7a018db86" x="166.121222" y="20.4" style="fill-opacity: 0; stroke: #000000"/>
      </g>
     </g>
    </g>
    <g id="xtick_8">
     <g id="line2d_15">
      <g>
       <use xlink:href="#m7bb8df7f93" x="214.819403" y="242.16" style="fill-opacity: 0; stroke: #000000"/>
      </g>
     </g>
     <g id="line2d_16">
      <g>
       <use xlink:href="#mf7a018db86" x="214.819403" y="20.4" style="fill-opacity: 0; stroke: #000000"/>
      </g>
     </g>
    </g>
    <g id="xtick_9">
     <g id="line2d_17">
      <g>
       <use xlink:href="#m7bb8df7f93" x="239.168494" y="242.16" style="fill-opacity: 0; stroke: #000000"/>
      </g>
     </g>
     <g id="line2d_18">
      <g>
       <use xlink:href="#mf7a018db86" x="239.168494" y="20.4" style="fill-opacity: 0; stroke: #000000"/>
      </g>
     </g>
    </g>
    <g id="xtick_10">
     <g id="line2d_19">
      <g>
       <use xlink:href="#m7bb8df7f93" x="263.517585" y="242.16" style="fill-opacity: 0; stroke: #000000"/>
      </g>
     </g>
     <g id="line2d_20">
      <g>
       <use xlink:href="#mf7a018db86" x="263.517585" y="20.4" style="fill-opacity: 0; stroke: #000000"/>
      </g>
     </g>
    </g>
    <g id="xtick_11">
     <g id="line2d_21">
      <g>
       <use xlink:href="#m7bb8df7f93" x="287.866676" y="242.16" style="fill-opacity: 0; stroke: #000000"/>
      </g>
     </g>
     <g id="line2d_22">
      <g>
       <use xlink:href="#mf7a018db86" x="287.866676" y="20.4" style="fill-opacity: 0; stroke: #000000"/>
      </g>
     </g>
    </g>
   </g>
   <g id="matplotlib.axis_2">
    <g id="ytick_1">
     <g id="line2d_23">
      <defs>
       <path id="m0bc462748a" d="M 0 0 
L -6 0 
" style="stroke: #000000"/>
      </defs>
      <g>
       <use xlink:href="#m0bc462748a" x="56.550312" y="232.080445" style="fill-opacity: 0; stroke: #000000"/>
      </g>
     </g>
     <g id="line2d_24">
      <defs>
       <path id="md9e50e937a" d="M 0 0 
L 6 0 
" style="stroke: #000000"/>
      </defs>
      <g>
       <use xlink:href="#md9e50e937a" x="324.390312" y="232.080445" style="fill-opacity: 0; stroke: #000000"/>
      </g>
     </g>
     <g id="text_4">
      <!-- −1.0 -->
      <g transform="translate(14.4 238.32982) scale(0.18 -0.18)">
       <defs>
        <path id="TimesNewRomanPSMT-2212" d="M 3484 2000 
L 116 2000 
L 116 2256 
L 3484 2256 
L 3484 2000 
z
" transform="scale(0.015625)"/>
        <path id="TimesNewRomanPSMT-2e" d="M 800 606 
Q 947 606 1047 504 
Q 1147 403 1147 259 
Q 1147 116 1045 14 
Q 944 -88 800 -88 
Q 656 -88 554 14 
Q 453 116 453 259 
Q 453 406 554 506 
Q 656 606 800 606 
z
" transform="scale(0.015625)"/>
       </defs>
       <use xlink:href="#TimesNewRomanPSMT-2212"/>
       <use xlink:href="#TimesNewRomanPSMT-31" x="56.396484"/>
       <use xlink:href="#TimesNewRomanPSMT-2e" x="106.396484"/>
       <use xlink:href="#TimesNewRomanPSMT-30" x="131.396484"/>
      </g>
     </g>
    </g>
    <g id="ytick_2">
     <g id="line2d_25">
      <g>
       <use xlink:href="#m0bc462748a" x="56.550312" y="181.680296" style="fill-opacity: 0; stroke: #000000"/>
      </g>
     </g>
     <g id="line2d_26">
      <g>
       <use xlink:href="#md9e50e937a" x="324.390312" y="181.680296" style="fill-opacity: 0; stroke: #000000"/>
      </g>
     </g>
     <g id="text_5">
      <!-- −0.5 -->
      <g transform="translate(14.4 187.929671) scale(0.18 -0.18)">
       <use xlink:href="#TimesNewRomanPSMT-2212"/>
       <use xlink:href="#TimesNewRomanPSMT-30" x="56.396484"/>
       <use xlink:href="#TimesNewRomanPSMT-2e" x="106.396484"/>
       <use xlink:href="#TimesNewRomanPSMT-35" x="131.396484"/>
      </g>
     </g>
    </g>
    <g id="ytick_3">
     <g id="line2d_27">
      <g>
       <use xlink:href="#m0bc462748a" x="56.550312" y="131.280147" style="fill-opacity: 0; stroke: #000000"/>
      </g>
     </g>
     <g id="line2d_28">
      <g>
       <use xlink:href="#md9e50e937a" x="324.390312" y="131.280147" style="fill-opacity: 0; stroke: #000000"/>
      </g>
     </g>
     <g id="text_6">
      <!-- 0.0 -->
      <g transform="translate(24.550312 137.529522) scale(0.18 -0.18)">
       <use xlink:href="#TimesNewRomanPSMT-30"/>
       <use xlink:href="#TimesNewRomanPSMT-2e" x="50"/>
       <use xlink:href="#TimesNewRomanPSMT-30" x="75"/>
      </g>
     </g>
    </g>
    <g id="ytick_4">
     <g id="line2d_29">
      <g>
       <use xlink:href="#m0bc462748a" x="56.550312" y="80.879998" style="fill-opacity: 0; stroke: #000000"/>
      </g>
     </g>
     <g id="line2d_30">
      <g>
       <use xlink:href="#md9e50e937a" x="324.390312" y="80.879998" style="fill-opacity: 0; stroke: #000000"/>
      </g>
     </g>
     <g id="text_7">
      <!-- 0.5 -->
      <g transform="translate(24.550312 87.129373) scale(0.18 -0.18)">
       <use xlink:href="#TimesNewRomanPSMT-30"/>
       <use xlink:href="#TimesNewRomanPSMT-2e" x="50"/>
       <use xlink:href="#TimesNewRomanPSMT-35" x="75"/>
      </g>
     </g>
    </g>
    <g id="ytick_5">
     <g id="line2d_31">
      <g>
       <use xlink:href="#m0bc462748a" x="56.550312" y="30.479849" style="fill-opacity: 0; stroke: #000000"/>
      </g>
     </g>
     <g id="line2d_32">
      <g>
       <use xlink:href="#md9e50e937a" x="324.390312" y="30.479849" style="fill-opacity: 0; stroke: #000000"/>
      </g>
     </g>
     <g id="text_8">
      <!-- 1.0 -->
      <g transform="translate(24.550312 36.729224) scale(0.18 -0.18)">
       <use xlink:href="#TimesNewRomanPSMT-31"/>
       <use xlink:href="#TimesNewRomanPSMT-2e" x="50"/>
       <use xlink:href="#TimesNewRomanPSMT-30" x="75"/>
      </g>
     </g>
    </g>
    <g id="ytick_6">
     <g id="line2d_33">
      <defs>
       <path id="m4130cd0d56" d="M 0 0 
L -3 0 
" style="stroke: #000000"/>
      </defs>
      <g>
       <use xlink:href="#m4130cd0d56" x="56.550312" y="222.000415" style="fill-opacity: 0; stroke: #000000"/>
      </g>
     </g>
     <g id="line2d_34">
      <defs>
       <path id="m1cf37c17aa" d="M 0 0 
L 3 0 
" style="stroke: #000000"/>
      </defs>
      <g>
       <use xlink:href="#m1cf37c17aa" x="324.390312" y="222.000415" style="fill-opacity: 0; stroke: #000000"/>
      </g>
     </g>
    </g>
    <g id="ytick_7">
     <g id="line2d_35">
      <g>
       <use xlink:href="#m4130cd0d56" x="56.550312" y="211.920385" style="fill-opacity: 0; stroke: #000000"/>
      </g>
     </g>
     <g id="line2d_36">
      <g>
       <use xlink:href="#m1cf37c17aa" x="324.390312" y="211.920385" style="fill-opacity: 0; stroke: #000000"/>
      </g>
     </g>
    </g>
    <g id="ytick_8">
     <g id="line2d_37">
      <g>
       <use xlink:href="#m4130cd0d56" x="56.550312" y="201.840355" style="fill-opacity: 0; stroke: #000000"/>
      </g>
     </g>
     <g id="line2d_38">
      <g>
       <use xlink:href="#m1cf37c17aa" x="324.390312" y="201.840355" style="fill-opacity: 0; stroke: #000000"/>
      </g>
     </g>
    </g>
    <g id="ytick_9">
     <g id="line2d_39">
      <g>
       <use xlink:href="#m4130cd0d56" x="56.550312" y="191.760326" style="fill-opacity: 0; stroke: #000000"/>
      </g>
     </g>
     <g id="line2d_40">
      <g>
       <use xlink:href="#m1cf37c17aa" x="324.390312" y="191.760326" style="fill-opacity: 0; stroke: #000000"/>
      </g>
     </g>
    </g>
    <g id="ytick_10">
     <g id="line2d_41">
      <g>
       <use xlink:href="#m4130cd0d56" x="56.550312" y="171.600266" style="fill-opacity: 0; stroke: #000000"/>
      </g>
     </g>
     <g id="line2d_42">
      <g>
       <use xlink:href="#m1cf37c17aa" x="324.390312" y="171.600266" style="fill-opacity: 0; stroke: #000000"/>
      </g>
     </g>
    </g>
    <g id="ytick_11">
     <g id="line2d_43">
      <g>
       <use xlink:href="#m4130cd0d56" x="56.550312" y="161.520236" style="fill-opacity: 0; stroke: #000000"/>
      </g>
     </g>
     <g id="line2d_44">
      <g>
       <use xlink:href="#m1cf37c17aa" x="324.390312" y="161.520236" style="fill-opacity: 0; stroke: #000000"/>
      </g>
     </g>
    </g>
    <g id="ytick_12">
     <g id="line2d_45">
      <g>
       <use xlink:href="#m4130cd0d56" x="56.550312" y="151.440206" style="fill-opacity: 0; stroke: #000000"/>
      </g>
     </g>
     <g id="line2d_46">
      <g>
       <use xlink:href="#m1cf37c17aa" x="324.390312" y="151.440206" style="fill-opacity: 0; stroke: #000000"/>
      </g>
     </g>
    </g>
    <g id="ytick_13">
     <g id="line2d_47">
      <g>
       <use xlink:href="#m4130cd0d56" x="56.550312" y="141.360177" style="fill-opacity: 0; stroke: #000000"/>
      </g>
     </g>
     <g id="line2d_48">
      <g>
       <use xlink:href="#m1cf37c17aa" x="324.390312" y="141.360177" style="fill-opacity: 0; stroke: #000000"/>
      </g>
     </g>
    </g>
    <g id="ytick_14">
     <g id="line2d_49">
      <g>
       <use xlink:href="#m4130cd0d56" x="56.550312" y="121.200117" style="fill-opacity: 0; stroke: #000000"/>
      </g>
     </g>
     <g id="line2d_50">
      <g>
       <use xlink:href="#m1cf37c17aa" x="324.390312" y="121.200117" style="fill-opacity: 0; stroke: #000000"/>
      </g>
     </g>
    </g>
    <g id="ytick_15">
     <g id="line2d_51">
      <g>
       <use xlink:href="#m4130cd0d56" x="56.550312" y="111.120087" style="fill-opacity: 0; stroke: #000000"/>
      </g>
     </g>
     <g id="line2d_52">
      <g>
       <use xlink:href="#m1cf37c17aa" x="324.390312" y="111.120087" style="fill-opacity: 0; stroke: #000000"/>
      </g>
     </g>
    </g>
    <g id="ytick_16">
     <g id="line2d_53">
      <g>
       <use xlink:href="#m4130cd0d56" x="56.550312" y="101.040058" style="fill-opacity: 0; stroke: #000000"/>
      </g>
     </g>
     <g id="line2d_54">
      <g>
       <use xlink:href="#m1cf37c17aa" x="324.390312" y="101.040058" style="fill-opacity: 0; stroke: #000000"/>
      </g>
     </g>
    </g>
    <g id="ytick_17">
     <g id="line2d_55">
      <g>
       <use xlink:href="#m4130cd0d56" x="56.550312" y="90.960028" style="fill-opacity: 0; stroke: #000000"/>
      </g>
     </g>
     <g id="line2d_56">
      <g>
       <use xlink:href="#m1cf37c17aa" x="324.390312" y="90.960028" style="fill-opacity: 0; stroke: #000000"/>
      </g>
     </g>
    </g>
    <g id="ytick_18">
     <g id="line2d_57">
      <g>
       <use xlink:href="#m4130cd0d56" x="56.550312" y="70.799968" style="fill-opacity: 0; stroke: #000000"/>
      </g>
     </g>
     <g id="line2d_58">
      <g>
       <use xlink:href="#m1cf37c17aa" x="324.390312" y="70.799968" style="fill-opacity: 0; stroke: #000000"/>
      </g>
     </g>
    </g>
    <g id="ytick_19">
     <g id="line2d_59">
      <g>
       <use xlink:href="#m4130cd0d56" x="56.550312" y="60.719939" style="fill-opacity: 0; stroke: #000000"/>
      </g>
     </g>
     <g id="line2d_60">
      <g>
       <use xlink:href="#m1cf37c17aa" x="324.390312" y="60.719939" style="fill-opacity: 0; stroke: #000000"/>
      </g>
     </g>
    </g>
    <g id="ytick_20">
     <g id="line2d_61">
      <g>
       <use xlink:href="#m4130cd0d56" x="56.550312" y="50.639909" style="fill-opacity: 0; stroke: #000000"/>
      </g>
     </g>
     <g id="line2d_62">
      <g>
       <use xlink:href="#m1cf37c17aa" x="324.390312" y="50.639909" style="fill-opacity: 0; stroke: #000000"/>
      </g>
     </g>
    </g>
    <g id="ytick_21">
     <g id="line2d_63">
      <g>
       <use xlink:href="#m4130cd0d56" x="56.550312" y="40.559879" style="fill-opacity: 0; stroke: #000000"/>
      </g>
     </g>
     <g id="line2d_64">
      <g>
       <use xlink:href="#m1cf37c17aa" x="324.390312" y="40.559879" style="fill-opacity: 0; stroke: #000000"/>
      </g>
     </g>
    </g>
   </g>
   <g id="line2d_65">
    <path d="M 68.724858 131.280147 
L 76.044224 101.433733 
L 79.947886 86.446801 
L 83.36359 74.264026 
L 86.291336 64.7047 
L 88.731125 57.467523 
L 91.170914 50.970815 
L 93.122745 46.350648 
L 95.074576 42.275918 
L 97.026407 38.772795 
L 98.49028 36.534245 
L 99.954153 34.638046 
L 101.418026 33.091049 
L 102.881899 31.898844 
L 104.345773 31.065739 
L 105.321688 30.711376 
L 106.297603 30.518547 
L 107.273519 30.487561 
L 108.249434 30.618469 
L 109.22535 30.91106 
L 110.689223 31.652005 
L 112.153096 32.75294 
L 113.616969 34.20989 
L 115.080843 36.017589 
L 116.544716 38.169505 
L 118.008589 40.657863 
L 119.96042 44.483316 
L 121.912251 48.866199 
L 123.864082 53.778364 
L 126.303871 60.614505 
L 128.743659 68.159544 
L 131.671406 78.042309 
L 134.599152 88.693848 
L 138.502814 103.824599 
L 143.870349 125.696623 
L 152.653588 161.57874 
L 156.55725 176.53731 
L 159.972954 188.686321 
L 162.900701 198.210578 
L 165.340489 205.41459 
L 167.780278 211.874905 
L 169.732109 216.463878 
L 171.68394 220.505781 
L 173.635771 223.974655 
L 175.099644 226.186717 
L 176.563517 228.055848 
L 178.02739 229.575294 
L 179.491263 230.739564 
L 180.955137 231.544453 
L 181.931052 231.879899 
L 182.906968 232.05376 
L 183.882883 232.065759 
L 184.858799 231.915876 
L 185.834714 231.604351 
L 187.298587 230.835151 
L 188.76246 229.706223 
L 190.226334 228.221647 
L 191.690207 226.386788 
L 193.15408 224.208274 
L 194.617953 221.693977 
L 196.569784 217.835128 
L 198.521615 213.420402 
L 200.473446 208.478151 
L 202.913235 201.607168 
L 205.353023 194.030683 
L 208.28077 184.115109 
L 211.696474 171.593335 
L 215.600136 156.328026 
L 221.455629 132.352664 
L 228.774995 102.459846 
L 232.678656 87.409931 
L 236.094361 75.151711 
L 239.022107 65.513771 
L 241.461896 58.202106 
L 243.901684 51.623539 
L 245.853515 46.933129 
L 247.805346 42.784416 
L 249.757177 39.204043 
L 251.22105 36.905711 
L 252.684924 34.948387 
L 254.148797 33.339144 
L 255.61267 32.083796 
L 257.076543 31.18688 
L 258.540416 30.651637 
L 259.516332 30.496746 
L 260.492247 30.503734 
L 261.468163 30.67259 
L 262.444078 31.003042 
L 263.907951 31.800481 
L 265.371825 32.957375 
L 266.835698 34.469544 
L 268.299571 36.331524 
L 269.763444 38.536588 
L 271.227317 41.076767 
L 273.179148 44.968928 
L 275.130979 49.4154 
L 277.08281 54.387627 
L 279.522599 61.293301 
L 281.962388 68.901063 
L 284.890134 78.849227 
L 288.305838 91.40162 
L 292.2095 106.691438 
L 298.064993 130.681368 
L 305.384359 160.554105 
L 309.288021 175.576409 
L 312.215767 186.117637 
L 312.215767 186.117637 
" clip-path="url(#pa0e3b1b6af)" style="fill: none; stroke: #000000; stroke-width: 2"/>
   </g>
   <g id="patch_3">
    <path d="M 56.550312 242.16 
L 56.550312 20.4 
" style="fill: none; stroke: #000000; stroke-linejoin: miter; stroke-linecap: square"/>
   </g>
   <g id="patch_4">
    <path d="M 324.390312 242.16 
L 324.390312 20.4 
" style="fill: none; stroke: #000000; stroke-linejoin: miter; stroke-linecap: square"/>
   </g>
   <g id="patch_5">
    <path d="M 56.550313 242.16 
L 324.390312 242.16 
" style="fill: none; stroke: #000000; stroke-linejoin: miter; stroke-linecap: square"/>
   </g>
   <g id="patch_6">
    <path d="M 56.550313 20.4 
L 324.390312 20.4 
" style="fill: none; stroke: #000000; stroke-linejoin: miter; stroke-linecap: square"/>
   </g>
  </g>
 </g>
 <defs>
  <clipPath id="pa0e3b1b6af">
   <rect x="56.550312" y="20.4" width="267.84" height="221.76"/>
  </clipPath>
 </defs>
</svg>
