<?xml version="1.0" encoding="utf-8" standalone="no"?>
<!DOCTYPE svg PUBLIC "-//W3C//DTD SVG 1.1//EN"
  "http://www.w3.org/Graphics/SVG/1.1/DTD/svg11.dtd">
<svg xmlns:xlink="http://www.w3.org/1999/xlink" width="351.92pt" height="282.409063pt" viewBox="0 0 351.92 282.409063" xmlns="http://www.w3.org/2000/svg" version="1.1">
 <metadata>
  <rdf:RDF xmlns:dc="http://purl.org/dc/elements/1.1/" xmlns:cc="http://creativecommons.org/ns#" xmlns:rdf="http://www.w3.org/1999/02/22-rdf-syntax-ns#">
   <cc:Work>
    <dc:type rdf:resource="http://purl.org/dc/dcmitype/StillImage"/>
    <dc:date>2024-12-03T19:39:30.415948</dc:date>
    <dc:format>image/svg+xml</dc:format>
    <dc:creator>
     <cc:Agent>
      <dc:title>Matplotlib v3.9.2, https://matplotlib.org/</dc:title>
     </cc:Agent>
    </dc:creator>
   </cc:Work>
  </rdf:RDF>
 </metadata>
 <defs>
  <style type="text/css">*{stroke-linejoin: round; stroke-linecap: butt}</style>
 </defs>
 <g id="figure_1">
  <g id="patch_1">
   <path d="M 0 282.409063 
L 351.92 282.409063 
L 351.92 0 
L 0 0 
z
" style="fill: #ffffff"/>
  </g>
  <g id="axes_1">
   <g id="patch_2">
    <path d="M 63.68 242.16 
L 331.52 242.16 
L 331.52 20.4 
L 63.68 20.4 
z
" style="fill: #ffffff"/>
   </g>
   <g id="matplotlib.axis_1">
    <g id="xtick_1">
     <g id="line2d_1">
      <defs>
       <path id="me5c724bb03" d="M 0 0 
L 0 6 
" style="stroke: #000000"/>
      </defs>
      <g>
       <use xlink:href="#me5c724bb03" x="75.854545" y="242.16" style="fill-opacity: 0; stroke: #000000"/>
      </g>
     </g>
     <g id="line2d_2">
      <defs>
       <path id="m08c241d693" d="M 0 0 
L 0 -6 
" style="stroke: #000000"/>
      </defs>
      <g>
       <use xlink:href="#m08c241d693" x="75.854545" y="20.4" style="fill-opacity: 0; stroke: #000000"/>
      </g>
     </g>
     <g id="text_1">
      <!-- 0 -->
      <g transform="translate(71.354545 264.15875) scale(0.18 -0.18)">
       <defs>
        <path id="TimesNewRomanPSMT-30" d="M 231 2094 
Q 231 2819 450 3342 
Q 669 3866 1031 4122 
Q 1313 4325 1613 4325 
Q 2100 4325 2488 3828 
Q 2972 3213 2972 2159 
Q 2972 1422 2759 906 
Q 2547 391 2217 158 
Q 1888 -75 1581 -75 
Q 975 -75 572 641 
Q 231 1244 231 2094 
z
M 844 2016 
Q 844 1141 1059 588 
Q 1238 122 1591 122 
Q 1759 122 1940 273 
Q 2122 425 2216 781 
Q 2359 1319 2359 2297 
Q 2359 3022 2209 3506 
Q 2097 3866 1919 4016 
Q 1791 4119 1609 4119 
Q 1397 4119 1231 3928 
Q 1006 3669 925 3112 
Q 844 2556 844 2016 
z
" transform="scale(0.015625)"/>
       </defs>
       <use xlink:href="#TimesNewRomanPSMT-30"/>
      </g>
     </g>
    </g>
    <g id="xtick_2">
     <g id="line2d_3">
      <g>
       <use xlink:href="#me5c724bb03" x="197.6" y="242.16" style="fill-opacity: 0; stroke: #000000"/>
      </g>
     </g>
     <g id="line2d_4">
      <g>
       <use xlink:href="#m08c241d693" x="197.6" y="20.4" style="fill-opacity: 0; stroke: #000000"/>
      </g>
     </g>
     <g id="text_2">
      <!-- 50 -->
      <g transform="translate(188.6 264.15875) scale(0.18 -0.18)">
       <defs>
        <path id="TimesNewRomanPSMT-35" d="M 2778 4238 
L 2534 3706 
L 1259 3706 
L 981 3138 
Q 1809 3016 2294 2522 
Q 2709 2097 2709 1522 
Q 2709 1188 2573 903 
Q 2438 619 2231 419 
Q 2025 219 1772 97 
Q 1413 -75 1034 -75 
Q 653 -75 479 54 
Q 306 184 306 341 
Q 306 428 378 495 
Q 450 563 559 563 
Q 641 563 702 538 
Q 763 513 909 409 
Q 1144 247 1384 247 
Q 1750 247 2026 523 
Q 2303 800 2303 1197 
Q 2303 1581 2056 1914 
Q 1809 2247 1375 2428 
Q 1034 2569 447 2591 
L 1259 4238 
L 2778 4238 
z
" transform="scale(0.015625)"/>
       </defs>
       <use xlink:href="#TimesNewRomanPSMT-35"/>
       <use xlink:href="#TimesNewRomanPSMT-30" x="50"/>
      </g>
     </g>
    </g>
    <g id="xtick_3">
     <g id="line2d_5">
      <g>
       <use xlink:href="#me5c724bb03" x="319.345455" y="242.16" style="fill-opacity: 0; stroke: #000000"/>
      </g>
     </g>
     <g id="line2d_6">
      <g>
       <use xlink:href="#m08c241d693" x="319.345455" y="20.4" style="fill-opacity: 0; stroke: #000000"/>
      </g>
     </g>
     <g id="text_3">
      <!-- 100 -->
      <g transform="translate(305.845455 264.15875) scale(0.18 -0.18)">
       <defs>
        <path id="TimesNewRomanPSMT-31" d="M 750 3822 
L 1781 4325 
L 1884 4325 
L 1884 747 
Q 1884 391 1914 303 
Q 1944 216 2037 169 
Q 2131 122 2419 116 
L 2419 0 
L 825 0 
L 825 116 
Q 1125 122 1212 167 
Q 1300 213 1334 289 
Q 1369 366 1369 747 
L 1369 3034 
Q 1369 3497 1338 3628 
Q 1316 3728 1258 3775 
Q 1200 3822 1119 3822 
Q 1003 3822 797 3725 
L 750 3822 
z
" transform="scale(0.015625)"/>
       </defs>
       <use xlink:href="#TimesNewRomanPSMT-31"/>
       <use xlink:href="#TimesNewRomanPSMT-30" x="50"/>
       <use xlink:href="#TimesNewRomanPSMT-30" x="100"/>
      </g>
     </g>
    </g>
    <g id="xtick_4">
     <g id="line2d_7">
      <defs>
       <path id="m6da4730069" d="M 0 0 
L 0 3 
" style="stroke: #000000"/>
      </defs>
      <g>
       <use xlink:href="#m6da4730069" x="100.203636" y="242.16" style="fill-opacity: 0; stroke: #000000"/>
      </g>
     </g>
     <g id="line2d_8">
      <defs>
       <path id="m68d453f6b1" d="M 0 0 
L 0 -3 
" style="stroke: #000000"/>
      </defs>
      <g>
       <use xlink:href="#m68d453f6b1" x="100.203636" y="20.4" style="fill-opacity: 0; stroke: #000000"/>
      </g>
     </g>
    </g>
    <g id="xtick_5">
     <g id="line2d_9">
      <g>
       <use xlink:href="#m6da4730069" x="124.552727" y="242.16" style="fill-opacity: 0; stroke: #000000"/>
      </g>
     </g>
     <g id="line2d_10">
      <g>
       <use xlink:href="#m68d453f6b1" x="124.552727" y="20.4" style="fill-opacity: 0; stroke: #000000"/>
      </g>
     </g>
    </g>
    <g id="xtick_6">
     <g id="line2d_11">
      <g>
       <use xlink:href="#m6da4730069" x="148.901818" y="242.16" style="fill-opacity: 0; stroke: #000000"/>
      </g>
     </g>
     <g id="line2d_12">
      <g>
       <use xlink:href="#m68d453f6b1" x="148.901818" y="20.4" style="fill-opacity: 0; stroke: #000000"/>
      </g>
     </g>
    </g>
    <g id="xtick_7">
     <g id="line2d_13">
      <g>
       <use xlink:href="#m6da4730069" x="173.250909" y="242.16" style="fill-opacity: 0; stroke: #000000"/>
      </g>
     </g>
     <g id="line2d_14">
      <g>
       <use xlink:href="#m68d453f6b1" x="173.250909" y="20.4" style="fill-opacity: 0; stroke: #000000"/>
      </g>
     </g>
    </g>
    <g id="xtick_8">
     <g id="line2d_15">
      <g>
       <use xlink:href="#m6da4730069" x="221.949091" y="242.16" style="fill-opacity: 0; stroke: #000000"/>
      </g>
     </g>
     <g id="line2d_16">
      <g>
       <use xlink:href="#m68d453f6b1" x="221.949091" y="20.4" style="fill-opacity: 0; stroke: #000000"/>
      </g>
     </g>
    </g>
    <g id="xtick_9">
     <g id="line2d_17">
      <g>
       <use xlink:href="#m6da4730069" x="246.298182" y="242.16" style="fill-opacity: 0; stroke: #000000"/>
      </g>
     </g>
     <g id="line2d_18">
      <g>
       <use xlink:href="#m68d453f6b1" x="246.298182" y="20.4" style="fill-opacity: 0; stroke: #000000"/>
      </g>
     </g>
    </g>
    <g id="xtick_10">
     <g id="line2d_19">
      <g>
       <use xlink:href="#m6da4730069" x="270.647273" y="242.16" style="fill-opacity: 0; stroke: #000000"/>
      </g>
     </g>
     <g id="line2d_20">
      <g>
       <use xlink:href="#m68d453f6b1" x="270.647273" y="20.4" style="fill-opacity: 0; stroke: #000000"/>
      </g>
     </g>
    </g>
    <g id="xtick_11">
     <g id="line2d_21">
      <g>
       <use xlink:href="#m6da4730069" x="294.996364" y="242.16" style="fill-opacity: 0; stroke: #000000"/>
      </g>
     </g>
     <g id="line2d_22">
      <g>
       <use xlink:href="#m68d453f6b1" x="294.996364" y="20.4" style="fill-opacity: 0; stroke: #000000"/>
      </g>
     </g>
    </g>
   </g>
   <g id="matplotlib.axis_2">
    <g id="ytick_1">
     <g id="line2d_23">
      <defs>
       <path id="m5968f11971" d="M 0 0 
L -6 0 
" style="stroke: #000000"/>
      </defs>
      <g>
       <use xlink:href="#m5968f11971" x="63.68" y="232.08" style="fill-opacity: 0; stroke: #000000"/>
      </g>
     </g>
     <g id="line2d_24">
      <defs>
       <path id="mb6e7b3b1b7" d="M 0 0 
L 6 0 
" style="stroke: #000000"/>
      </defs>
      <g>
       <use xlink:href="#mb6e7b3b1b7" x="331.52" y="232.08" style="fill-opacity: 0; stroke: #000000"/>
      </g>
     </g>
     <g id="text_4">
      <!-- $\mathdefault{10^{-30}}$ -->
      <g transform="translate(14.4 238.329375) scale(0.18 -0.18)">
       <defs>
        <path id="TimesNewRomanPSMT-2212" d="M 3484 2000 
L 116 2000 
L 116 2256 
L 3484 2256 
L 3484 2000 
z
" transform="scale(0.015625)"/>
        <path id="TimesNewRomanPSMT-33" d="M 325 3431 
Q 506 3859 782 4092 
Q 1059 4325 1472 4325 
Q 1981 4325 2253 3994 
Q 2459 3747 2459 3466 
Q 2459 3003 1878 2509 
Q 2269 2356 2469 2072 
Q 2669 1788 2669 1403 
Q 2669 853 2319 450 
Q 1863 -75 997 -75 
Q 569 -75 414 31 
Q 259 138 259 259 
Q 259 350 332 419 
Q 406 488 509 488 
Q 588 488 669 463 
Q 722 447 909 348 
Q 1097 250 1169 231 
Q 1284 197 1416 197 
Q 1734 197 1970 444 
Q 2206 691 2206 1028 
Q 2206 1275 2097 1509 
Q 2016 1684 1919 1775 
Q 1784 1900 1550 2001 
Q 1316 2103 1072 2103 
L 972 2103 
L 972 2197 
Q 1219 2228 1467 2375 
Q 1716 2522 1828 2728 
Q 1941 2934 1941 3181 
Q 1941 3503 1739 3701 
Q 1538 3900 1238 3900 
Q 753 3900 428 3381 
L 325 3431 
z
" transform="scale(0.015625)"/>
       </defs>
       <use xlink:href="#TimesNewRomanPSMT-31" transform="translate(0 0.051562)"/>
       <use xlink:href="#TimesNewRomanPSMT-30" transform="translate(50 0.051562)"/>
       <use xlink:href="#TimesNewRomanPSMT-2212" transform="translate(104.508437 38.695312) scale(0.7)"/>
       <use xlink:href="#TimesNewRomanPSMT-33" transform="translate(143.985977 38.695312) scale(0.7)"/>
       <use xlink:href="#TimesNewRomanPSMT-30" transform="translate(178.985977 38.695312) scale(0.7)"/>
      </g>
     </g>
    </g>
    <g id="ytick_2">
     <g id="line2d_25">
      <g>
       <use xlink:href="#m5968f11971" x="63.68" y="200.58" style="fill-opacity: 0; stroke: #000000"/>
      </g>
     </g>
     <g id="line2d_26">
      <g>
       <use xlink:href="#mb6e7b3b1b7" x="331.52" y="200.58" style="fill-opacity: 0; stroke: #000000"/>
      </g>
     </g>
     <g id="text_5">
      <!-- $\mathdefault{10^{-25}}$ -->
      <g transform="translate(14.4 206.829375) scale(0.18 -0.18)">
       <defs>
        <path id="TimesNewRomanPSMT-32" d="M 2934 816 
L 2638 0 
L 138 0 
L 138 116 
Q 1241 1122 1691 1759 
Q 2141 2397 2141 2925 
Q 2141 3328 1894 3587 
Q 1647 3847 1303 3847 
Q 991 3847 742 3664 
Q 494 3481 375 3128 
L 259 3128 
Q 338 3706 661 4015 
Q 984 4325 1469 4325 
Q 1984 4325 2329 3994 
Q 2675 3663 2675 3213 
Q 2675 2891 2525 2569 
Q 2294 2063 1775 1497 
Q 997 647 803 472 
L 1909 472 
Q 2247 472 2383 497 
Q 2519 522 2628 598 
Q 2738 675 2819 816 
L 2934 816 
z
" transform="scale(0.015625)"/>
       </defs>
       <use xlink:href="#TimesNewRomanPSMT-31" transform="translate(0 0.051562)"/>
       <use xlink:href="#TimesNewRomanPSMT-30" transform="translate(50 0.051562)"/>
       <use xlink:href="#TimesNewRomanPSMT-2212" transform="translate(104.508437 38.695312) scale(0.7)"/>
       <use xlink:href="#TimesNewRomanPSMT-32" transform="translate(143.985977 38.695312) scale(0.7)"/>
       <use xlink:href="#TimesNewRomanPSMT-35" transform="translate(178.985977 38.695312) scale(0.7)"/>
      </g>
     </g>
    </g>
    <g id="ytick_3">
     <g id="line2d_27">
      <g>
       <use xlink:href="#m5968f11971" x="63.68" y="169.08" style="fill-opacity: 0; stroke: #000000"/>
      </g>
     </g>
     <g id="line2d_28">
      <g>
       <use xlink:href="#mb6e7b3b1b7" x="331.52" y="169.08" style="fill-opacity: 0; stroke: #000000"/>
      </g>
     </g>
     <g id="text_6">
      <!-- $\mathdefault{10^{-20}}$ -->
      <g transform="translate(14.4 175.329375) scale(0.18 -0.18)">
       <use xlink:href="#TimesNewRomanPSMT-31" transform="translate(0 0.051562)"/>
       <use xlink:href="#TimesNewRomanPSMT-30" transform="translate(50 0.051562)"/>
       <use xlink:href="#TimesNewRomanPSMT-2212" transform="translate(104.508437 38.695312) scale(0.7)"/>
       <use xlink:href="#TimesNewRomanPSMT-32" transform="translate(143.985977 38.695312) scale(0.7)"/>
       <use xlink:href="#TimesNewRomanPSMT-30" transform="translate(178.985977 38.695312) scale(0.7)"/>
      </g>
     </g>
    </g>
    <g id="ytick_4">
     <g id="line2d_29">
      <g>
       <use xlink:href="#m5968f11971" x="63.68" y="137.58" style="fill-opacity: 0; stroke: #000000"/>
      </g>
     </g>
     <g id="line2d_30">
      <g>
       <use xlink:href="#mb6e7b3b1b7" x="331.52" y="137.58" style="fill-opacity: 0; stroke: #000000"/>
      </g>
     </g>
     <g id="text_7">
      <!-- $\mathdefault{10^{-15}}$ -->
      <g transform="translate(14.4 143.829375) scale(0.18 -0.18)">
       <use xlink:href="#TimesNewRomanPSMT-31" transform="translate(0 0.051562)"/>
       <use xlink:href="#TimesNewRomanPSMT-30" transform="translate(50 0.051562)"/>
       <use xlink:href="#TimesNewRomanPSMT-2212" transform="translate(104.508437 38.695312) scale(0.7)"/>
       <use xlink:href="#TimesNewRomanPSMT-31" transform="translate(143.985977 38.695312) scale(0.7)"/>
       <use xlink:href="#TimesNewRomanPSMT-35" transform="translate(178.985977 38.695312) scale(0.7)"/>
      </g>
     </g>
    </g>
    <g id="ytick_5">
     <g id="line2d_31">
      <g>
       <use xlink:href="#m5968f11971" x="63.68" y="106.08" style="fill-opacity: 0; stroke: #000000"/>
      </g>
     </g>
     <g id="line2d_32">
      <g>
       <use xlink:href="#mb6e7b3b1b7" x="331.52" y="106.08" style="fill-opacity: 0; stroke: #000000"/>
      </g>
     </g>
     <g id="text_8">
      <!-- $\mathdefault{10^{-10}}$ -->
      <g transform="translate(14.4 112.329375) scale(0.18 -0.18)">
       <use xlink:href="#TimesNewRomanPSMT-31" transform="translate(0 0.051562)"/>
       <use xlink:href="#TimesNewRomanPSMT-30" transform="translate(50 0.051562)"/>
       <use xlink:href="#TimesNewRomanPSMT-2212" transform="translate(104.508437 38.695312) scale(0.7)"/>
       <use xlink:href="#TimesNewRomanPSMT-31" transform="translate(143.985977 38.695312) scale(0.7)"/>
       <use xlink:href="#TimesNewRomanPSMT-30" transform="translate(178.985977 38.695312) scale(0.7)"/>
      </g>
     </g>
    </g>
    <g id="ytick_6">
     <g id="line2d_33">
      <g>
       <use xlink:href="#m5968f11971" x="63.68" y="74.58" style="fill-opacity: 0; stroke: #000000"/>
      </g>
     </g>
     <g id="line2d_34">
      <g>
       <use xlink:href="#mb6e7b3b1b7" x="331.52" y="74.58" style="fill-opacity: 0; stroke: #000000"/>
      </g>
     </g>
     <g id="text_9">
      <!-- $\mathdefault{10^{-5}}$ -->
      <g transform="translate(20.7 80.829375) scale(0.18 -0.18)">
       <use xlink:href="#TimesNewRomanPSMT-31" transform="translate(0 0.003125)"/>
       <use xlink:href="#TimesNewRomanPSMT-30" transform="translate(50 0.003125)"/>
       <use xlink:href="#TimesNewRomanPSMT-2212" transform="translate(104.508437 38.646875) scale(0.7)"/>
       <use xlink:href="#TimesNewRomanPSMT-35" transform="translate(143.985977 38.646875) scale(0.7)"/>
      </g>
     </g>
    </g>
    <g id="ytick_7">
     <g id="line2d_35">
      <g>
       <use xlink:href="#m5968f11971" x="63.68" y="43.08" style="fill-opacity: 0; stroke: #000000"/>
      </g>
     </g>
     <g id="line2d_36">
      <g>
       <use xlink:href="#mb6e7b3b1b7" x="331.52" y="43.08" style="fill-opacity: 0; stroke: #000000"/>
      </g>
     </g>
     <g id="text_10">
      <!-- $\mathdefault{10^{0}}$ -->
      <g transform="translate(27.9 49.329375) scale(0.18 -0.18)">
       <use xlink:href="#TimesNewRomanPSMT-31" transform="translate(0 0.051562)"/>
       <use xlink:href="#TimesNewRomanPSMT-30" transform="translate(50 0.051562)"/>
       <use xlink:href="#TimesNewRomanPSMT-30" transform="translate(104.508437 38.695312) scale(0.7)"/>
      </g>
     </g>
    </g>
    <g id="ytick_8">
     <g id="line2d_37">
      <defs>
       <path id="m429c24be08" d="M 0 0 
L -3 0 
" style="stroke: #000000"/>
      </defs>
      <g>
       <use xlink:href="#m429c24be08" x="63.68" y="216.33" style="fill-opacity: 0; stroke: #000000"/>
      </g>
     </g>
     <g id="line2d_38">
      <defs>
       <path id="m932bebfcd5" d="M 0 0 
L 3 0 
" style="stroke: #000000"/>
      </defs>
      <g>
       <use xlink:href="#m932bebfcd5" x="331.52" y="216.33" style="fill-opacity: 0; stroke: #000000"/>
      </g>
     </g>
    </g>
    <g id="ytick_9">
     <g id="line2d_39">
      <g>
       <use xlink:href="#m429c24be08" x="63.68" y="184.83" style="fill-opacity: 0; stroke: #000000"/>
      </g>
     </g>
     <g id="line2d_40">
      <g>
       <use xlink:href="#m932bebfcd5" x="331.52" y="184.83" style="fill-opacity: 0; stroke: #000000"/>
      </g>
     </g>
    </g>
    <g id="ytick_10">
     <g id="line2d_41">
      <g>
       <use xlink:href="#m429c24be08" x="63.68" y="153.33" style="fill-opacity: 0; stroke: #000000"/>
      </g>
     </g>
     <g id="line2d_42">
      <g>
       <use xlink:href="#m932bebfcd5" x="331.52" y="153.33" style="fill-opacity: 0; stroke: #000000"/>
      </g>
     </g>
    </g>
    <g id="ytick_11">
     <g id="line2d_43">
      <g>
       <use xlink:href="#m429c24be08" x="63.68" y="121.83" style="fill-opacity: 0; stroke: #000000"/>
      </g>
     </g>
     <g id="line2d_44">
      <g>
       <use xlink:href="#m932bebfcd5" x="331.52" y="121.83" style="fill-opacity: 0; stroke: #000000"/>
      </g>
     </g>
    </g>
    <g id="ytick_12">
     <g id="line2d_45">
      <g>
       <use xlink:href="#m429c24be08" x="63.68" y="90.33" style="fill-opacity: 0; stroke: #000000"/>
      </g>
     </g>
     <g id="line2d_46">
      <g>
       <use xlink:href="#m932bebfcd5" x="331.52" y="90.33" style="fill-opacity: 0; stroke: #000000"/>
      </g>
     </g>
    </g>
    <g id="ytick_13">
     <g id="line2d_47">
      <g>
       <use xlink:href="#m429c24be08" x="63.68" y="58.83" style="fill-opacity: 0; stroke: #000000"/>
      </g>
     </g>
     <g id="line2d_48">
      <g>
       <use xlink:href="#m932bebfcd5" x="331.52" y="58.83" style="fill-opacity: 0; stroke: #000000"/>
      </g>
     </g>
    </g>
    <g id="ytick_14">
     <g id="line2d_49">
      <g>
       <use xlink:href="#m429c24be08" x="63.68" y="27.33" style="fill-opacity: 0; stroke: #000000"/>
      </g>
     </g>
     <g id="line2d_50">
      <g>
       <use xlink:href="#m932bebfcd5" x="331.52" y="27.33" style="fill-opacity: 0; stroke: #000000"/>
      </g>
     </g>
    </g>
   </g>
   <g id="line2d_51">
    <path d="M 75.854545 232.08 
L 75.95175 51.892425 
L 76.171292 48.660361 
L 76.5173 46.640321 
L 77.050915 45.024289 
L 77.717706 43.812265 
L 78.35781 43.004248 
L 79.217828 42.196232 
L 80.373311 41.388216 
L 81.925771 40.5802 
L 84.01159 39.772184 
L 86.814011 38.964168 
L 90.579226 38.156152 
L 95.638012 37.348136 
L 102.434786 36.54012 
L 111.566648 35.732104 
L 123.835837 34.924088 
L 140.320207 34.116072 
L 162.467919 33.308056 
L 192.224662 32.50004 
L 232.20458 31.692024 
L 285.919931 30.884008 
L 319.345455 30.48 
L 319.345455 30.48 
" clip-path="url(#pd7138468e4)" style="fill: none; stroke: #000000; stroke-width: 2"/>
   </g>
   <g id="line2d_52">
    <path d="M 75.854545 30.48 
L 319.345455 57.840552 
L 319.345455 57.840552 
" clip-path="url(#pd7138468e4)" style="fill: none; stroke: #b5443c; stroke-width: 2"/>
   </g>
   <g id="patch_3">
    <path d="M 63.68 242.16 
L 63.68 20.4 
" style="fill: none; stroke: #000000; stroke-linejoin: miter; stroke-linecap: square"/>
   </g>
   <g id="patch_4">
    <path d="M 331.52 242.16 
L 331.52 20.4 
" style="fill: none; stroke: #000000; stroke-linejoin: miter; stroke-linecap: square"/>
   </g>
   <g id="patch_5">
    <path d="M 63.68 242.16 
L 331.52 242.16 
" style="fill: none; stroke: #000000; stroke-linejoin: miter; stroke-linecap: square"/>
   </g>
   <g id="patch_6">
    <path d="M 63.68 20.4 
L 331.52 20.4 
" style="fill: none; stroke: #000000; stroke-linejoin: miter; stroke-linecap: square"/>
   </g>
  </g>
 </g>
 <defs>
  <clipPath id="pd7138468e4">
   <rect x="63.68" y="20.4" width="267.84" height="221.76"/>
  </clipPath>
 </defs>
</svg>
