<?xml version="1.0" encoding="utf-8" standalone="no"?>
<!DOCTYPE svg PUBLIC "-//W3C//DTD SVG 1.1//EN"
  "http://www.w3.org/Graphics/SVG/1.1/DTD/svg11.dtd">
<svg xmlns:xlink="http://www.w3.org/1999/xlink" width="978.030312pt" height="327.756625pt" viewBox="0 0 978.030312 327.756625" xmlns="http://www.w3.org/2000/svg" version="1.1">
 <metadata>
  <rdf:RDF xmlns:dc="http://purl.org/dc/elements/1.1/" xmlns:cc="http://creativecommons.org/ns#" xmlns:rdf="http://www.w3.org/1999/02/22-rdf-syntax-ns#">
   <cc:Work>
    <dc:type rdf:resource="http://purl.org/dc/dcmitype/StillImage"/>
    <dc:date>2024-12-03T18:57:38.084032</dc:date>
    <dc:format>image/svg+xml</dc:format>
    <dc:creator>
     <cc:Agent>
      <dc:title>Matplotlib v3.9.2, https://matplotlib.org/</dc:title>
     </cc:Agent>
    </dc:creator>
   </cc:Work>
  </rdf:RDF>
 </metadata>
 <defs>
  <style type="text/css">*{stroke-linejoin: round; stroke-linecap: butt}</style>
 </defs>
 <g id="figure_1">
  <g id="patch_1">
   <path d="M 0 327.756625 
L 978.030312 327.756625 
L 978.030312 0 
L 0 0 
z
" style="fill: #ffffff"/>
  </g>
  <g id="axes_1">
   <g id="patch_2">
    <path d="M 65.610313 265.1585 
L 387.018312 265.1585 
L 387.018312 43.3985 
L 65.610313 43.3985 
z
" style="fill: #ffffff"/>
   </g>
   <g id="matplotlib.axis_1">
    <g id="xtick_1">
     <g id="line2d_1">
      <defs>
       <path id="m3d80a34a6e" d="M 0 0 
L 0 6 
" style="stroke: #000000"/>
      </defs>
      <g>
       <use xlink:href="#m3d80a34a6e" x="80.219767" y="265.1585" style="fill-opacity: 0; stroke: #000000"/>
      </g>
     </g>
     <g id="line2d_2">
      <defs>
       <path id="mac5c6b5b34" d="M 0 0 
L 0 -6 
" style="stroke: #000000"/>
      </defs>
      <g>
       <use xlink:href="#mac5c6b5b34" x="80.219767" y="43.3985" style="fill-opacity: 0; stroke: #000000"/>
      </g>
     </g>
     <g id="text_1">
      <!-- 0.0 -->
      <g transform="translate(68.969767 287.15725) scale(0.18 -0.18)">
       <defs>
        <path id="TimesNewRomanPSMT-30" d="M 231 2094 
Q 231 2819 450 3342 
Q 669 3866 1031 4122 
Q 1313 4325 1613 4325 
Q 2100 4325 2488 3828 
Q 2972 3213 2972 2159 
Q 2972 1422 2759 906 
Q 2547 391 2217 158 
Q 1888 -75 1581 -75 
Q 975 -75 572 641 
Q 231 1244 231 2094 
z
M 844 2016 
Q 844 1141 1059 588 
Q 1238 122 1591 122 
Q 1759 122 1940 273 
Q 2122 425 2216 781 
Q 2359 1319 2359 2297 
Q 2359 3022 2209 3506 
Q 2097 3866 1919 4016 
Q 1791 4119 1609 4119 
Q 1397 4119 1231 3928 
Q 1006 3669 925 3112 
Q 844 2556 844 2016 
z
" transform="scale(0.015625)"/>
        <path id="TimesNewRomanPSMT-2e" d="M 800 606 
Q 947 606 1047 504 
Q 1147 403 1147 259 
Q 1147 116 1045 14 
Q 944 -88 800 -88 
Q 656 -88 554 14 
Q 453 116 453 259 
Q 453 406 554 506 
Q 656 606 800 606 
z
" transform="scale(0.015625)"/>
       </defs>
       <use xlink:href="#TimesNewRomanPSMT-30"/>
       <use xlink:href="#TimesNewRomanPSMT-2e" x="50"/>
       <use xlink:href="#TimesNewRomanPSMT-30" x="75"/>
      </g>
     </g>
    </g>
    <g id="xtick_2">
     <g id="line2d_3">
      <g>
       <use xlink:href="#m3d80a34a6e" x="153.26704" y="265.1585" style="fill-opacity: 0; stroke: #000000"/>
      </g>
     </g>
     <g id="line2d_4">
      <g>
       <use xlink:href="#mac5c6b5b34" x="153.26704" y="43.3985" style="fill-opacity: 0; stroke: #000000"/>
      </g>
     </g>
     <g id="text_2">
      <!-- 2.5 -->
      <g transform="translate(142.01704 287.15725) scale(0.18 -0.18)">
       <defs>
        <path id="TimesNewRomanPSMT-32" d="M 2934 816 
L 2638 0 
L 138 0 
L 138 116 
Q 1241 1122 1691 1759 
Q 2141 2397 2141 2925 
Q 2141 3328 1894 3587 
Q 1647 3847 1303 3847 
Q 991 3847 742 3664 
Q 494 3481 375 3128 
L 259 3128 
Q 338 3706 661 4015 
Q 984 4325 1469 4325 
Q 1984 4325 2329 3994 
Q 2675 3663 2675 3213 
Q 2675 2891 2525 2569 
Q 2294 2063 1775 1497 
Q 997 647 803 472 
L 1909 472 
Q 2247 472 2383 497 
Q 2519 522 2628 598 
Q 2738 675 2819 816 
L 2934 816 
z
" transform="scale(0.015625)"/>
        <path id="TimesNewRomanPSMT-35" d="M 2778 4238 
L 2534 3706 
L 1259 3706 
L 981 3138 
Q 1809 3016 2294 2522 
Q 2709 2097 2709 1522 
Q 2709 1188 2573 903 
Q 2438 619 2231 419 
Q 2025 219 1772 97 
Q 1413 -75 1034 -75 
Q 653 -75 479 54 
Q 306 184 306 341 
Q 306 428 378 495 
Q 450 563 559 563 
Q 641 563 702 538 
Q 763 513 909 409 
Q 1144 247 1384 247 
Q 1750 247 2026 523 
Q 2303 800 2303 1197 
Q 2303 1581 2056 1914 
Q 1809 2247 1375 2428 
Q 1034 2569 447 2591 
L 1259 4238 
L 2778 4238 
z
" transform="scale(0.015625)"/>
       </defs>
       <use xlink:href="#TimesNewRomanPSMT-32"/>
       <use xlink:href="#TimesNewRomanPSMT-2e" x="50"/>
       <use xlink:href="#TimesNewRomanPSMT-35" x="75"/>
      </g>
     </g>
    </g>
    <g id="xtick_3">
     <g id="line2d_5">
      <g>
       <use xlink:href="#m3d80a34a6e" x="226.314312" y="265.1585" style="fill-opacity: 0; stroke: #000000"/>
      </g>
     </g>
     <g id="line2d_6">
      <g>
       <use xlink:href="#mac5c6b5b34" x="226.314312" y="43.3985" style="fill-opacity: 0; stroke: #000000"/>
      </g>
     </g>
     <g id="text_3">
      <!-- 5.0 -->
      <g transform="translate(215.064312 287.15725) scale(0.18 -0.18)">
       <use xlink:href="#TimesNewRomanPSMT-35"/>
       <use xlink:href="#TimesNewRomanPSMT-2e" x="50"/>
       <use xlink:href="#TimesNewRomanPSMT-30" x="75"/>
      </g>
     </g>
    </g>
    <g id="xtick_4">
     <g id="line2d_7">
      <g>
       <use xlink:href="#m3d80a34a6e" x="299.361585" y="265.1585" style="fill-opacity: 0; stroke: #000000"/>
      </g>
     </g>
     <g id="line2d_8">
      <g>
       <use xlink:href="#mac5c6b5b34" x="299.361585" y="43.3985" style="fill-opacity: 0; stroke: #000000"/>
      </g>
     </g>
     <g id="text_4">
      <!-- 7.5 -->
      <g transform="translate(288.111585 287.15725) scale(0.18 -0.18)">
       <defs>
        <path id="TimesNewRomanPSMT-37" d="M 644 4238 
L 2916 4238 
L 2916 4119 
L 1503 -88 
L 1153 -88 
L 2419 3728 
L 1253 3728 
Q 900 3728 750 3644 
Q 488 3500 328 3200 
L 238 3234 
L 644 4238 
z
" transform="scale(0.015625)"/>
       </defs>
       <use xlink:href="#TimesNewRomanPSMT-37"/>
       <use xlink:href="#TimesNewRomanPSMT-2e" x="50"/>
       <use xlink:href="#TimesNewRomanPSMT-35" x="75"/>
      </g>
     </g>
    </g>
    <g id="xtick_5">
     <g id="line2d_9">
      <g>
       <use xlink:href="#m3d80a34a6e" x="372.408858" y="265.1585" style="fill-opacity: 0; stroke: #000000"/>
      </g>
     </g>
     <g id="line2d_10">
      <g>
       <use xlink:href="#mac5c6b5b34" x="372.408858" y="43.3985" style="fill-opacity: 0; stroke: #000000"/>
      </g>
     </g>
     <g id="text_5">
      <!-- 10.0 -->
      <g transform="translate(356.658858 287.15725) scale(0.18 -0.18)">
       <defs>
        <path id="TimesNewRomanPSMT-31" d="M 750 3822 
L 1781 4325 
L 1884 4325 
L 1884 747 
Q 1884 391 1914 303 
Q 1944 216 2037 169 
Q 2131 122 2419 116 
L 2419 0 
L 825 0 
L 825 116 
Q 1125 122 1212 167 
Q 1300 213 1334 289 
Q 1369 366 1369 747 
L 1369 3034 
Q 1369 3497 1338 3628 
Q 1316 3728 1258 3775 
Q 1200 3822 1119 3822 
Q 1003 3822 797 3725 
L 750 3822 
z
" transform="scale(0.015625)"/>
       </defs>
       <use xlink:href="#TimesNewRomanPSMT-31"/>
       <use xlink:href="#TimesNewRomanPSMT-30" x="50"/>
       <use xlink:href="#TimesNewRomanPSMT-2e" x="100"/>
       <use xlink:href="#TimesNewRomanPSMT-30" x="125"/>
      </g>
     </g>
    </g>
    <g id="xtick_6">
     <g id="line2d_11">
      <defs>
       <path id="m5501e9436c" d="M 0 0 
L 0 3 
" style="stroke: #000000"/>
      </defs>
      <g>
       <use xlink:href="#m5501e9436c" x="65.610313" y="265.1585" style="fill-opacity: 0; stroke: #000000"/>
      </g>
     </g>
     <g id="line2d_12">
      <defs>
       <path id="m99454939b6" d="M 0 0 
L 0 -3 
" style="stroke: #000000"/>
      </defs>
      <g>
       <use xlink:href="#m99454939b6" x="65.610313" y="43.3985" style="fill-opacity: 0; stroke: #000000"/>
      </g>
     </g>
    </g>
    <g id="xtick_7">
     <g id="line2d_13">
      <g>
       <use xlink:href="#m5501e9436c" x="94.829222" y="265.1585" style="fill-opacity: 0; stroke: #000000"/>
      </g>
     </g>
     <g id="line2d_14">
      <g>
       <use xlink:href="#m99454939b6" x="94.829222" y="43.3985" style="fill-opacity: 0; stroke: #000000"/>
      </g>
     </g>
    </g>
    <g id="xtick_8">
     <g id="line2d_15">
      <g>
       <use xlink:href="#m5501e9436c" x="109.438676" y="265.1585" style="fill-opacity: 0; stroke: #000000"/>
      </g>
     </g>
     <g id="line2d_16">
      <g>
       <use xlink:href="#m99454939b6" x="109.438676" y="43.3985" style="fill-opacity: 0; stroke: #000000"/>
      </g>
     </g>
    </g>
    <g id="xtick_9">
     <g id="line2d_17">
      <g>
       <use xlink:href="#m5501e9436c" x="124.048131" y="265.1585" style="fill-opacity: 0; stroke: #000000"/>
      </g>
     </g>
     <g id="line2d_18">
      <g>
       <use xlink:href="#m99454939b6" x="124.048131" y="43.3985" style="fill-opacity: 0; stroke: #000000"/>
      </g>
     </g>
    </g>
    <g id="xtick_10">
     <g id="line2d_19">
      <g>
       <use xlink:href="#m5501e9436c" x="138.657585" y="265.1585" style="fill-opacity: 0; stroke: #000000"/>
      </g>
     </g>
     <g id="line2d_20">
      <g>
       <use xlink:href="#m99454939b6" x="138.657585" y="43.3985" style="fill-opacity: 0; stroke: #000000"/>
      </g>
     </g>
    </g>
    <g id="xtick_11">
     <g id="line2d_21">
      <g>
       <use xlink:href="#m5501e9436c" x="167.876494" y="265.1585" style="fill-opacity: 0; stroke: #000000"/>
      </g>
     </g>
     <g id="line2d_22">
      <g>
       <use xlink:href="#m99454939b6" x="167.876494" y="43.3985" style="fill-opacity: 0; stroke: #000000"/>
      </g>
     </g>
    </g>
    <g id="xtick_12">
     <g id="line2d_23">
      <g>
       <use xlink:href="#m5501e9436c" x="182.485949" y="265.1585" style="fill-opacity: 0; stroke: #000000"/>
      </g>
     </g>
     <g id="line2d_24">
      <g>
       <use xlink:href="#m99454939b6" x="182.485949" y="43.3985" style="fill-opacity: 0; stroke: #000000"/>
      </g>
     </g>
    </g>
    <g id="xtick_13">
     <g id="line2d_25">
      <g>
       <use xlink:href="#m5501e9436c" x="197.095403" y="265.1585" style="fill-opacity: 0; stroke: #000000"/>
      </g>
     </g>
     <g id="line2d_26">
      <g>
       <use xlink:href="#m99454939b6" x="197.095403" y="43.3985" style="fill-opacity: 0; stroke: #000000"/>
      </g>
     </g>
    </g>
    <g id="xtick_14">
     <g id="line2d_27">
      <g>
       <use xlink:href="#m5501e9436c" x="211.704858" y="265.1585" style="fill-opacity: 0; stroke: #000000"/>
      </g>
     </g>
     <g id="line2d_28">
      <g>
       <use xlink:href="#m99454939b6" x="211.704858" y="43.3985" style="fill-opacity: 0; stroke: #000000"/>
      </g>
     </g>
    </g>
    <g id="xtick_15">
     <g id="line2d_29">
      <g>
       <use xlink:href="#m5501e9436c" x="240.923767" y="265.1585" style="fill-opacity: 0; stroke: #000000"/>
      </g>
     </g>
     <g id="line2d_30">
      <g>
       <use xlink:href="#m99454939b6" x="240.923767" y="43.3985" style="fill-opacity: 0; stroke: #000000"/>
      </g>
     </g>
    </g>
    <g id="xtick_16">
     <g id="line2d_31">
      <g>
       <use xlink:href="#m5501e9436c" x="255.533222" y="265.1585" style="fill-opacity: 0; stroke: #000000"/>
      </g>
     </g>
     <g id="line2d_32">
      <g>
       <use xlink:href="#m99454939b6" x="255.533222" y="43.3985" style="fill-opacity: 0; stroke: #000000"/>
      </g>
     </g>
    </g>
    <g id="xtick_17">
     <g id="line2d_33">
      <g>
       <use xlink:href="#m5501e9436c" x="270.142676" y="265.1585" style="fill-opacity: 0; stroke: #000000"/>
      </g>
     </g>
     <g id="line2d_34">
      <g>
       <use xlink:href="#m99454939b6" x="270.142676" y="43.3985" style="fill-opacity: 0; stroke: #000000"/>
      </g>
     </g>
    </g>
    <g id="xtick_18">
     <g id="line2d_35">
      <g>
       <use xlink:href="#m5501e9436c" x="284.752131" y="265.1585" style="fill-opacity: 0; stroke: #000000"/>
      </g>
     </g>
     <g id="line2d_36">
      <g>
       <use xlink:href="#m99454939b6" x="284.752131" y="43.3985" style="fill-opacity: 0; stroke: #000000"/>
      </g>
     </g>
    </g>
    <g id="xtick_19">
     <g id="line2d_37">
      <g>
       <use xlink:href="#m5501e9436c" x="313.97104" y="265.1585" style="fill-opacity: 0; stroke: #000000"/>
      </g>
     </g>
     <g id="line2d_38">
      <g>
       <use xlink:href="#m99454939b6" x="313.97104" y="43.3985" style="fill-opacity: 0; stroke: #000000"/>
      </g>
     </g>
    </g>
    <g id="xtick_20">
     <g id="line2d_39">
      <g>
       <use xlink:href="#m5501e9436c" x="328.580494" y="265.1585" style="fill-opacity: 0; stroke: #000000"/>
      </g>
     </g>
     <g id="line2d_40">
      <g>
       <use xlink:href="#m99454939b6" x="328.580494" y="43.3985" style="fill-opacity: 0; stroke: #000000"/>
      </g>
     </g>
    </g>
    <g id="xtick_21">
     <g id="line2d_41">
      <g>
       <use xlink:href="#m5501e9436c" x="343.189949" y="265.1585" style="fill-opacity: 0; stroke: #000000"/>
      </g>
     </g>
     <g id="line2d_42">
      <g>
       <use xlink:href="#m99454939b6" x="343.189949" y="43.3985" style="fill-opacity: 0; stroke: #000000"/>
      </g>
     </g>
    </g>
    <g id="xtick_22">
     <g id="line2d_43">
      <g>
       <use xlink:href="#m5501e9436c" x="357.799403" y="265.1585" style="fill-opacity: 0; stroke: #000000"/>
      </g>
     </g>
     <g id="line2d_44">
      <g>
       <use xlink:href="#m99454939b6" x="357.799403" y="43.3985" style="fill-opacity: 0; stroke: #000000"/>
      </g>
     </g>
    </g>
    <g id="xtick_23">
     <g id="line2d_45">
      <g>
       <use xlink:href="#m5501e9436c" x="387.018312" y="265.1585" style="fill-opacity: 0; stroke: #000000"/>
      </g>
     </g>
     <g id="line2d_46">
      <g>
       <use xlink:href="#m99454939b6" x="387.018312" y="43.3985" style="fill-opacity: 0; stroke: #000000"/>
      </g>
     </g>
    </g>
    <g id="text_6">
     <!-- $x$ label -->
     <g transform="translate(202.554312 309.506312) scale(0.18 -0.18)">
      <defs>
       <path id="TimesNewRomanPS-ItalicMT-78" d="M 1109 2828 
Q 1263 2666 1341 2503 
Q 1397 2391 1525 1913 
L 1800 2325 
Q 1909 2475 2065 2611 
Q 2222 2747 2341 2797 
Q 2416 2828 2506 2828 
Q 2641 2828 2720 2756 
Q 2800 2684 2800 2581 
Q 2800 2463 2753 2419 
Q 2666 2341 2553 2341 
Q 2488 2341 2413 2369 
Q 2266 2419 2216 2419 
Q 2141 2419 2038 2331 
Q 1844 2169 1575 1703 
L 1831 628 
Q 1891 381 1931 332 
Q 1972 284 2013 284 
Q 2078 284 2166 356 
Q 2338 500 2459 731 
L 2569 675 
Q 2372 306 2069 63 
Q 1897 -75 1778 -75 
Q 1603 -75 1500 122 
Q 1434 244 1228 1172 
Q 741 325 447 81 
Q 256 -75 78 -75 
Q -47 -75 -150 16 
Q -225 84 -225 200 
Q -225 303 -156 372 
Q -88 441 13 441 
Q 113 441 225 341 
Q 306 269 350 269 
Q 388 269 447 319 
Q 594 438 847 831 
Q 1100 1225 1178 1400 
Q 984 2159 969 2203 
Q 897 2406 781 2490 
Q 666 2575 441 2575 
Q 369 2575 275 2569 
L 275 2681 
L 1109 2828 
z
" transform="scale(0.015625)"/>
       <path id="TimesNewRomanPSMT-20" transform="scale(0.015625)"/>
       <path id="TimesNewRomanPSMT-6c" d="M 1184 4444 
L 1184 647 
Q 1184 378 1223 290 
Q 1263 203 1344 158 
Q 1425 113 1647 113 
L 1647 0 
L 244 0 
L 244 113 
Q 441 113 512 153 
Q 584 194 625 287 
Q 666 381 666 647 
L 666 3247 
Q 666 3731 644 3842 
Q 622 3953 573 3993 
Q 525 4034 450 4034 
Q 369 4034 244 3984 
L 191 4094 
L 1044 4444 
L 1184 4444 
z
" transform="scale(0.015625)"/>
       <path id="TimesNewRomanPSMT-61" d="M 1822 413 
Q 1381 72 1269 19 
Q 1100 -59 909 -59 
Q 613 -59 420 144 
Q 228 347 228 678 
Q 228 888 322 1041 
Q 450 1253 767 1440 
Q 1084 1628 1822 1897 
L 1822 2009 
Q 1822 2438 1686 2597 
Q 1550 2756 1291 2756 
Q 1094 2756 978 2650 
Q 859 2544 859 2406 
L 866 2225 
Q 866 2081 792 2003 
Q 719 1925 600 1925 
Q 484 1925 411 2006 
Q 338 2088 338 2228 
Q 338 2497 613 2722 
Q 888 2947 1384 2947 
Q 1766 2947 2009 2819 
Q 2194 2722 2281 2516 
Q 2338 2381 2338 1966 
L 2338 994 
Q 2338 584 2353 492 
Q 2369 400 2405 369 
Q 2441 338 2488 338 
Q 2538 338 2575 359 
Q 2641 400 2828 588 
L 2828 413 
Q 2478 -56 2159 -56 
Q 2006 -56 1915 50 
Q 1825 156 1822 413 
z
M 1822 616 
L 1822 1706 
Q 1350 1519 1213 1441 
Q 966 1303 859 1153 
Q 753 1003 753 825 
Q 753 600 887 451 
Q 1022 303 1197 303 
Q 1434 303 1822 616 
z
" transform="scale(0.015625)"/>
       <path id="TimesNewRomanPSMT-62" d="M 984 2369 
Q 1400 2947 1881 2947 
Q 2322 2947 2650 2570 
Q 2978 2194 2978 1541 
Q 2978 778 2472 313 
Q 2038 -88 1503 -88 
Q 1253 -88 995 3 
Q 738 94 469 275 
L 469 3241 
Q 469 3728 445 3840 
Q 422 3953 372 3993 
Q 322 4034 247 4034 
Q 159 4034 28 3984 
L -16 4094 
L 844 4444 
L 984 4444 
L 984 2369 
z
M 984 2169 
L 984 456 
Q 1144 300 1314 220 
Q 1484 141 1663 141 
Q 1947 141 2192 453 
Q 2438 766 2438 1363 
Q 2438 1913 2192 2208 
Q 1947 2503 1634 2503 
Q 1469 2503 1303 2419 
Q 1178 2356 984 2169 
z
" transform="scale(0.015625)"/>
       <path id="TimesNewRomanPSMT-65" d="M 681 1784 
Q 678 1147 991 784 
Q 1303 422 1725 422 
Q 2006 422 2214 576 
Q 2422 731 2563 1106 
L 2659 1044 
Q 2594 616 2278 264 
Q 1963 -88 1488 -88 
Q 972 -88 605 314 
Q 238 716 238 1394 
Q 238 2128 614 2539 
Q 991 2950 1559 2950 
Q 2041 2950 2350 2633 
Q 2659 2316 2659 1784 
L 681 1784 
z
M 681 1966 
L 2006 1966 
Q 1991 2241 1941 2353 
Q 1863 2528 1708 2628 
Q 1553 2728 1384 2728 
Q 1125 2728 920 2526 
Q 716 2325 681 1966 
z
" transform="scale(0.015625)"/>
      </defs>
      <use xlink:href="#TimesNewRomanPS-ItalicMT-78" transform="translate(0 0.5625)"/>
      <use xlink:href="#TimesNewRomanPSMT-20" transform="translate(44.384766 0.5625)"/>
      <use xlink:href="#TimesNewRomanPSMT-6c" transform="translate(69.384766 0.5625)"/>
      <use xlink:href="#TimesNewRomanPSMT-61" transform="translate(97.167969 0.5625)"/>
      <use xlink:href="#TimesNewRomanPSMT-62" transform="translate(141.552734 0.5625)"/>
      <use xlink:href="#TimesNewRomanPSMT-65" transform="translate(191.552734 0.5625)"/>
      <use xlink:href="#TimesNewRomanPSMT-6c" transform="translate(235.9375 0.5625)"/>
     </g>
    </g>
   </g>
   <g id="matplotlib.axis_2">
    <g id="ytick_1">
     <g id="line2d_47">
      <defs>
       <path id="m46068a88bd" d="M 0 0 
L -6 0 
" style="stroke: #000000"/>
      </defs>
      <g>
       <use xlink:href="#m46068a88bd" x="65.610313" y="255.0785" style="fill-opacity: 0; stroke: #000000"/>
      </g>
     </g>
     <g id="line2d_48">
      <defs>
       <path id="m4fe035e340" d="M 0 0 
L 6 0 
" style="stroke: #000000"/>
      </defs>
      <g>
       <use xlink:href="#m4fe035e340" x="387.018312" y="255.0785" style="fill-opacity: 0; stroke: #000000"/>
      </g>
     </g>
     <g id="text_7">
      <!-- −2 -->
      <g transform="translate(36.96 261.327875) scale(0.18 -0.18)">
       <defs>
        <path id="TimesNewRomanPSMT-2212" d="M 3484 2000 
L 116 2000 
L 116 2256 
L 3484 2256 
L 3484 2000 
z
" transform="scale(0.015625)"/>
       </defs>
       <use xlink:href="#TimesNewRomanPSMT-2212"/>
       <use xlink:href="#TimesNewRomanPSMT-32" x="56.396484"/>
      </g>
     </g>
    </g>
    <g id="ytick_2">
     <g id="line2d_49">
      <g>
       <use xlink:href="#m46068a88bd" x="65.610313" y="204.6785" style="fill-opacity: 0; stroke: #000000"/>
      </g>
     </g>
     <g id="line2d_50">
      <g>
       <use xlink:href="#m4fe035e340" x="387.018312" y="204.6785" style="fill-opacity: 0; stroke: #000000"/>
      </g>
     </g>
     <g id="text_8">
      <!-- −1 -->
      <g transform="translate(36.96 210.927875) scale(0.18 -0.18)">
       <use xlink:href="#TimesNewRomanPSMT-2212"/>
       <use xlink:href="#TimesNewRomanPSMT-31" x="56.396484"/>
      </g>
     </g>
    </g>
    <g id="ytick_3">
     <g id="line2d_51">
      <g>
       <use xlink:href="#m46068a88bd" x="65.610313" y="154.2785" style="fill-opacity: 0; stroke: #000000"/>
      </g>
     </g>
     <g id="line2d_52">
      <g>
       <use xlink:href="#m4fe035e340" x="387.018312" y="154.2785" style="fill-opacity: 0; stroke: #000000"/>
      </g>
     </g>
     <g id="text_9">
      <!-- 0 -->
      <g transform="translate(47.110313 160.527875) scale(0.18 -0.18)">
       <use xlink:href="#TimesNewRomanPSMT-30"/>
      </g>
     </g>
    </g>
    <g id="ytick_4">
     <g id="line2d_53">
      <g>
       <use xlink:href="#m46068a88bd" x="65.610313" y="103.8785" style="fill-opacity: 0; stroke: #000000"/>
      </g>
     </g>
     <g id="line2d_54">
      <g>
       <use xlink:href="#m4fe035e340" x="387.018312" y="103.8785" style="fill-opacity: 0; stroke: #000000"/>
      </g>
     </g>
     <g id="text_10">
      <!-- 1 -->
      <g transform="translate(47.110313 110.127875) scale(0.18 -0.18)">
       <use xlink:href="#TimesNewRomanPSMT-31"/>
      </g>
     </g>
    </g>
    <g id="ytick_5">
     <g id="line2d_55">
      <g>
       <use xlink:href="#m46068a88bd" x="65.610313" y="53.4785" style="fill-opacity: 0; stroke: #000000"/>
      </g>
     </g>
     <g id="line2d_56">
      <g>
       <use xlink:href="#m4fe035e340" x="387.018312" y="53.4785" style="fill-opacity: 0; stroke: #000000"/>
      </g>
     </g>
     <g id="text_11">
      <!-- 2 -->
      <g transform="translate(47.110313 59.727875) scale(0.18 -0.18)">
       <use xlink:href="#TimesNewRomanPSMT-32"/>
      </g>
     </g>
    </g>
    <g id="ytick_6">
     <g id="line2d_57">
      <defs>
       <path id="mf74b12f692" d="M 0 0 
L -3 0 
" style="stroke: #000000"/>
      </defs>
      <g>
       <use xlink:href="#mf74b12f692" x="65.610313" y="265.1585" style="fill-opacity: 0; stroke: #000000"/>
      </g>
     </g>
     <g id="line2d_58">
      <defs>
       <path id="m17c3ba8c77" d="M 0 0 
L 3 0 
" style="stroke: #000000"/>
      </defs>
      <g>
       <use xlink:href="#m17c3ba8c77" x="387.018312" y="265.1585" style="fill-opacity: 0; stroke: #000000"/>
      </g>
     </g>
    </g>
    <g id="ytick_7">
     <g id="line2d_59">
      <g>
       <use xlink:href="#mf74b12f692" x="65.610313" y="244.9985" style="fill-opacity: 0; stroke: #000000"/>
      </g>
     </g>
     <g id="line2d_60">
      <g>
       <use xlink:href="#m17c3ba8c77" x="387.018312" y="244.9985" style="fill-opacity: 0; stroke: #000000"/>
      </g>
     </g>
    </g>
    <g id="ytick_8">
     <g id="line2d_61">
      <g>
       <use xlink:href="#mf74b12f692" x="65.610313" y="234.9185" style="fill-opacity: 0; stroke: #000000"/>
      </g>
     </g>
     <g id="line2d_62">
      <g>
       <use xlink:href="#m17c3ba8c77" x="387.018312" y="234.9185" style="fill-opacity: 0; stroke: #000000"/>
      </g>
     </g>
    </g>
    <g id="ytick_9">
     <g id="line2d_63">
      <g>
       <use xlink:href="#mf74b12f692" x="65.610313" y="224.8385" style="fill-opacity: 0; stroke: #000000"/>
      </g>
     </g>
     <g id="line2d_64">
      <g>
       <use xlink:href="#m17c3ba8c77" x="387.018312" y="224.8385" style="fill-opacity: 0; stroke: #000000"/>
      </g>
     </g>
    </g>
    <g id="ytick_10">
     <g id="line2d_65">
      <g>
       <use xlink:href="#mf74b12f692" x="65.610313" y="214.7585" style="fill-opacity: 0; stroke: #000000"/>
      </g>
     </g>
     <g id="line2d_66">
      <g>
       <use xlink:href="#m17c3ba8c77" x="387.018312" y="214.7585" style="fill-opacity: 0; stroke: #000000"/>
      </g>
     </g>
    </g>
    <g id="ytick_11">
     <g id="line2d_67">
      <g>
       <use xlink:href="#mf74b12f692" x="65.610313" y="194.5985" style="fill-opacity: 0; stroke: #000000"/>
      </g>
     </g>
     <g id="line2d_68">
      <g>
       <use xlink:href="#m17c3ba8c77" x="387.018312" y="194.5985" style="fill-opacity: 0; stroke: #000000"/>
      </g>
     </g>
    </g>
    <g id="ytick_12">
     <g id="line2d_69">
      <g>
       <use xlink:href="#mf74b12f692" x="65.610313" y="184.5185" style="fill-opacity: 0; stroke: #000000"/>
      </g>
     </g>
     <g id="line2d_70">
      <g>
       <use xlink:href="#m17c3ba8c77" x="387.018312" y="184.5185" style="fill-opacity: 0; stroke: #000000"/>
      </g>
     </g>
    </g>
    <g id="ytick_13">
     <g id="line2d_71">
      <g>
       <use xlink:href="#mf74b12f692" x="65.610313" y="174.4385" style="fill-opacity: 0; stroke: #000000"/>
      </g>
     </g>
     <g id="line2d_72">
      <g>
       <use xlink:href="#m17c3ba8c77" x="387.018312" y="174.4385" style="fill-opacity: 0; stroke: #000000"/>
      </g>
     </g>
    </g>
    <g id="ytick_14">
     <g id="line2d_73">
      <g>
       <use xlink:href="#mf74b12f692" x="65.610313" y="164.3585" style="fill-opacity: 0; stroke: #000000"/>
      </g>
     </g>
     <g id="line2d_74">
      <g>
       <use xlink:href="#m17c3ba8c77" x="387.018312" y="164.3585" style="fill-opacity: 0; stroke: #000000"/>
      </g>
     </g>
    </g>
    <g id="ytick_15">
     <g id="line2d_75">
      <g>
       <use xlink:href="#mf74b12f692" x="65.610313" y="144.1985" style="fill-opacity: 0; stroke: #000000"/>
      </g>
     </g>
     <g id="line2d_76">
      <g>
       <use xlink:href="#m17c3ba8c77" x="387.018312" y="144.1985" style="fill-opacity: 0; stroke: #000000"/>
      </g>
     </g>
    </g>
    <g id="ytick_16">
     <g id="line2d_77">
      <g>
       <use xlink:href="#mf74b12f692" x="65.610313" y="134.1185" style="fill-opacity: 0; stroke: #000000"/>
      </g>
     </g>
     <g id="line2d_78">
      <g>
       <use xlink:href="#m17c3ba8c77" x="387.018312" y="134.1185" style="fill-opacity: 0; stroke: #000000"/>
      </g>
     </g>
    </g>
    <g id="ytick_17">
     <g id="line2d_79">
      <g>
       <use xlink:href="#mf74b12f692" x="65.610313" y="124.0385" style="fill-opacity: 0; stroke: #000000"/>
      </g>
     </g>
     <g id="line2d_80">
      <g>
       <use xlink:href="#m17c3ba8c77" x="387.018312" y="124.0385" style="fill-opacity: 0; stroke: #000000"/>
      </g>
     </g>
    </g>
    <g id="ytick_18">
     <g id="line2d_81">
      <g>
       <use xlink:href="#mf74b12f692" x="65.610313" y="113.9585" style="fill-opacity: 0; stroke: #000000"/>
      </g>
     </g>
     <g id="line2d_82">
      <g>
       <use xlink:href="#m17c3ba8c77" x="387.018312" y="113.9585" style="fill-opacity: 0; stroke: #000000"/>
      </g>
     </g>
    </g>
    <g id="ytick_19">
     <g id="line2d_83">
      <g>
       <use xlink:href="#mf74b12f692" x="65.610313" y="93.7985" style="fill-opacity: 0; stroke: #000000"/>
      </g>
     </g>
     <g id="line2d_84">
      <g>
       <use xlink:href="#m17c3ba8c77" x="387.018312" y="93.7985" style="fill-opacity: 0; stroke: #000000"/>
      </g>
     </g>
    </g>
    <g id="ytick_20">
     <g id="line2d_85">
      <g>
       <use xlink:href="#mf74b12f692" x="65.610313" y="83.7185" style="fill-opacity: 0; stroke: #000000"/>
      </g>
     </g>
     <g id="line2d_86">
      <g>
       <use xlink:href="#m17c3ba8c77" x="387.018312" y="83.7185" style="fill-opacity: 0; stroke: #000000"/>
      </g>
     </g>
    </g>
    <g id="ytick_21">
     <g id="line2d_87">
      <g>
       <use xlink:href="#mf74b12f692" x="65.610313" y="73.6385" style="fill-opacity: 0; stroke: #000000"/>
      </g>
     </g>
     <g id="line2d_88">
      <g>
       <use xlink:href="#m17c3ba8c77" x="387.018312" y="73.6385" style="fill-opacity: 0; stroke: #000000"/>
      </g>
     </g>
    </g>
    <g id="ytick_22">
     <g id="line2d_89">
      <g>
       <use xlink:href="#mf74b12f692" x="65.610313" y="63.5585" style="fill-opacity: 0; stroke: #000000"/>
      </g>
     </g>
     <g id="line2d_90">
      <g>
       <use xlink:href="#m17c3ba8c77" x="387.018312" y="63.5585" style="fill-opacity: 0; stroke: #000000"/>
      </g>
     </g>
    </g>
    <g id="ytick_23">
     <g id="line2d_91">
      <g>
       <use xlink:href="#mf74b12f692" x="65.610313" y="43.3985" style="fill-opacity: 0; stroke: #000000"/>
      </g>
     </g>
     <g id="line2d_92">
      <g>
       <use xlink:href="#m17c3ba8c77" x="387.018312" y="43.3985" style="fill-opacity: 0; stroke: #000000"/>
      </g>
     </g>
    </g>
    <g id="text_12">
     <!-- $\sin(x)$ -->
     <g transform="translate(27 174.7985) rotate(-90) scale(0.18 -0.18)">
      <defs>
       <path id="TimesNewRomanPSMT-73" d="M 2050 2947 
L 2050 1972 
L 1947 1972 
Q 1828 2431 1642 2597 
Q 1456 2763 1169 2763 
Q 950 2763 815 2647 
Q 681 2531 681 2391 
Q 681 2216 781 2091 
Q 878 1963 1175 1819 
L 1631 1597 
Q 2266 1288 2266 781 
Q 2266 391 1970 151 
Q 1675 -88 1309 -88 
Q 1047 -88 709 6 
Q 606 38 541 38 
Q 469 38 428 -44 
L 325 -44 
L 325 978 
L 428 978 
Q 516 541 762 319 
Q 1009 97 1316 97 
Q 1531 97 1667 223 
Q 1803 350 1803 528 
Q 1803 744 1651 891 
Q 1500 1038 1047 1263 
Q 594 1488 453 1669 
Q 313 1847 313 2119 
Q 313 2472 555 2709 
Q 797 2947 1181 2947 
Q 1350 2947 1591 2875 
Q 1750 2828 1803 2828 
Q 1853 2828 1881 2850 
Q 1909 2872 1947 2947 
L 2050 2947 
z
" transform="scale(0.015625)"/>
       <path id="TimesNewRomanPSMT-69" d="M 928 4444 
Q 1059 4444 1151 4351 
Q 1244 4259 1244 4128 
Q 1244 3997 1151 3903 
Q 1059 3809 928 3809 
Q 797 3809 703 3903 
Q 609 3997 609 4128 
Q 609 4259 701 4351 
Q 794 4444 928 4444 
z
M 1188 2947 
L 1188 647 
Q 1188 378 1227 289 
Q 1266 200 1342 156 
Q 1419 113 1622 113 
L 1622 0 
L 231 0 
L 231 113 
Q 441 113 512 153 
Q 584 194 626 287 
Q 669 381 669 647 
L 669 1750 
Q 669 2216 641 2353 
Q 619 2453 572 2492 
Q 525 2531 444 2531 
Q 356 2531 231 2484 
L 188 2597 
L 1050 2947 
L 1188 2947 
z
" transform="scale(0.015625)"/>
       <path id="TimesNewRomanPSMT-6e" d="M 1034 2341 
Q 1538 2947 1994 2947 
Q 2228 2947 2397 2830 
Q 2566 2713 2666 2444 
Q 2734 2256 2734 1869 
L 2734 647 
Q 2734 375 2778 278 
Q 2813 200 2889 156 
Q 2966 113 3172 113 
L 3172 0 
L 1756 0 
L 1756 113 
L 1816 113 
Q 2016 113 2095 173 
Q 2175 234 2206 353 
Q 2219 400 2219 647 
L 2219 1819 
Q 2219 2209 2117 2386 
Q 2016 2563 1775 2563 
Q 1403 2563 1034 2156 
L 1034 647 
Q 1034 356 1069 288 
Q 1113 197 1189 155 
Q 1266 113 1500 113 
L 1500 0 
L 84 0 
L 84 113 
L 147 113 
Q 366 113 442 223 
Q 519 334 519 647 
L 519 1709 
Q 519 2225 495 2337 
Q 472 2450 423 2490 
Q 375 2531 294 2531 
Q 206 2531 84 2484 
L 38 2597 
L 900 2947 
L 1034 2947 
L 1034 2341 
z
" transform="scale(0.015625)"/>
       <path id="TimesNewRomanPSMT-28" d="M 1988 -1253 
L 1988 -1369 
Q 1516 -1131 1200 -813 
Q 750 -359 506 256 
Q 263 872 263 1534 
Q 263 2503 741 3301 
Q 1219 4100 1988 4444 
L 1988 4313 
Q 1603 4100 1356 3731 
Q 1109 3363 987 2797 
Q 866 2231 866 1616 
Q 866 947 969 400 
Q 1050 -31 1165 -292 
Q 1281 -553 1476 -793 
Q 1672 -1034 1988 -1253 
z
" transform="scale(0.015625)"/>
       <path id="TimesNewRomanPSMT-29" d="M 144 4313 
L 144 4444 
Q 619 4209 934 3891 
Q 1381 3434 1625 2820 
Q 1869 2206 1869 1541 
Q 1869 572 1392 -226 
Q 916 -1025 144 -1369 
L 144 -1253 
Q 528 -1038 776 -670 
Q 1025 -303 1145 264 
Q 1266 831 1266 1447 
Q 1266 2113 1163 2663 
Q 1084 3094 967 3353 
Q 850 3613 656 3853 
Q 463 4094 144 4313 
z
" transform="scale(0.015625)"/>
      </defs>
      <use xlink:href="#TimesNewRomanPSMT-73" transform="translate(0 0.5625)"/>
      <use xlink:href="#TimesNewRomanPSMT-69" transform="translate(38.916016 0.5625)"/>
      <use xlink:href="#TimesNewRomanPSMT-6e" transform="translate(66.699219 0.5625)"/>
      <use xlink:href="#TimesNewRomanPSMT-28" transform="translate(116.699219 0.5625)"/>
      <use xlink:href="#TimesNewRomanPS-ItalicMT-78" transform="translate(150 0.5625)"/>
      <use xlink:href="#TimesNewRomanPSMT-29" transform="translate(194.384766 0.5625)"/>
     </g>
    </g>
   </g>
   <g id="line2d_93">
    <path d="M 80.219767 154.2785 
L 88.417457 140.322998 
L 93.101851 132.770951 
L 97.200696 126.609111 
L 100.713992 121.755885 
L 103.641738 118.067504 
L 106.569485 114.742383 
L 108.911682 112.366378 
L 111.253879 110.259543 
L 113.596076 108.435409 
L 115.938273 106.905689 
L 118.28047 105.680209 
L 120.622667 104.766839 
L 122.379315 104.290238 
L 124.135963 103.994263 
L 125.892611 103.879983 
L 127.649259 103.94781 
L 129.405907 104.1975 
L 131.162554 104.62815 
L 132.919202 105.238205 
L 135.261399 106.326782 
L 137.603597 107.723317 
L 139.945794 109.41884 
L 142.287991 111.402462 
L 144.630188 113.661444 
L 147.557934 116.850135 
L 150.485681 120.414297 
L 153.413427 124.318174 
L 156.926723 129.395895 
L 161.025568 135.768589 
L 165.709962 143.489308 
L 173.907652 157.543149 
L 180.934243 169.427752 
L 185.618638 176.907015 
L 189.131933 182.14557 
L 192.645229 186.981714 
L 195.572975 190.653856 
L 198.500722 193.96109 
L 200.842919 196.321717 
L 203.185116 198.412333 
L 205.527313 200.219511 
L 207.86951 201.731645 
L 210.211707 202.939023 
L 212.553904 203.833892 
L 214.310552 204.296426 
L 216.0672 204.578227 
L 217.823848 204.678278 
L 219.580496 204.596216 
L 221.337144 204.332338 
L 223.093791 203.887598 
L 224.850439 203.263603 
L 227.192636 202.156757 
L 229.534834 200.742426 
L 231.877031 199.029693 
L 234.219228 197.029556 
L 236.561425 194.754862 
L 239.489171 191.547815 
L 242.416918 187.966891 
L 245.344664 184.048015 
L 248.85796 178.954835 
L 252.956805 172.567884 
L 257.641199 164.836188 
L 265.838889 150.777508 
L 272.86548 138.903494 
L 277.549875 131.438576 
L 281.06317 126.214365 
L 284.576466 121.395409 
L 287.504212 117.739587 
L 290.431959 114.450314 
L 292.774156 112.105116 
L 295.116353 110.030765 
L 297.45855 108.240584 
L 299.800747 106.746069 
L 302.142944 105.556819 
L 304.485141 104.680471 
L 306.241789 104.232015 
L 307.998437 103.964394 
L 309.755085 103.878575 
L 311.511733 103.97487 
L 313.268381 104.252929 
L 315.025028 104.711749 
L 316.781676 105.349671 
L 319.123873 106.474761 
L 321.466071 107.906857 
L 323.808268 109.636764 
L 326.150465 111.65337 
L 328.492662 113.943725 
L 331.420408 117.169059 
L 334.348155 120.766665 
L 337.275901 124.700452 
L 340.789197 129.808979 
L 344.888042 136.210047 
L 349.572436 143.952549 
L 358.355675 159.022178 
L 364.796717 169.878921 
L 369.481112 177.329328 
L 372.408858 181.697164 
L 372.408858 181.697164 
" clip-path="url(#p9c3d30b8f3)" style="fill: none; stroke: #000000; stroke-width: 2"/>
   </g>
   <g id="line2d_94">
    <path d="M 80.219767 103.8785 
L 81.976415 103.969557 
L 83.733063 104.242397 
L 85.489711 104.696036 
L 87.246358 105.328834 
L 89.588556 106.447212 
L 91.930753 107.872774 
L 94.27295 109.596364 
L 96.615147 111.606914 
L 98.957344 113.891511 
L 101.88509 117.110123 
L 104.812837 120.701598 
L 107.740583 124.629907 
L 111.253879 129.732799 
L 115.352724 136.128687 
L 120.037118 143.867232 
L 128.820357 158.935377 
L 135.261399 169.795998 
L 139.945794 177.251764 
L 143.459089 182.466852 
L 146.972385 187.27489 
L 149.900131 190.920357 
L 152.827878 194.198243 
L 155.170075 196.533664 
L 157.512272 198.597712 
L 159.854469 200.377131 
L 162.196666 201.860494 
L 164.538863 203.038275 
L 166.881061 203.902908 
L 168.637708 204.342464 
L 170.394356 204.60112 
L 172.151004 204.677943 
L 173.907652 204.572655 
L 175.6643 204.285637 
L 177.420948 203.817925 
L 179.177595 203.171209 
L 181.519793 202.034603 
L 183.86199 200.591295 
L 186.204187 198.850556 
L 188.546384 196.823565 
L 190.888581 194.523339 
L 193.816327 191.286485 
L 196.744074 187.678377 
L 199.67182 183.735212 
L 203.185116 178.617045 
L 207.283961 172.207129 
L 211.968355 164.457886 
L 221.337144 148.381613 
L 227.778186 137.579545 
L 231.877031 131.094653 
L 235.390326 125.894096 
L 238.903622 121.103421 
L 241.831368 117.474405 
L 244.759115 114.214598 
L 247.101312 111.894691 
L 249.443509 109.846983 
L 251.785706 108.084625 
L 254.127903 106.618934 
L 256.4701 105.459325 
L 258.812298 104.613244 
L 260.568945 104.187781 
L 262.325593 103.943315 
L 264.082241 103.880727 
L 265.838889 104.000244 
L 267.595537 104.301434 
L 269.352185 104.783209 
L 271.108832 105.443828 
L 273.45103 106.598638 
L 275.793227 108.059659 
L 278.135424 109.817508 
L 280.477621 111.860897 
L 282.819818 114.176701 
L 285.747564 117.431725 
L 288.675311 121.056385 
L 291.603057 125.01432 
L 295.116353 130.147649 
L 299.215198 136.571451 
L 304.485141 145.323304 
L 321.466071 174.022632 
L 325.564916 180.312408 
L 329.078211 185.30098 
L 332.005958 189.118789 
L 334.933704 192.587089 
L 337.86145 195.671089 
L 340.203648 197.840664 
L 342.545845 199.730473 
L 344.888042 201.328378 
L 347.230239 202.624117 
L 349.572436 203.60937 
L 351.329084 204.14067 
L 353.085732 204.4918 
L 354.84238 204.661491 
L 356.599027 204.649131 
L 358.355675 204.454765 
L 360.112323 204.079093 
L 361.868971 203.523474 
L 364.211168 202.506294 
L 366.553365 201.179383 
L 368.895562 199.551264 
L 371.237759 197.632393 
L 372.408858 196.567705 
L 372.408858 196.567705 
" clip-path="url(#p9c3d30b8f3)" style="fill: none; stroke: #ff0000; stroke-width: 2"/>
   </g>
   <g id="patch_3">
    <path d="M 65.610313 265.1585 
L 65.610313 43.3985 
" style="fill: none; stroke: #000000; stroke-linejoin: miter; stroke-linecap: square"/>
   </g>
   <g id="patch_4">
    <path d="M 387.018312 265.1585 
L 387.018312 43.3985 
" style="fill: none; stroke: #000000; stroke-linejoin: miter; stroke-linecap: square"/>
   </g>
   <g id="patch_5">
    <path d="M 65.610313 265.1585 
L 387.018312 265.1585 
" style="fill: none; stroke: #000000; stroke-linejoin: miter; stroke-linecap: square"/>
   </g>
   <g id="patch_6">
    <path d="M 65.610313 43.3985 
L 387.018312 43.3985 
" style="fill: none; stroke: #000000; stroke-linejoin: miter; stroke-linecap: square"/>
   </g>
   <g id="text_13">
    <!-- title 1 -->
    <g transform="translate(201.418625 29.3985) scale(0.216 -0.216)">
     <defs>
      <path id="TimesNewRomanPSMT-74" d="M 1031 3803 
L 1031 2863 
L 1700 2863 
L 1700 2644 
L 1031 2644 
L 1031 788 
Q 1031 509 1111 412 
Q 1191 316 1316 316 
Q 1419 316 1516 380 
Q 1613 444 1666 569 
L 1788 569 
Q 1678 263 1478 108 
Q 1278 -47 1066 -47 
Q 922 -47 784 33 
Q 647 113 581 261 
Q 516 409 516 719 
L 516 2644 
L 63 2644 
L 63 2747 
Q 234 2816 414 2980 
Q 594 3144 734 3369 
Q 806 3488 934 3803 
L 1031 3803 
z
" transform="scale(0.015625)"/>
     </defs>
     <use xlink:href="#TimesNewRomanPSMT-74"/>
     <use xlink:href="#TimesNewRomanPSMT-69" x="27.783203"/>
     <use xlink:href="#TimesNewRomanPSMT-74" x="55.566406"/>
     <use xlink:href="#TimesNewRomanPSMT-6c" x="83.349609"/>
     <use xlink:href="#TimesNewRomanPSMT-65" x="111.132812"/>
     <use xlink:href="#TimesNewRomanPSMT-20" x="155.517578"/>
     <use xlink:href="#TimesNewRomanPSMT-31" x="180.517578"/>
    </g>
   </g>
  </g>
  <g id="axes_2">
   <g id="patch_7">
    <path d="M 547.722313 265.1585 
L 869.130312 265.1585 
L 869.130312 43.3985 
L 547.722313 43.3985 
z
" style="fill: #ffffff"/>
   </g>
   <g id="matplotlib.axis_3">
    <g id="xtick_24">
     <g id="line2d_95">
      <g>
       <use xlink:href="#m3d80a34a6e" x="547.722313" y="265.1585" style="fill-opacity: 0; stroke: #000000"/>
      </g>
     </g>
     <g id="line2d_96">
      <g>
       <use xlink:href="#mac5c6b5b34" x="547.722313" y="43.3985" style="fill-opacity: 0; stroke: #000000"/>
      </g>
     </g>
     <g id="text_14">
      <!-- 0 -->
      <g transform="translate(543.222313 287.15725) scale(0.18 -0.18)">
       <use xlink:href="#TimesNewRomanPSMT-30"/>
      </g>
     </g>
    </g>
    <g id="xtick_25">
     <g id="line2d_97">
      <g>
       <use xlink:href="#m3d80a34a6e" x="654.858313" y="265.1585" style="fill-opacity: 0; stroke: #000000"/>
      </g>
     </g>
     <g id="line2d_98">
      <g>
       <use xlink:href="#mac5c6b5b34" x="654.858313" y="43.3985" style="fill-opacity: 0; stroke: #000000"/>
      </g>
     </g>
     <g id="text_15">
      <!-- 5 -->
      <g transform="translate(650.358313 287.15725) scale(0.18 -0.18)">
       <use xlink:href="#TimesNewRomanPSMT-35"/>
      </g>
     </g>
    </g>
    <g id="xtick_26">
     <g id="line2d_99">
      <g>
       <use xlink:href="#m3d80a34a6e" x="761.994312" y="265.1585" style="fill-opacity: 0; stroke: #000000"/>
      </g>
     </g>
     <g id="line2d_100">
      <g>
       <use xlink:href="#mac5c6b5b34" x="761.994312" y="43.3985" style="fill-opacity: 0; stroke: #000000"/>
      </g>
     </g>
     <g id="text_16">
      <!-- 10 -->
      <g transform="translate(752.994312 287.15725) scale(0.18 -0.18)">
       <use xlink:href="#TimesNewRomanPSMT-31"/>
       <use xlink:href="#TimesNewRomanPSMT-30" x="50"/>
      </g>
     </g>
    </g>
    <g id="xtick_27">
     <g id="line2d_101">
      <g>
       <use xlink:href="#m3d80a34a6e" x="869.130312" y="265.1585" style="fill-opacity: 0; stroke: #000000"/>
      </g>
     </g>
     <g id="line2d_102">
      <g>
       <use xlink:href="#mac5c6b5b34" x="869.130312" y="43.3985" style="fill-opacity: 0; stroke: #000000"/>
      </g>
     </g>
     <g id="text_17">
      <!-- 15 -->
      <g transform="translate(860.130312 287.15725) scale(0.18 -0.18)">
       <use xlink:href="#TimesNewRomanPSMT-31"/>
       <use xlink:href="#TimesNewRomanPSMT-35" x="50"/>
      </g>
     </g>
    </g>
    <g id="xtick_28">
     <g id="line2d_103">
      <g>
       <use xlink:href="#m5501e9436c" x="569.149513" y="265.1585" style="fill-opacity: 0; stroke: #000000"/>
      </g>
     </g>
     <g id="line2d_104">
      <g>
       <use xlink:href="#m99454939b6" x="569.149513" y="43.3985" style="fill-opacity: 0; stroke: #000000"/>
      </g>
     </g>
    </g>
    <g id="xtick_29">
     <g id="line2d_105">
      <g>
       <use xlink:href="#m5501e9436c" x="590.576712" y="265.1585" style="fill-opacity: 0; stroke: #000000"/>
      </g>
     </g>
     <g id="line2d_106">
      <g>
       <use xlink:href="#m99454939b6" x="590.576712" y="43.3985" style="fill-opacity: 0; stroke: #000000"/>
      </g>
     </g>
    </g>
    <g id="xtick_30">
     <g id="line2d_107">
      <g>
       <use xlink:href="#m5501e9436c" x="612.003913" y="265.1585" style="fill-opacity: 0; stroke: #000000"/>
      </g>
     </g>
     <g id="line2d_108">
      <g>
       <use xlink:href="#m99454939b6" x="612.003913" y="43.3985" style="fill-opacity: 0; stroke: #000000"/>
      </g>
     </g>
    </g>
    <g id="xtick_31">
     <g id="line2d_109">
      <g>
       <use xlink:href="#m5501e9436c" x="633.431113" y="265.1585" style="fill-opacity: 0; stroke: #000000"/>
      </g>
     </g>
     <g id="line2d_110">
      <g>
       <use xlink:href="#m99454939b6" x="633.431113" y="43.3985" style="fill-opacity: 0; stroke: #000000"/>
      </g>
     </g>
    </g>
    <g id="xtick_32">
     <g id="line2d_111">
      <g>
       <use xlink:href="#m5501e9436c" x="676.285512" y="265.1585" style="fill-opacity: 0; stroke: #000000"/>
      </g>
     </g>
     <g id="line2d_112">
      <g>
       <use xlink:href="#m99454939b6" x="676.285512" y="43.3985" style="fill-opacity: 0; stroke: #000000"/>
      </g>
     </g>
    </g>
    <g id="xtick_33">
     <g id="line2d_113">
      <g>
       <use xlink:href="#m5501e9436c" x="697.712712" y="265.1585" style="fill-opacity: 0; stroke: #000000"/>
      </g>
     </g>
     <g id="line2d_114">
      <g>
       <use xlink:href="#m99454939b6" x="697.712712" y="43.3985" style="fill-opacity: 0; stroke: #000000"/>
      </g>
     </g>
    </g>
    <g id="xtick_34">
     <g id="line2d_115">
      <g>
       <use xlink:href="#m5501e9436c" x="719.139913" y="265.1585" style="fill-opacity: 0; stroke: #000000"/>
      </g>
     </g>
     <g id="line2d_116">
      <g>
       <use xlink:href="#m99454939b6" x="719.139913" y="43.3985" style="fill-opacity: 0; stroke: #000000"/>
      </g>
     </g>
    </g>
    <g id="xtick_35">
     <g id="line2d_117">
      <g>
       <use xlink:href="#m5501e9436c" x="740.567113" y="265.1585" style="fill-opacity: 0; stroke: #000000"/>
      </g>
     </g>
     <g id="line2d_118">
      <g>
       <use xlink:href="#m99454939b6" x="740.567113" y="43.3985" style="fill-opacity: 0; stroke: #000000"/>
      </g>
     </g>
    </g>
    <g id="xtick_36">
     <g id="line2d_119">
      <g>
       <use xlink:href="#m5501e9436c" x="783.421512" y="265.1585" style="fill-opacity: 0; stroke: #000000"/>
      </g>
     </g>
     <g id="line2d_120">
      <g>
       <use xlink:href="#m99454939b6" x="783.421512" y="43.3985" style="fill-opacity: 0; stroke: #000000"/>
      </g>
     </g>
    </g>
    <g id="xtick_37">
     <g id="line2d_121">
      <g>
       <use xlink:href="#m5501e9436c" x="804.848712" y="265.1585" style="fill-opacity: 0; stroke: #000000"/>
      </g>
     </g>
     <g id="line2d_122">
      <g>
       <use xlink:href="#m99454939b6" x="804.848712" y="43.3985" style="fill-opacity: 0; stroke: #000000"/>
      </g>
     </g>
    </g>
    <g id="xtick_38">
     <g id="line2d_123">
      <g>
       <use xlink:href="#m5501e9436c" x="826.275913" y="265.1585" style="fill-opacity: 0; stroke: #000000"/>
      </g>
     </g>
     <g id="line2d_124">
      <g>
       <use xlink:href="#m99454939b6" x="826.275913" y="43.3985" style="fill-opacity: 0; stroke: #000000"/>
      </g>
     </g>
    </g>
    <g id="xtick_39">
     <g id="line2d_125">
      <g>
       <use xlink:href="#m5501e9436c" x="847.703112" y="265.1585" style="fill-opacity: 0; stroke: #000000"/>
      </g>
     </g>
     <g id="line2d_126">
      <g>
       <use xlink:href="#m99454939b6" x="847.703112" y="43.3985" style="fill-opacity: 0; stroke: #000000"/>
      </g>
     </g>
    </g>
    <g id="text_18">
     <!-- $x$ label -->
     <g transform="translate(684.666313 309.506312) scale(0.18 -0.18)">
      <use xlink:href="#TimesNewRomanPS-ItalicMT-78" transform="translate(0 0.5625)"/>
      <use xlink:href="#TimesNewRomanPSMT-20" transform="translate(44.384766 0.5625)"/>
      <use xlink:href="#TimesNewRomanPSMT-6c" transform="translate(69.384766 0.5625)"/>
      <use xlink:href="#TimesNewRomanPSMT-61" transform="translate(97.167969 0.5625)"/>
      <use xlink:href="#TimesNewRomanPSMT-62" transform="translate(141.552734 0.5625)"/>
      <use xlink:href="#TimesNewRomanPSMT-65" transform="translate(191.552734 0.5625)"/>
      <use xlink:href="#TimesNewRomanPSMT-6c" transform="translate(235.9375 0.5625)"/>
     </g>
    </g>
   </g>
   <g id="matplotlib.axis_4">
    <g id="ytick_24">
     <g id="line2d_127">
      <g>
       <use xlink:href="#m46068a88bd" x="547.722313" y="265.1585" style="fill-opacity: 0; stroke: #000000"/>
      </g>
     </g>
     <g id="line2d_128">
      <g>
       <use xlink:href="#m4fe035e340" x="869.130312" y="265.1585" style="fill-opacity: 0; stroke: #000000"/>
      </g>
     </g>
     <g id="text_19">
      <!-- −2 -->
      <g transform="translate(519.072 271.407875) scale(0.18 -0.18)">
       <use xlink:href="#TimesNewRomanPSMT-2212"/>
       <use xlink:href="#TimesNewRomanPSMT-32" x="56.396484"/>
      </g>
     </g>
    </g>
    <g id="ytick_25">
     <g id="line2d_129">
      <g>
       <use xlink:href="#m46068a88bd" x="547.722313" y="209.7185" style="fill-opacity: 0; stroke: #000000"/>
      </g>
     </g>
     <g id="line2d_130">
      <g>
       <use xlink:href="#m4fe035e340" x="869.130312" y="209.7185" style="fill-opacity: 0; stroke: #000000"/>
      </g>
     </g>
     <g id="text_20">
      <!-- −1 -->
      <g transform="translate(519.072 215.967875) scale(0.18 -0.18)">
       <use xlink:href="#TimesNewRomanPSMT-2212"/>
       <use xlink:href="#TimesNewRomanPSMT-31" x="56.396484"/>
      </g>
     </g>
    </g>
    <g id="ytick_26">
     <g id="line2d_131">
      <g>
       <use xlink:href="#m46068a88bd" x="547.722313" y="154.2785" style="fill-opacity: 0; stroke: #000000"/>
      </g>
     </g>
     <g id="line2d_132">
      <g>
       <use xlink:href="#m4fe035e340" x="869.130312" y="154.2785" style="fill-opacity: 0; stroke: #000000"/>
      </g>
     </g>
     <g id="text_21">
      <!-- 0 -->
      <g transform="translate(529.222313 160.527875) scale(0.18 -0.18)">
       <use xlink:href="#TimesNewRomanPSMT-30"/>
      </g>
     </g>
    </g>
    <g id="ytick_27">
     <g id="line2d_133">
      <g>
       <use xlink:href="#m46068a88bd" x="547.722313" y="98.8385" style="fill-opacity: 0; stroke: #000000"/>
      </g>
     </g>
     <g id="line2d_134">
      <g>
       <use xlink:href="#m4fe035e340" x="869.130312" y="98.8385" style="fill-opacity: 0; stroke: #000000"/>
      </g>
     </g>
     <g id="text_22">
      <!-- 1 -->
      <g transform="translate(529.222313 105.087875) scale(0.18 -0.18)">
       <use xlink:href="#TimesNewRomanPSMT-31"/>
      </g>
     </g>
    </g>
    <g id="ytick_28">
     <g id="line2d_135">
      <g>
       <use xlink:href="#m46068a88bd" x="547.722313" y="43.3985" style="fill-opacity: 0; stroke: #000000"/>
      </g>
     </g>
     <g id="line2d_136">
      <g>
       <use xlink:href="#m4fe035e340" x="869.130312" y="43.3985" style="fill-opacity: 0; stroke: #000000"/>
      </g>
     </g>
     <g id="text_23">
      <!-- 2 -->
      <g transform="translate(529.222313 49.647875) scale(0.18 -0.18)">
       <use xlink:href="#TimesNewRomanPSMT-32"/>
      </g>
     </g>
    </g>
    <g id="ytick_29">
     <g id="line2d_137">
      <g>
       <use xlink:href="#mf74b12f692" x="547.722313" y="254.0705" style="fill-opacity: 0; stroke: #000000"/>
      </g>
     </g>
     <g id="line2d_138">
      <g>
       <use xlink:href="#m17c3ba8c77" x="869.130312" y="254.0705" style="fill-opacity: 0; stroke: #000000"/>
      </g>
     </g>
    </g>
    <g id="ytick_30">
     <g id="line2d_139">
      <g>
       <use xlink:href="#mf74b12f692" x="547.722313" y="242.9825" style="fill-opacity: 0; stroke: #000000"/>
      </g>
     </g>
     <g id="line2d_140">
      <g>
       <use xlink:href="#m17c3ba8c77" x="869.130312" y="242.9825" style="fill-opacity: 0; stroke: #000000"/>
      </g>
     </g>
    </g>
    <g id="ytick_31">
     <g id="line2d_141">
      <g>
       <use xlink:href="#mf74b12f692" x="547.722313" y="231.8945" style="fill-opacity: 0; stroke: #000000"/>
      </g>
     </g>
     <g id="line2d_142">
      <g>
       <use xlink:href="#m17c3ba8c77" x="869.130312" y="231.8945" style="fill-opacity: 0; stroke: #000000"/>
      </g>
     </g>
    </g>
    <g id="ytick_32">
     <g id="line2d_143">
      <g>
       <use xlink:href="#mf74b12f692" x="547.722313" y="220.8065" style="fill-opacity: 0; stroke: #000000"/>
      </g>
     </g>
     <g id="line2d_144">
      <g>
       <use xlink:href="#m17c3ba8c77" x="869.130312" y="220.8065" style="fill-opacity: 0; stroke: #000000"/>
      </g>
     </g>
    </g>
    <g id="ytick_33">
     <g id="line2d_145">
      <g>
       <use xlink:href="#mf74b12f692" x="547.722313" y="198.6305" style="fill-opacity: 0; stroke: #000000"/>
      </g>
     </g>
     <g id="line2d_146">
      <g>
       <use xlink:href="#m17c3ba8c77" x="869.130312" y="198.6305" style="fill-opacity: 0; stroke: #000000"/>
      </g>
     </g>
    </g>
    <g id="ytick_34">
     <g id="line2d_147">
      <g>
       <use xlink:href="#mf74b12f692" x="547.722313" y="187.5425" style="fill-opacity: 0; stroke: #000000"/>
      </g>
     </g>
     <g id="line2d_148">
      <g>
       <use xlink:href="#m17c3ba8c77" x="869.130312" y="187.5425" style="fill-opacity: 0; stroke: #000000"/>
      </g>
     </g>
    </g>
    <g id="ytick_35">
     <g id="line2d_149">
      <g>
       <use xlink:href="#mf74b12f692" x="547.722313" y="176.4545" style="fill-opacity: 0; stroke: #000000"/>
      </g>
     </g>
     <g id="line2d_150">
      <g>
       <use xlink:href="#m17c3ba8c77" x="869.130312" y="176.4545" style="fill-opacity: 0; stroke: #000000"/>
      </g>
     </g>
    </g>
    <g id="ytick_36">
     <g id="line2d_151">
      <g>
       <use xlink:href="#mf74b12f692" x="547.722313" y="165.3665" style="fill-opacity: 0; stroke: #000000"/>
      </g>
     </g>
     <g id="line2d_152">
      <g>
       <use xlink:href="#m17c3ba8c77" x="869.130312" y="165.3665" style="fill-opacity: 0; stroke: #000000"/>
      </g>
     </g>
    </g>
    <g id="ytick_37">
     <g id="line2d_153">
      <g>
       <use xlink:href="#mf74b12f692" x="547.722313" y="143.1905" style="fill-opacity: 0; stroke: #000000"/>
      </g>
     </g>
     <g id="line2d_154">
      <g>
       <use xlink:href="#m17c3ba8c77" x="869.130312" y="143.1905" style="fill-opacity: 0; stroke: #000000"/>
      </g>
     </g>
    </g>
    <g id="ytick_38">
     <g id="line2d_155">
      <g>
       <use xlink:href="#mf74b12f692" x="547.722313" y="132.1025" style="fill-opacity: 0; stroke: #000000"/>
      </g>
     </g>
     <g id="line2d_156">
      <g>
       <use xlink:href="#m17c3ba8c77" x="869.130312" y="132.1025" style="fill-opacity: 0; stroke: #000000"/>
      </g>
     </g>
    </g>
    <g id="ytick_39">
     <g id="line2d_157">
      <g>
       <use xlink:href="#mf74b12f692" x="547.722313" y="121.0145" style="fill-opacity: 0; stroke: #000000"/>
      </g>
     </g>
     <g id="line2d_158">
      <g>
       <use xlink:href="#m17c3ba8c77" x="869.130312" y="121.0145" style="fill-opacity: 0; stroke: #000000"/>
      </g>
     </g>
    </g>
    <g id="ytick_40">
     <g id="line2d_159">
      <g>
       <use xlink:href="#mf74b12f692" x="547.722313" y="109.9265" style="fill-opacity: 0; stroke: #000000"/>
      </g>
     </g>
     <g id="line2d_160">
      <g>
       <use xlink:href="#m17c3ba8c77" x="869.130312" y="109.9265" style="fill-opacity: 0; stroke: #000000"/>
      </g>
     </g>
    </g>
    <g id="ytick_41">
     <g id="line2d_161">
      <g>
       <use xlink:href="#mf74b12f692" x="547.722313" y="87.7505" style="fill-opacity: 0; stroke: #000000"/>
      </g>
     </g>
     <g id="line2d_162">
      <g>
       <use xlink:href="#m17c3ba8c77" x="869.130312" y="87.7505" style="fill-opacity: 0; stroke: #000000"/>
      </g>
     </g>
    </g>
    <g id="ytick_42">
     <g id="line2d_163">
      <g>
       <use xlink:href="#mf74b12f692" x="547.722313" y="76.6625" style="fill-opacity: 0; stroke: #000000"/>
      </g>
     </g>
     <g id="line2d_164">
      <g>
       <use xlink:href="#m17c3ba8c77" x="869.130312" y="76.6625" style="fill-opacity: 0; stroke: #000000"/>
      </g>
     </g>
    </g>
    <g id="ytick_43">
     <g id="line2d_165">
      <g>
       <use xlink:href="#mf74b12f692" x="547.722313" y="65.5745" style="fill-opacity: 0; stroke: #000000"/>
      </g>
     </g>
     <g id="line2d_166">
      <g>
       <use xlink:href="#m17c3ba8c77" x="869.130312" y="65.5745" style="fill-opacity: 0; stroke: #000000"/>
      </g>
     </g>
    </g>
    <g id="ytick_44">
     <g id="line2d_167">
      <g>
       <use xlink:href="#mf74b12f692" x="547.722313" y="54.4865" style="fill-opacity: 0; stroke: #000000"/>
      </g>
     </g>
     <g id="line2d_168">
      <g>
       <use xlink:href="#m17c3ba8c77" x="869.130312" y="54.4865" style="fill-opacity: 0; stroke: #000000"/>
      </g>
     </g>
    </g>
    <g id="text_24">
     <!-- $\cos(x)$ -->
     <g transform="translate(509.112 176.3285) rotate(-90) scale(0.18 -0.18)">
      <defs>
       <path id="TimesNewRomanPSMT-63" d="M 2631 1088 
Q 2516 522 2178 217 
Q 1841 -88 1431 -88 
Q 944 -88 581 321 
Q 219 731 219 1428 
Q 219 2103 620 2525 
Q 1022 2947 1584 2947 
Q 2006 2947 2278 2723 
Q 2550 2500 2550 2259 
Q 2550 2141 2473 2067 
Q 2397 1994 2259 1994 
Q 2075 1994 1981 2113 
Q 1928 2178 1911 2362 
Q 1894 2547 1784 2644 
Q 1675 2738 1481 2738 
Q 1169 2738 978 2506 
Q 725 2200 725 1697 
Q 725 1184 976 792 
Q 1228 400 1656 400 
Q 1963 400 2206 609 
Q 2378 753 2541 1131 
L 2631 1088 
z
" transform="scale(0.015625)"/>
       <path id="TimesNewRomanPSMT-6f" d="M 1600 2947 
Q 2250 2947 2644 2453 
Q 2978 2031 2978 1484 
Q 2978 1100 2793 706 
Q 2609 313 2286 112 
Q 1963 -88 1566 -88 
Q 919 -88 538 428 
Q 216 863 216 1403 
Q 216 1797 411 2186 
Q 606 2575 925 2761 
Q 1244 2947 1600 2947 
z
M 1503 2744 
Q 1338 2744 1170 2645 
Q 1003 2547 900 2300 
Q 797 2053 797 1666 
Q 797 1041 1045 587 
Q 1294 134 1700 134 
Q 2003 134 2200 384 
Q 2397 634 2397 1244 
Q 2397 2006 2069 2444 
Q 1847 2744 1503 2744 
z
" transform="scale(0.015625)"/>
      </defs>
      <use xlink:href="#TimesNewRomanPSMT-63" transform="translate(0 0.5625)"/>
      <use xlink:href="#TimesNewRomanPSMT-6f" transform="translate(44.384766 0.5625)"/>
      <use xlink:href="#TimesNewRomanPSMT-73" transform="translate(94.384766 0.5625)"/>
      <use xlink:href="#TimesNewRomanPSMT-28" transform="translate(133.300781 0.5625)"/>
      <use xlink:href="#TimesNewRomanPS-ItalicMT-78" transform="translate(166.601562 0.5625)"/>
      <use xlink:href="#TimesNewRomanPSMT-29" transform="translate(210.986328 0.5625)"/>
     </g>
    </g>
   </g>
   <g id="line2d_169">
    <path d="M 547.722313 154.2785 
L 554.592757 136.805186 
L 558.02798 128.630172 
L 561.033799 122.009873 
L 563.610216 116.835306 
L 566.186633 112.201432 
L 568.333647 108.801433 
L 570.480661 105.857648 
L 572.198272 103.851099 
L 573.915884 102.168408 
L 575.633495 100.82038 
L 577.351106 99.815673 
L 578.639315 99.291412 
L 579.927523 98.965839 
L 581.215731 98.840131 
L 582.50394 98.914741 
L 583.792148 99.1894 
L 585.080357 99.663115 
L 586.368565 100.334175 
L 588.086176 101.53161 
L 589.803787 103.067798 
L 591.521399 104.932874 
L 593.23901 107.114858 
L 595.386024 110.266458 
L 597.533038 113.859574 
L 599.680052 117.858161 
L 602.256469 123.134947 
L 605.262288 129.853877 
L 608.697511 138.112081 
L 613.420942 150.098945 
L 622.008998 171.998905 
L 625.44422 180.157547 
L 628.45004 186.758649 
L 631.026457 191.913438 
L 633.173471 195.79688 
L 635.320485 199.263822 
L 637.467499 202.279483 
L 639.18511 204.346601 
L 640.902721 206.09217 
L 642.620333 207.504978 
L 644.337944 208.575954 
L 645.626152 209.150636 
L 646.914361 209.527046 
L 648.202569 209.703824 
L 649.490777 209.68033 
L 650.778986 209.456649 
L 652.067194 209.03359 
L 653.355403 208.412682 
L 654.643611 207.596168 
L 656.361222 206.208406 
L 658.078834 204.487138 
L 659.796445 202.443418 
L 661.514056 200.090372 
L 663.66107 196.737277 
L 665.808084 192.958247 
L 668.384501 187.914834 
L 670.960918 182.3857 
L 673.966737 175.428002 
L 677.831363 165.891957 
L 692.431058 129.154584 
L 695.436878 122.491366 
L 698.013294 117.272445 
L 700.589711 112.587904 
L 702.736725 109.141386 
L 704.883739 106.147672 
L 706.601351 104.09906 
L 708.318962 102.372713 
L 710.036573 100.979718 
L 711.754184 99.929019 
L 713.042393 99.369771 
L 714.330601 99.008928 
L 715.618809 98.847793 
L 716.907018 98.886949 
L 718.195226 99.126255 
L 719.483435 99.564845 
L 720.771643 100.201135 
L 722.489254 101.352979 
L 724.206866 102.844723 
L 725.924477 104.666787 
L 727.642088 106.80747 
L 729.789102 109.910247 
L 731.936116 113.458115 
L 734.08313 117.415482 
L 736.659547 122.648697 
L 739.665367 129.325708 
L 743.100589 137.54875 
L 747.82402 149.510978 
L 756.841479 172.491905 
L 760.276701 180.617266 
L 761.994312 184.43903 
L 761.994312 184.43903 
" clip-path="url(#p7edd293899)" style="fill: none; stroke: #000000; stroke-width: 2"/>
   </g>
   <g id="line2d_170">
    <path d="M 547.722313 98.8385 
L 549.010521 98.938662 
L 550.298729 99.238787 
L 551.586938 99.73779 
L 552.875146 100.433867 
L 554.592757 101.664083 
L 556.310369 103.232201 
L 558.02798 105.12815 
L 559.745591 107.339755 
L 561.892605 110.526327 
L 564.039619 114.151809 
L 566.186633 118.179831 
L 568.76305 123.487654 
L 571.76887 130.236329 
L 575.204092 138.519301 
L 580.356926 151.632233 
L 588.086176 171.347748 
L 591.521399 179.549091 
L 594.527218 186.200404 
L 597.103635 191.407003 
L 599.680052 196.077454 
L 601.827066 199.511025 
L 603.97408 202.490836 
L 605.691691 204.527729 
L 607.409302 206.241909 
L 609.126914 207.622368 
L 610.844525 208.66024 
L 612.132733 209.209728 
L 613.420942 209.56073 
L 614.70915 209.711977 
L 615.997359 209.662924 
L 617.285567 209.413747 
L 618.573775 208.965346 
L 619.861984 208.319343 
L 621.579595 207.154759 
L 623.297206 205.650592 
L 625.014818 203.8165 
L 626.732429 201.664264 
L 628.879443 198.547823 
L 631.026457 194.987284 
L 633.173471 191.018365 
L 635.749888 185.772927 
L 638.755707 179.084139 
L 642.19093 170.851188 
L 646.914361 158.881946 
L 655.93182 135.90965 
L 659.367042 127.794956 
L 662.372862 121.245075 
L 664.949278 116.142886 
L 667.096292 112.308835 
L 669.243306 108.895812 
L 671.390321 105.938056 
L 673.107932 103.919743 
L 674.825543 102.224846 
L 676.543154 100.86425 
L 678.260765 99.846693 
L 679.548974 99.312659 
L 680.837182 98.977237 
L 682.125391 98.841638 
L 683.413599 98.906352 
L 684.701807 99.171145 
L 685.990016 99.635061 
L 687.278224 100.296423 
L 688.995836 101.481145 
L 690.713447 103.004944 
L 692.431058 104.858034 
L 694.148669 107.028514 
L 696.295683 110.166521 
L 698.442697 113.747047 
L 700.589711 117.734173 
L 703.166128 122.998857 
L 706.171948 129.706161 
L 709.60717 137.954644 
L 714.330601 149.934768 
L 722.918657 171.8428 
L 726.35388 180.01181 
L 729.359699 186.62506 
L 731.936116 191.792361 
L 734.512533 196.417948 
L 736.659547 199.810348 
L 738.806561 202.745985 
L 740.524172 204.745673 
L 742.241783 206.421249 
L 743.959395 207.761952 
L 745.677006 208.759172 
L 746.965214 209.277739 
L 748.253423 209.597574 
L 749.541631 209.717522 
L 750.82984 209.637149 
L 752.118048 209.356745 
L 753.406256 208.877324 
L 754.694465 208.200619 
L 756.412076 206.995785 
L 758.129687 205.452388 
L 759.847298 203.58034 
L 761.56491 201.391664 
L 761.994312 200.796626 
L 761.994312 200.796626 
" clip-path="url(#p7edd293899)" style="fill: none; stroke: #ff0000; stroke-width: 2"/>
   </g>
   <g id="patch_8">
    <path d="M 547.722313 265.1585 
L 547.722313 43.3985 
" style="fill: none; stroke: #000000; stroke-linejoin: miter; stroke-linecap: square"/>
   </g>
   <g id="patch_9">
    <path d="M 869.130312 265.1585 
L 869.130312 43.3985 
" style="fill: none; stroke: #000000; stroke-linejoin: miter; stroke-linecap: square"/>
   </g>
   <g id="patch_10">
    <path d="M 547.722313 265.1585 
L 869.130312 265.1585 
" style="fill: none; stroke: #000000; stroke-linejoin: miter; stroke-linecap: square"/>
   </g>
   <g id="patch_11">
    <path d="M 547.722313 43.3985 
L 869.130312 43.3985 
" style="fill: none; stroke: #000000; stroke-linejoin: miter; stroke-linecap: square"/>
   </g>
   <g id="text_25">
    <!-- title 2 -->
    <g transform="translate(683.530625 29.3985) scale(0.216 -0.216)">
     <use xlink:href="#TimesNewRomanPSMT-74"/>
     <use xlink:href="#TimesNewRomanPSMT-69" x="27.783203"/>
     <use xlink:href="#TimesNewRomanPSMT-74" x="55.566406"/>
     <use xlink:href="#TimesNewRomanPSMT-6c" x="83.349609"/>
     <use xlink:href="#TimesNewRomanPSMT-65" x="111.132812"/>
     <use xlink:href="#TimesNewRomanPSMT-20" x="155.517578"/>
     <use xlink:href="#TimesNewRomanPSMT-32" x="180.517578"/>
    </g>
   </g>
   <g id="legend_1">
    <g id="text_26">
     <!-- lgd title -->
     <g transform="translate(893.133594 83.18525) scale(0.18 -0.18)">
      <defs>
       <path id="TimesNewRomanPSMT-67" d="M 966 1044 
Q 703 1172 562 1401 
Q 422 1631 422 1909 
Q 422 2334 742 2640 
Q 1063 2947 1563 2947 
Q 1972 2947 2272 2747 
L 2878 2747 
Q 3013 2747 3034 2739 
Q 3056 2731 3066 2713 
Q 3084 2684 3084 2613 
Q 3084 2531 3069 2500 
Q 3059 2484 3036 2475 
Q 3013 2466 2878 2466 
L 2506 2466 
Q 2681 2241 2681 1891 
Q 2681 1491 2375 1206 
Q 2069 922 1553 922 
Q 1341 922 1119 984 
Q 981 866 932 777 
Q 884 688 884 625 
Q 884 572 936 522 
Q 988 472 1138 450 
Q 1225 438 1575 428 
Q 2219 413 2409 384 
Q 2700 344 2873 169 
Q 3047 -6 3047 -263 
Q 3047 -616 2716 -925 
Q 2228 -1381 1444 -1381 
Q 841 -1381 425 -1109 
Q 191 -953 191 -784 
Q 191 -709 225 -634 
Q 278 -519 444 -313 
Q 466 -284 763 25 
Q 600 122 533 198 
Q 466 275 466 372 
Q 466 481 555 628 
Q 644 775 966 1044 
z
M 1509 2797 
Q 1278 2797 1122 2612 
Q 966 2428 966 2047 
Q 966 1553 1178 1281 
Q 1341 1075 1591 1075 
Q 1828 1075 1981 1253 
Q 2134 1431 2134 1813 
Q 2134 2309 1919 2591 
Q 1759 2797 1509 2797 
z
M 934 0 
Q 788 -159 713 -296 
Q 638 -434 638 -550 
Q 638 -700 819 -813 
Q 1131 -1006 1722 -1006 
Q 2284 -1006 2551 -807 
Q 2819 -609 2819 -384 
Q 2819 -222 2659 -153 
Q 2497 -84 2016 -72 
Q 1313 -53 934 0 
z
" transform="scale(0.015625)"/>
       <path id="TimesNewRomanPSMT-64" d="M 2222 322 
Q 2013 103 1813 7 
Q 1613 -88 1381 -88 
Q 913 -88 563 304 
Q 213 697 213 1313 
Q 213 1928 600 2439 
Q 988 2950 1597 2950 
Q 1975 2950 2222 2709 
L 2222 3238 
Q 2222 3728 2198 3840 
Q 2175 3953 2125 3993 
Q 2075 4034 2000 4034 
Q 1919 4034 1784 3984 
L 1744 4094 
L 2597 4444 
L 2738 4444 
L 2738 1134 
Q 2738 631 2761 520 
Q 2784 409 2836 365 
Q 2888 322 2956 322 
Q 3041 322 3181 375 
L 3216 266 
L 2366 -88 
L 2222 -88 
L 2222 322 
z
M 2222 541 
L 2222 2016 
Q 2203 2228 2109 2403 
Q 2016 2578 1861 2667 
Q 1706 2756 1559 2756 
Q 1284 2756 1069 2509 
Q 784 2184 784 1559 
Q 784 928 1059 592 
Q 1334 256 1672 256 
Q 1956 256 2222 541 
z
" transform="scale(0.015625)"/>
      </defs>
      <use xlink:href="#TimesNewRomanPSMT-6c"/>
      <use xlink:href="#TimesNewRomanPSMT-67" x="27.783203"/>
      <use xlink:href="#TimesNewRomanPSMT-64" x="77.783203"/>
      <use xlink:href="#TimesNewRomanPSMT-20" x="127.783203"/>
      <use xlink:href="#TimesNewRomanPSMT-74" x="152.783203"/>
      <use xlink:href="#TimesNewRomanPSMT-69" x="180.566406"/>
      <use xlink:href="#TimesNewRomanPSMT-74" x="208.349609"/>
      <use xlink:href="#TimesNewRomanPSMT-6c" x="236.132812"/>
      <use xlink:href="#TimesNewRomanPSMT-65" x="263.916016"/>
     </g>
    </g>
    <g id="line2d_171">
     <path d="M 885.330312 96.969313 
L 895.230312 96.969313 
L 905.130312 96.969313 
" style="fill: none; stroke: #000000; stroke-width: 2"/>
    </g>
    <g id="text_27">
     <!-- $\sin(x)$ -->
     <g transform="translate(912.330312 103.269313) scale(0.18 -0.18)">
      <use xlink:href="#TimesNewRomanPSMT-73" transform="translate(0 0.5625)"/>
      <use xlink:href="#TimesNewRomanPSMT-69" transform="translate(38.916016 0.5625)"/>
      <use xlink:href="#TimesNewRomanPSMT-6e" transform="translate(66.699219 0.5625)"/>
      <use xlink:href="#TimesNewRomanPSMT-28" transform="translate(116.699219 0.5625)"/>
      <use xlink:href="#TimesNewRomanPS-ItalicMT-78" transform="translate(150 0.5625)"/>
      <use xlink:href="#TimesNewRomanPSMT-29" transform="translate(194.384766 0.5625)"/>
     </g>
    </g>
    <g id="line2d_172">
     <path d="M 885.330312 117.129313 
L 895.230312 117.129313 
L 905.130312 117.129313 
" style="fill: none; stroke: #ff0000; stroke-width: 2"/>
    </g>
    <g id="text_28">
     <!-- $\cos(x)$ -->
     <g transform="translate(912.330312 123.429313) scale(0.18 -0.18)">
      <use xlink:href="#TimesNewRomanPSMT-63" transform="translate(0 0.5625)"/>
      <use xlink:href="#TimesNewRomanPSMT-6f" transform="translate(44.384766 0.5625)"/>
      <use xlink:href="#TimesNewRomanPSMT-73" transform="translate(94.384766 0.5625)"/>
      <use xlink:href="#TimesNewRomanPSMT-28" transform="translate(133.300781 0.5625)"/>
      <use xlink:href="#TimesNewRomanPS-ItalicMT-78" transform="translate(166.601562 0.5625)"/>
      <use xlink:href="#TimesNewRomanPSMT-29" transform="translate(210.986328 0.5625)"/>
     </g>
    </g>
   </g>
  </g>
 </g>
 <defs>
  <clipPath id="p9c3d30b8f3">
   <rect x="65.610313" y="43.3985" width="321.408" height="221.76"/>
  </clipPath>
  <clipPath id="p7edd293899">
   <rect x="547.722313" y="43.3985" width="321.408" height="221.76"/>
  </clipPath>
 </defs>
</svg>
