<?xml version="1.0" encoding="utf-8" standalone="no"?>
<!DOCTYPE svg PUBLIC "-//W3C//DTD SVG 1.1//EN"
  "http://www.w3.org/Graphics/SVG/1.1/DTD/svg11.dtd">
<svg xmlns:xlink="http://www.w3.org/1999/xlink" width="345.62pt" height="282.409063pt" viewBox="0 0 345.62 282.409063" xmlns="http://www.w3.org/2000/svg" version="1.1">
 <metadata>
  <rdf:RDF xmlns:dc="http://purl.org/dc/elements/1.1/" xmlns:cc="http://creativecommons.org/ns#" xmlns:rdf="http://www.w3.org/1999/02/22-rdf-syntax-ns#">
   <cc:Work>
    <dc:type rdf:resource="http://purl.org/dc/dcmitype/StillImage"/>
    <dc:date>2024-12-03T18:57:35.258723</dc:date>
    <dc:format>image/svg+xml</dc:format>
    <dc:creator>
     <cc:Agent>
      <dc:title>Matplotlib v3.9.2, https://matplotlib.org/</dc:title>
     </cc:Agent>
    </dc:creator>
   </cc:Work>
  </rdf:RDF>
 </metadata>
 <defs>
  <style type="text/css">*{stroke-linejoin: round; stroke-linecap: butt}</style>
 </defs>
 <g id="figure_1">
  <g id="patch_1">
   <path d="M 0 282.409063 
L 345.62 282.409063 
L 345.62 0 
L 0 0 
z
" style="fill: #ffffff"/>
  </g>
  <g id="axes_1">
   <g id="patch_2">
    <path d="M 57.38 242.16 
L 325.22 242.16 
L 325.22 20.4 
L 57.38 20.4 
z
" style="fill: #ffffff"/>
   </g>
   <g id="matplotlib.axis_1">
    <g id="xtick_1">
     <g id="line2d_1">
      <defs>
       <path id="mda6d53b26c" d="M 0 0 
L 0 6 
" style="stroke: #000000"/>
      </defs>
      <g>
       <use xlink:href="#mda6d53b26c" x="69.554545" y="242.16" style="fill-opacity: 0; stroke: #000000"/>
      </g>
     </g>
     <g id="line2d_2">
      <defs>
       <path id="mbbb7e0f192" d="M 0 0 
L 0 -6 
" style="stroke: #000000"/>
      </defs>
      <g>
       <use xlink:href="#mbbb7e0f192" x="69.554545" y="20.4" style="fill-opacity: 0; stroke: #000000"/>
      </g>
     </g>
     <g id="text_1">
      <!-- 0 -->
      <g transform="translate(65.054545 264.15875) scale(0.18 -0.18)">
       <defs>
        <path id="TimesNewRomanPSMT-30" d="M 231 2094 
Q 231 2819 450 3342 
Q 669 3866 1031 4122 
Q 1313 4325 1613 4325 
Q 2100 4325 2488 3828 
Q 2972 3213 2972 2159 
Q 2972 1422 2759 906 
Q 2547 391 2217 158 
Q 1888 -75 1581 -75 
Q 975 -75 572 641 
Q 231 1244 231 2094 
z
M 844 2016 
Q 844 1141 1059 588 
Q 1238 122 1591 122 
Q 1759 122 1940 273 
Q 2122 425 2216 781 
Q 2359 1319 2359 2297 
Q 2359 3022 2209 3506 
Q 2097 3866 1919 4016 
Q 1791 4119 1609 4119 
Q 1397 4119 1231 3928 
Q 1006 3669 925 3112 
Q 844 2556 844 2016 
z
" transform="scale(0.015625)"/>
       </defs>
       <use xlink:href="#TimesNewRomanPSMT-30"/>
      </g>
     </g>
    </g>
    <g id="xtick_2">
     <g id="line2d_3">
      <g>
       <use xlink:href="#mda6d53b26c" x="191.3" y="242.16" style="fill-opacity: 0; stroke: #000000"/>
      </g>
     </g>
     <g id="line2d_4">
      <g>
       <use xlink:href="#mbbb7e0f192" x="191.3" y="20.4" style="fill-opacity: 0; stroke: #000000"/>
      </g>
     </g>
     <g id="text_2">
      <!-- 50 -->
      <g transform="translate(182.3 264.15875) scale(0.18 -0.18)">
       <defs>
        <path id="TimesNewRomanPSMT-35" d="M 2778 4238 
L 2534 3706 
L 1259 3706 
L 981 3138 
Q 1809 3016 2294 2522 
Q 2709 2097 2709 1522 
Q 2709 1188 2573 903 
Q 2438 619 2231 419 
Q 2025 219 1772 97 
Q 1413 -75 1034 -75 
Q 653 -75 479 54 
Q 306 184 306 341 
Q 306 428 378 495 
Q 450 563 559 563 
Q 641 563 702 538 
Q 763 513 909 409 
Q 1144 247 1384 247 
Q 1750 247 2026 523 
Q 2303 800 2303 1197 
Q 2303 1581 2056 1914 
Q 1809 2247 1375 2428 
Q 1034 2569 447 2591 
L 1259 4238 
L 2778 4238 
z
" transform="scale(0.015625)"/>
       </defs>
       <use xlink:href="#TimesNewRomanPSMT-35"/>
       <use xlink:href="#TimesNewRomanPSMT-30" x="50"/>
      </g>
     </g>
    </g>
    <g id="xtick_3">
     <g id="line2d_5">
      <g>
       <use xlink:href="#mda6d53b26c" x="313.045455" y="242.16" style="fill-opacity: 0; stroke: #000000"/>
      </g>
     </g>
     <g id="line2d_6">
      <g>
       <use xlink:href="#mbbb7e0f192" x="313.045455" y="20.4" style="fill-opacity: 0; stroke: #000000"/>
      </g>
     </g>
     <g id="text_3">
      <!-- 100 -->
      <g transform="translate(299.545455 264.15875) scale(0.18 -0.18)">
       <defs>
        <path id="TimesNewRomanPSMT-31" d="M 750 3822 
L 1781 4325 
L 1884 4325 
L 1884 747 
Q 1884 391 1914 303 
Q 1944 216 2037 169 
Q 2131 122 2419 116 
L 2419 0 
L 825 0 
L 825 116 
Q 1125 122 1212 167 
Q 1300 213 1334 289 
Q 1369 366 1369 747 
L 1369 3034 
Q 1369 3497 1338 3628 
Q 1316 3728 1258 3775 
Q 1200 3822 1119 3822 
Q 1003 3822 797 3725 
L 750 3822 
z
" transform="scale(0.015625)"/>
       </defs>
       <use xlink:href="#TimesNewRomanPSMT-31"/>
       <use xlink:href="#TimesNewRomanPSMT-30" x="50"/>
       <use xlink:href="#TimesNewRomanPSMT-30" x="100"/>
      </g>
     </g>
    </g>
    <g id="xtick_4">
     <g id="line2d_7">
      <defs>
       <path id="m04a713c251" d="M 0 0 
L 0 3 
" style="stroke: #000000"/>
      </defs>
      <g>
       <use xlink:href="#m04a713c251" x="93.903636" y="242.16" style="fill-opacity: 0; stroke: #000000"/>
      </g>
     </g>
     <g id="line2d_8">
      <defs>
       <path id="m98bde91229" d="M 0 0 
L 0 -3 
" style="stroke: #000000"/>
      </defs>
      <g>
       <use xlink:href="#m98bde91229" x="93.903636" y="20.4" style="fill-opacity: 0; stroke: #000000"/>
      </g>
     </g>
    </g>
    <g id="xtick_5">
     <g id="line2d_9">
      <g>
       <use xlink:href="#m04a713c251" x="118.252727" y="242.16" style="fill-opacity: 0; stroke: #000000"/>
      </g>
     </g>
     <g id="line2d_10">
      <g>
       <use xlink:href="#m98bde91229" x="118.252727" y="20.4" style="fill-opacity: 0; stroke: #000000"/>
      </g>
     </g>
    </g>
    <g id="xtick_6">
     <g id="line2d_11">
      <g>
       <use xlink:href="#m04a713c251" x="142.601818" y="242.16" style="fill-opacity: 0; stroke: #000000"/>
      </g>
     </g>
     <g id="line2d_12">
      <g>
       <use xlink:href="#m98bde91229" x="142.601818" y="20.4" style="fill-opacity: 0; stroke: #000000"/>
      </g>
     </g>
    </g>
    <g id="xtick_7">
     <g id="line2d_13">
      <g>
       <use xlink:href="#m04a713c251" x="166.950909" y="242.16" style="fill-opacity: 0; stroke: #000000"/>
      </g>
     </g>
     <g id="line2d_14">
      <g>
       <use xlink:href="#m98bde91229" x="166.950909" y="20.4" style="fill-opacity: 0; stroke: #000000"/>
      </g>
     </g>
    </g>
    <g id="xtick_8">
     <g id="line2d_15">
      <g>
       <use xlink:href="#m04a713c251" x="215.649091" y="242.16" style="fill-opacity: 0; stroke: #000000"/>
      </g>
     </g>
     <g id="line2d_16">
      <g>
       <use xlink:href="#m98bde91229" x="215.649091" y="20.4" style="fill-opacity: 0; stroke: #000000"/>
      </g>
     </g>
    </g>
    <g id="xtick_9">
     <g id="line2d_17">
      <g>
       <use xlink:href="#m04a713c251" x="239.998182" y="242.16" style="fill-opacity: 0; stroke: #000000"/>
      </g>
     </g>
     <g id="line2d_18">
      <g>
       <use xlink:href="#m98bde91229" x="239.998182" y="20.4" style="fill-opacity: 0; stroke: #000000"/>
      </g>
     </g>
    </g>
    <g id="xtick_10">
     <g id="line2d_19">
      <g>
       <use xlink:href="#m04a713c251" x="264.347273" y="242.16" style="fill-opacity: 0; stroke: #000000"/>
      </g>
     </g>
     <g id="line2d_20">
      <g>
       <use xlink:href="#m98bde91229" x="264.347273" y="20.4" style="fill-opacity: 0; stroke: #000000"/>
      </g>
     </g>
    </g>
    <g id="xtick_11">
     <g id="line2d_21">
      <g>
       <use xlink:href="#m04a713c251" x="288.696364" y="242.16" style="fill-opacity: 0; stroke: #000000"/>
      </g>
     </g>
     <g id="line2d_22">
      <g>
       <use xlink:href="#m98bde91229" x="288.696364" y="20.4" style="fill-opacity: 0; stroke: #000000"/>
      </g>
     </g>
    </g>
   </g>
   <g id="matplotlib.axis_2">
    <g id="ytick_1">
     <g id="line2d_23">
      <defs>
       <path id="m91fc25cba4" d="M 0 0 
L -6 0 
" style="stroke: #000000"/>
      </defs>
      <g>
       <use xlink:href="#m91fc25cba4" x="57.38" y="232.08" style="fill-opacity: 0; stroke: #000000"/>
      </g>
     </g>
     <g id="line2d_24">
      <defs>
       <path id="mdb497802b2" d="M 0 0 
L 6 0 
" style="stroke: #000000"/>
      </defs>
      <g>
       <use xlink:href="#mdb497802b2" x="325.22" y="232.08" style="fill-opacity: 0; stroke: #000000"/>
      </g>
     </g>
     <g id="text_4">
      <!-- $\mathdefault{10^{-6}}$ -->
      <g transform="translate(14.4 238.329375) scale(0.18 -0.18)">
       <defs>
        <path id="TimesNewRomanPSMT-2212" d="M 3484 2000 
L 116 2000 
L 116 2256 
L 3484 2256 
L 3484 2000 
z
" transform="scale(0.015625)"/>
        <path id="TimesNewRomanPSMT-36" d="M 2869 4325 
L 2869 4209 
Q 2456 4169 2195 4045 
Q 1934 3922 1679 3669 
Q 1425 3416 1258 3105 
Q 1091 2794 978 2366 
Q 1428 2675 1881 2675 
Q 2316 2675 2634 2325 
Q 2953 1975 2953 1425 
Q 2953 894 2631 456 
Q 2244 -75 1606 -75 
Q 1172 -75 869 213 
Q 275 772 275 1663 
Q 275 2231 503 2743 
Q 731 3256 1154 3653 
Q 1578 4050 1965 4187 
Q 2353 4325 2688 4325 
L 2869 4325 
z
M 925 2138 
Q 869 1716 869 1456 
Q 869 1156 980 804 
Q 1091 453 1309 247 
Q 1469 100 1697 100 
Q 1969 100 2183 356 
Q 2397 613 2397 1088 
Q 2397 1622 2184 2012 
Q 1972 2403 1581 2403 
Q 1463 2403 1327 2353 
Q 1191 2303 925 2138 
z
" transform="scale(0.015625)"/>
       </defs>
       <use xlink:href="#TimesNewRomanPSMT-31" transform="translate(0 0.051562)"/>
       <use xlink:href="#TimesNewRomanPSMT-30" transform="translate(50 0.051562)"/>
       <use xlink:href="#TimesNewRomanPSMT-2212" transform="translate(104.508437 38.695312) scale(0.7)"/>
       <use xlink:href="#TimesNewRomanPSMT-36" transform="translate(143.985977 38.695312) scale(0.7)"/>
      </g>
     </g>
    </g>
    <g id="ytick_2">
     <g id="line2d_25">
      <g>
       <use xlink:href="#m91fc25cba4" x="57.38" y="206.88" style="fill-opacity: 0; stroke: #000000"/>
      </g>
     </g>
     <g id="line2d_26">
      <g>
       <use xlink:href="#mdb497802b2" x="325.22" y="206.88" style="fill-opacity: 0; stroke: #000000"/>
      </g>
     </g>
     <g id="text_5">
      <!-- $\mathdefault{10^{-5}}$ -->
      <g transform="translate(14.4 213.129375) scale(0.18 -0.18)">
       <use xlink:href="#TimesNewRomanPSMT-31" transform="translate(0 0.003125)"/>
       <use xlink:href="#TimesNewRomanPSMT-30" transform="translate(50 0.003125)"/>
       <use xlink:href="#TimesNewRomanPSMT-2212" transform="translate(104.508437 38.646875) scale(0.7)"/>
       <use xlink:href="#TimesNewRomanPSMT-35" transform="translate(143.985977 38.646875) scale(0.7)"/>
      </g>
     </g>
    </g>
    <g id="ytick_3">
     <g id="line2d_27">
      <g>
       <use xlink:href="#m91fc25cba4" x="57.38" y="181.68" style="fill-opacity: 0; stroke: #000000"/>
      </g>
     </g>
     <g id="line2d_28">
      <g>
       <use xlink:href="#mdb497802b2" x="325.22" y="181.68" style="fill-opacity: 0; stroke: #000000"/>
      </g>
     </g>
     <g id="text_6">
      <!-- $\mathdefault{10^{-4}}$ -->
      <g transform="translate(14.4 187.929375) scale(0.18 -0.18)">
       <defs>
        <path id="TimesNewRomanPSMT-34" d="M 2978 1563 
L 2978 1119 
L 2409 1119 
L 2409 0 
L 1894 0 
L 1894 1119 
L 100 1119 
L 100 1519 
L 2066 4325 
L 2409 4325 
L 2409 1563 
L 2978 1563 
z
M 1894 1563 
L 1894 3666 
L 406 1563 
L 1894 1563 
z
" transform="scale(0.015625)"/>
       </defs>
       <use xlink:href="#TimesNewRomanPSMT-31" transform="translate(0 0.051562)"/>
       <use xlink:href="#TimesNewRomanPSMT-30" transform="translate(50 0.051562)"/>
       <use xlink:href="#TimesNewRomanPSMT-2212" transform="translate(104.508437 38.695312) scale(0.7)"/>
       <use xlink:href="#TimesNewRomanPSMT-34" transform="translate(143.985977 38.695312) scale(0.7)"/>
      </g>
     </g>
    </g>
    <g id="ytick_4">
     <g id="line2d_29">
      <g>
       <use xlink:href="#m91fc25cba4" x="57.38" y="156.48" style="fill-opacity: 0; stroke: #000000"/>
      </g>
     </g>
     <g id="line2d_30">
      <g>
       <use xlink:href="#mdb497802b2" x="325.22" y="156.48" style="fill-opacity: 0; stroke: #000000"/>
      </g>
     </g>
     <g id="text_7">
      <!-- $\mathdefault{10^{-3}}$ -->
      <g transform="translate(14.4 162.729375) scale(0.18 -0.18)">
       <defs>
        <path id="TimesNewRomanPSMT-33" d="M 325 3431 
Q 506 3859 782 4092 
Q 1059 4325 1472 4325 
Q 1981 4325 2253 3994 
Q 2459 3747 2459 3466 
Q 2459 3003 1878 2509 
Q 2269 2356 2469 2072 
Q 2669 1788 2669 1403 
Q 2669 853 2319 450 
Q 1863 -75 997 -75 
Q 569 -75 414 31 
Q 259 138 259 259 
Q 259 350 332 419 
Q 406 488 509 488 
Q 588 488 669 463 
Q 722 447 909 348 
Q 1097 250 1169 231 
Q 1284 197 1416 197 
Q 1734 197 1970 444 
Q 2206 691 2206 1028 
Q 2206 1275 2097 1509 
Q 2016 1684 1919 1775 
Q 1784 1900 1550 2001 
Q 1316 2103 1072 2103 
L 972 2103 
L 972 2197 
Q 1219 2228 1467 2375 
Q 1716 2522 1828 2728 
Q 1941 2934 1941 3181 
Q 1941 3503 1739 3701 
Q 1538 3900 1238 3900 
Q 753 3900 428 3381 
L 325 3431 
z
" transform="scale(0.015625)"/>
       </defs>
       <use xlink:href="#TimesNewRomanPSMT-31" transform="translate(0 0.051562)"/>
       <use xlink:href="#TimesNewRomanPSMT-30" transform="translate(50 0.051562)"/>
       <use xlink:href="#TimesNewRomanPSMT-2212" transform="translate(104.508437 38.695312) scale(0.7)"/>
       <use xlink:href="#TimesNewRomanPSMT-33" transform="translate(143.985977 38.695312) scale(0.7)"/>
      </g>
     </g>
    </g>
    <g id="ytick_5">
     <g id="line2d_31">
      <g>
       <use xlink:href="#m91fc25cba4" x="57.38" y="131.28" style="fill-opacity: 0; stroke: #000000"/>
      </g>
     </g>
     <g id="line2d_32">
      <g>
       <use xlink:href="#mdb497802b2" x="325.22" y="131.28" style="fill-opacity: 0; stroke: #000000"/>
      </g>
     </g>
     <g id="text_8">
      <!-- $\mathdefault{10^{-2}}$ -->
      <g transform="translate(14.4 137.529375) scale(0.18 -0.18)">
       <defs>
        <path id="TimesNewRomanPSMT-32" d="M 2934 816 
L 2638 0 
L 138 0 
L 138 116 
Q 1241 1122 1691 1759 
Q 2141 2397 2141 2925 
Q 2141 3328 1894 3587 
Q 1647 3847 1303 3847 
Q 991 3847 742 3664 
Q 494 3481 375 3128 
L 259 3128 
Q 338 3706 661 4015 
Q 984 4325 1469 4325 
Q 1984 4325 2329 3994 
Q 2675 3663 2675 3213 
Q 2675 2891 2525 2569 
Q 2294 2063 1775 1497 
Q 997 647 803 472 
L 1909 472 
Q 2247 472 2383 497 
Q 2519 522 2628 598 
Q 2738 675 2819 816 
L 2934 816 
z
" transform="scale(0.015625)"/>
       </defs>
       <use xlink:href="#TimesNewRomanPSMT-31" transform="translate(0 0.051562)"/>
       <use xlink:href="#TimesNewRomanPSMT-30" transform="translate(50 0.051562)"/>
       <use xlink:href="#TimesNewRomanPSMT-2212" transform="translate(104.508437 38.695312) scale(0.7)"/>
       <use xlink:href="#TimesNewRomanPSMT-32" transform="translate(143.985977 38.695312) scale(0.7)"/>
      </g>
     </g>
    </g>
    <g id="ytick_6">
     <g id="line2d_33">
      <g>
       <use xlink:href="#m91fc25cba4" x="57.38" y="106.08" style="fill-opacity: 0; stroke: #000000"/>
      </g>
     </g>
     <g id="line2d_34">
      <g>
       <use xlink:href="#mdb497802b2" x="325.22" y="106.08" style="fill-opacity: 0; stroke: #000000"/>
      </g>
     </g>
     <g id="text_9">
      <!-- $\mathdefault{10^{-1}}$ -->
      <g transform="translate(14.4 112.329375) scale(0.18 -0.18)">
       <use xlink:href="#TimesNewRomanPSMT-31" transform="translate(0 0.051562)"/>
       <use xlink:href="#TimesNewRomanPSMT-30" transform="translate(50 0.051562)"/>
       <use xlink:href="#TimesNewRomanPSMT-2212" transform="translate(104.508437 38.695312) scale(0.7)"/>
       <use xlink:href="#TimesNewRomanPSMT-31" transform="translate(143.985977 38.695312) scale(0.7)"/>
      </g>
     </g>
    </g>
    <g id="ytick_7">
     <g id="line2d_35">
      <g>
       <use xlink:href="#m91fc25cba4" x="57.38" y="80.88" style="fill-opacity: 0; stroke: #000000"/>
      </g>
     </g>
     <g id="line2d_36">
      <g>
       <use xlink:href="#mdb497802b2" x="325.22" y="80.88" style="fill-opacity: 0; stroke: #000000"/>
      </g>
     </g>
     <g id="text_10">
      <!-- $\mathdefault{10^{0}}$ -->
      <g transform="translate(21.6 87.129375) scale(0.18 -0.18)">
       <use xlink:href="#TimesNewRomanPSMT-31" transform="translate(0 0.051562)"/>
       <use xlink:href="#TimesNewRomanPSMT-30" transform="translate(50 0.051562)"/>
       <use xlink:href="#TimesNewRomanPSMT-30" transform="translate(104.508437 38.695312) scale(0.7)"/>
      </g>
     </g>
    </g>
    <g id="ytick_8">
     <g id="line2d_37">
      <g>
       <use xlink:href="#m91fc25cba4" x="57.38" y="55.68" style="fill-opacity: 0; stroke: #000000"/>
      </g>
     </g>
     <g id="line2d_38">
      <g>
       <use xlink:href="#mdb497802b2" x="325.22" y="55.68" style="fill-opacity: 0; stroke: #000000"/>
      </g>
     </g>
     <g id="text_11">
      <!-- $\mathdefault{10^{1}}$ -->
      <g transform="translate(21.6 61.929375) scale(0.18 -0.18)">
       <use xlink:href="#TimesNewRomanPSMT-31" transform="translate(0 0.051562)"/>
       <use xlink:href="#TimesNewRomanPSMT-30" transform="translate(50 0.051562)"/>
       <use xlink:href="#TimesNewRomanPSMT-31" transform="translate(104.508437 38.695312) scale(0.7)"/>
      </g>
     </g>
    </g>
    <g id="ytick_9">
     <g id="line2d_39">
      <g>
       <use xlink:href="#m91fc25cba4" x="57.38" y="30.48" style="fill-opacity: 0; stroke: #000000"/>
      </g>
     </g>
     <g id="line2d_40">
      <g>
       <use xlink:href="#mdb497802b2" x="325.22" y="30.48" style="fill-opacity: 0; stroke: #000000"/>
      </g>
     </g>
     <g id="text_12">
      <!-- $\mathdefault{10^{2}}$ -->
      <g transform="translate(21.6 36.729375) scale(0.18 -0.18)">
       <use xlink:href="#TimesNewRomanPSMT-31" transform="translate(0 0.051562)"/>
       <use xlink:href="#TimesNewRomanPSMT-30" transform="translate(50 0.051562)"/>
       <use xlink:href="#TimesNewRomanPSMT-32" transform="translate(104.508437 38.695312) scale(0.7)"/>
      </g>
     </g>
    </g>
    <g id="ytick_10">
     <g id="line2d_41">
      <defs>
       <path id="md7e9c670b2" d="M 0 0 
L -3 0 
" style="stroke: #000000"/>
      </defs>
      <g>
       <use xlink:href="#md7e9c670b2" x="57.38" y="242.108088" style="fill-opacity: 0; stroke: #000000"/>
      </g>
     </g>
     <g id="line2d_42">
      <defs>
       <path id="maca0c11fba" d="M 0 0 
L 3 0 
" style="stroke: #000000"/>
      </defs>
      <g>
       <use xlink:href="#maca0c11fba" x="325.22" y="242.108088" style="fill-opacity: 0; stroke: #000000"/>
      </g>
     </g>
    </g>
    <g id="ytick_11">
     <g id="line2d_43">
      <g>
       <use xlink:href="#md7e9c670b2" x="57.38" y="239.665956" style="fill-opacity: 0; stroke: #000000"/>
      </g>
     </g>
     <g id="line2d_44">
      <g>
       <use xlink:href="#maca0c11fba" x="325.22" y="239.665956" style="fill-opacity: 0; stroke: #000000"/>
      </g>
     </g>
    </g>
    <g id="ytick_12">
     <g id="line2d_45">
      <g>
       <use xlink:href="#md7e9c670b2" x="57.38" y="237.670588" style="fill-opacity: 0; stroke: #000000"/>
      </g>
     </g>
     <g id="line2d_46">
      <g>
       <use xlink:href="#maca0c11fba" x="325.22" y="237.670588" style="fill-opacity: 0; stroke: #000000"/>
      </g>
     </g>
    </g>
    <g id="ytick_13">
     <g id="line2d_47">
      <g>
       <use xlink:href="#md7e9c670b2" x="57.38" y="235.983529" style="fill-opacity: 0; stroke: #000000"/>
      </g>
     </g>
     <g id="line2d_48">
      <g>
       <use xlink:href="#maca0c11fba" x="325.22" y="235.983529" style="fill-opacity: 0; stroke: #000000"/>
      </g>
     </g>
    </g>
    <g id="ytick_14">
     <g id="line2d_49">
      <g>
       <use xlink:href="#md7e9c670b2" x="57.38" y="234.522132" style="fill-opacity: 0; stroke: #000000"/>
      </g>
     </g>
     <g id="line2d_50">
      <g>
       <use xlink:href="#maca0c11fba" x="325.22" y="234.522132" style="fill-opacity: 0; stroke: #000000"/>
      </g>
     </g>
    </g>
    <g id="ytick_15">
     <g id="line2d_51">
      <g>
       <use xlink:href="#md7e9c670b2" x="57.38" y="233.233089" style="fill-opacity: 0; stroke: #000000"/>
      </g>
     </g>
     <g id="line2d_52">
      <g>
       <use xlink:href="#maca0c11fba" x="325.22" y="233.233089" style="fill-opacity: 0; stroke: #000000"/>
      </g>
     </g>
    </g>
    <g id="ytick_16">
     <g id="line2d_53">
      <g>
       <use xlink:href="#md7e9c670b2" x="57.38" y="224.494044" style="fill-opacity: 0; stroke: #000000"/>
      </g>
     </g>
     <g id="line2d_54">
      <g>
       <use xlink:href="#maca0c11fba" x="325.22" y="224.494044" style="fill-opacity: 0; stroke: #000000"/>
      </g>
     </g>
    </g>
    <g id="ytick_17">
     <g id="line2d_55">
      <g>
       <use xlink:href="#md7e9c670b2" x="57.38" y="220.056544" style="fill-opacity: 0; stroke: #000000"/>
      </g>
     </g>
     <g id="line2d_56">
      <g>
       <use xlink:href="#maca0c11fba" x="325.22" y="220.056544" style="fill-opacity: 0; stroke: #000000"/>
      </g>
     </g>
    </g>
    <g id="ytick_18">
     <g id="line2d_57">
      <g>
       <use xlink:href="#md7e9c670b2" x="57.38" y="216.908088" style="fill-opacity: 0; stroke: #000000"/>
      </g>
     </g>
     <g id="line2d_58">
      <g>
       <use xlink:href="#maca0c11fba" x="325.22" y="216.908088" style="fill-opacity: 0; stroke: #000000"/>
      </g>
     </g>
    </g>
    <g id="ytick_19">
     <g id="line2d_59">
      <g>
       <use xlink:href="#md7e9c670b2" x="57.38" y="214.465956" style="fill-opacity: 0; stroke: #000000"/>
      </g>
     </g>
     <g id="line2d_60">
      <g>
       <use xlink:href="#maca0c11fba" x="325.22" y="214.465956" style="fill-opacity: 0; stroke: #000000"/>
      </g>
     </g>
    </g>
    <g id="ytick_20">
     <g id="line2d_61">
      <g>
       <use xlink:href="#md7e9c670b2" x="57.38" y="212.470588" style="fill-opacity: 0; stroke: #000000"/>
      </g>
     </g>
     <g id="line2d_62">
      <g>
       <use xlink:href="#maca0c11fba" x="325.22" y="212.470588" style="fill-opacity: 0; stroke: #000000"/>
      </g>
     </g>
    </g>
    <g id="ytick_21">
     <g id="line2d_63">
      <g>
       <use xlink:href="#md7e9c670b2" x="57.38" y="210.783529" style="fill-opacity: 0; stroke: #000000"/>
      </g>
     </g>
     <g id="line2d_64">
      <g>
       <use xlink:href="#maca0c11fba" x="325.22" y="210.783529" style="fill-opacity: 0; stroke: #000000"/>
      </g>
     </g>
    </g>
    <g id="ytick_22">
     <g id="line2d_65">
      <g>
       <use xlink:href="#md7e9c670b2" x="57.38" y="209.322132" style="fill-opacity: 0; stroke: #000000"/>
      </g>
     </g>
     <g id="line2d_66">
      <g>
       <use xlink:href="#maca0c11fba" x="325.22" y="209.322132" style="fill-opacity: 0; stroke: #000000"/>
      </g>
     </g>
    </g>
    <g id="ytick_23">
     <g id="line2d_67">
      <g>
       <use xlink:href="#md7e9c670b2" x="57.38" y="208.033089" style="fill-opacity: 0; stroke: #000000"/>
      </g>
     </g>
     <g id="line2d_68">
      <g>
       <use xlink:href="#maca0c11fba" x="325.22" y="208.033089" style="fill-opacity: 0; stroke: #000000"/>
      </g>
     </g>
    </g>
    <g id="ytick_24">
     <g id="line2d_69">
      <g>
       <use xlink:href="#md7e9c670b2" x="57.38" y="199.294044" style="fill-opacity: 0; stroke: #000000"/>
      </g>
     </g>
     <g id="line2d_70">
      <g>
       <use xlink:href="#maca0c11fba" x="325.22" y="199.294044" style="fill-opacity: 0; stroke: #000000"/>
      </g>
     </g>
    </g>
    <g id="ytick_25">
     <g id="line2d_71">
      <g>
       <use xlink:href="#md7e9c670b2" x="57.38" y="194.856544" style="fill-opacity: 0; stroke: #000000"/>
      </g>
     </g>
     <g id="line2d_72">
      <g>
       <use xlink:href="#maca0c11fba" x="325.22" y="194.856544" style="fill-opacity: 0; stroke: #000000"/>
      </g>
     </g>
    </g>
    <g id="ytick_26">
     <g id="line2d_73">
      <g>
       <use xlink:href="#md7e9c670b2" x="57.38" y="191.708088" style="fill-opacity: 0; stroke: #000000"/>
      </g>
     </g>
     <g id="line2d_74">
      <g>
       <use xlink:href="#maca0c11fba" x="325.22" y="191.708088" style="fill-opacity: 0; stroke: #000000"/>
      </g>
     </g>
    </g>
    <g id="ytick_27">
     <g id="line2d_75">
      <g>
       <use xlink:href="#md7e9c670b2" x="57.38" y="189.265956" style="fill-opacity: 0; stroke: #000000"/>
      </g>
     </g>
     <g id="line2d_76">
      <g>
       <use xlink:href="#maca0c11fba" x="325.22" y="189.265956" style="fill-opacity: 0; stroke: #000000"/>
      </g>
     </g>
    </g>
    <g id="ytick_28">
     <g id="line2d_77">
      <g>
       <use xlink:href="#md7e9c670b2" x="57.38" y="187.270588" style="fill-opacity: 0; stroke: #000000"/>
      </g>
     </g>
     <g id="line2d_78">
      <g>
       <use xlink:href="#maca0c11fba" x="325.22" y="187.270588" style="fill-opacity: 0; stroke: #000000"/>
      </g>
     </g>
    </g>
    <g id="ytick_29">
     <g id="line2d_79">
      <g>
       <use xlink:href="#md7e9c670b2" x="57.38" y="185.583529" style="fill-opacity: 0; stroke: #000000"/>
      </g>
     </g>
     <g id="line2d_80">
      <g>
       <use xlink:href="#maca0c11fba" x="325.22" y="185.583529" style="fill-opacity: 0; stroke: #000000"/>
      </g>
     </g>
    </g>
    <g id="ytick_30">
     <g id="line2d_81">
      <g>
       <use xlink:href="#md7e9c670b2" x="57.38" y="184.122132" style="fill-opacity: 0; stroke: #000000"/>
      </g>
     </g>
     <g id="line2d_82">
      <g>
       <use xlink:href="#maca0c11fba" x="325.22" y="184.122132" style="fill-opacity: 0; stroke: #000000"/>
      </g>
     </g>
    </g>
    <g id="ytick_31">
     <g id="line2d_83">
      <g>
       <use xlink:href="#md7e9c670b2" x="57.38" y="182.833089" style="fill-opacity: 0; stroke: #000000"/>
      </g>
     </g>
     <g id="line2d_84">
      <g>
       <use xlink:href="#maca0c11fba" x="325.22" y="182.833089" style="fill-opacity: 0; stroke: #000000"/>
      </g>
     </g>
    </g>
    <g id="ytick_32">
     <g id="line2d_85">
      <g>
       <use xlink:href="#md7e9c670b2" x="57.38" y="174.094044" style="fill-opacity: 0; stroke: #000000"/>
      </g>
     </g>
     <g id="line2d_86">
      <g>
       <use xlink:href="#maca0c11fba" x="325.22" y="174.094044" style="fill-opacity: 0; stroke: #000000"/>
      </g>
     </g>
    </g>
    <g id="ytick_33">
     <g id="line2d_87">
      <g>
       <use xlink:href="#md7e9c670b2" x="57.38" y="169.656544" style="fill-opacity: 0; stroke: #000000"/>
      </g>
     </g>
     <g id="line2d_88">
      <g>
       <use xlink:href="#maca0c11fba" x="325.22" y="169.656544" style="fill-opacity: 0; stroke: #000000"/>
      </g>
     </g>
    </g>
    <g id="ytick_34">
     <g id="line2d_89">
      <g>
       <use xlink:href="#md7e9c670b2" x="57.38" y="166.508088" style="fill-opacity: 0; stroke: #000000"/>
      </g>
     </g>
     <g id="line2d_90">
      <g>
       <use xlink:href="#maca0c11fba" x="325.22" y="166.508088" style="fill-opacity: 0; stroke: #000000"/>
      </g>
     </g>
    </g>
    <g id="ytick_35">
     <g id="line2d_91">
      <g>
       <use xlink:href="#md7e9c670b2" x="57.38" y="164.065956" style="fill-opacity: 0; stroke: #000000"/>
      </g>
     </g>
     <g id="line2d_92">
      <g>
       <use xlink:href="#maca0c11fba" x="325.22" y="164.065956" style="fill-opacity: 0; stroke: #000000"/>
      </g>
     </g>
    </g>
    <g id="ytick_36">
     <g id="line2d_93">
      <g>
       <use xlink:href="#md7e9c670b2" x="57.38" y="162.070588" style="fill-opacity: 0; stroke: #000000"/>
      </g>
     </g>
     <g id="line2d_94">
      <g>
       <use xlink:href="#maca0c11fba" x="325.22" y="162.070588" style="fill-opacity: 0; stroke: #000000"/>
      </g>
     </g>
    </g>
    <g id="ytick_37">
     <g id="line2d_95">
      <g>
       <use xlink:href="#md7e9c670b2" x="57.38" y="160.383529" style="fill-opacity: 0; stroke: #000000"/>
      </g>
     </g>
     <g id="line2d_96">
      <g>
       <use xlink:href="#maca0c11fba" x="325.22" y="160.383529" style="fill-opacity: 0; stroke: #000000"/>
      </g>
     </g>
    </g>
    <g id="ytick_38">
     <g id="line2d_97">
      <g>
       <use xlink:href="#md7e9c670b2" x="57.38" y="158.922132" style="fill-opacity: 0; stroke: #000000"/>
      </g>
     </g>
     <g id="line2d_98">
      <g>
       <use xlink:href="#maca0c11fba" x="325.22" y="158.922132" style="fill-opacity: 0; stroke: #000000"/>
      </g>
     </g>
    </g>
    <g id="ytick_39">
     <g id="line2d_99">
      <g>
       <use xlink:href="#md7e9c670b2" x="57.38" y="157.633089" style="fill-opacity: 0; stroke: #000000"/>
      </g>
     </g>
     <g id="line2d_100">
      <g>
       <use xlink:href="#maca0c11fba" x="325.22" y="157.633089" style="fill-opacity: 0; stroke: #000000"/>
      </g>
     </g>
    </g>
    <g id="ytick_40">
     <g id="line2d_101">
      <g>
       <use xlink:href="#md7e9c670b2" x="57.38" y="148.894044" style="fill-opacity: 0; stroke: #000000"/>
      </g>
     </g>
     <g id="line2d_102">
      <g>
       <use xlink:href="#maca0c11fba" x="325.22" y="148.894044" style="fill-opacity: 0; stroke: #000000"/>
      </g>
     </g>
    </g>
    <g id="ytick_41">
     <g id="line2d_103">
      <g>
       <use xlink:href="#md7e9c670b2" x="57.38" y="144.456544" style="fill-opacity: 0; stroke: #000000"/>
      </g>
     </g>
     <g id="line2d_104">
      <g>
       <use xlink:href="#maca0c11fba" x="325.22" y="144.456544" style="fill-opacity: 0; stroke: #000000"/>
      </g>
     </g>
    </g>
    <g id="ytick_42">
     <g id="line2d_105">
      <g>
       <use xlink:href="#md7e9c670b2" x="57.38" y="141.308088" style="fill-opacity: 0; stroke: #000000"/>
      </g>
     </g>
     <g id="line2d_106">
      <g>
       <use xlink:href="#maca0c11fba" x="325.22" y="141.308088" style="fill-opacity: 0; stroke: #000000"/>
      </g>
     </g>
    </g>
    <g id="ytick_43">
     <g id="line2d_107">
      <g>
       <use xlink:href="#md7e9c670b2" x="57.38" y="138.865956" style="fill-opacity: 0; stroke: #000000"/>
      </g>
     </g>
     <g id="line2d_108">
      <g>
       <use xlink:href="#maca0c11fba" x="325.22" y="138.865956" style="fill-opacity: 0; stroke: #000000"/>
      </g>
     </g>
    </g>
    <g id="ytick_44">
     <g id="line2d_109">
      <g>
       <use xlink:href="#md7e9c670b2" x="57.38" y="136.870588" style="fill-opacity: 0; stroke: #000000"/>
      </g>
     </g>
     <g id="line2d_110">
      <g>
       <use xlink:href="#maca0c11fba" x="325.22" y="136.870588" style="fill-opacity: 0; stroke: #000000"/>
      </g>
     </g>
    </g>
    <g id="ytick_45">
     <g id="line2d_111">
      <g>
       <use xlink:href="#md7e9c670b2" x="57.38" y="135.183529" style="fill-opacity: 0; stroke: #000000"/>
      </g>
     </g>
     <g id="line2d_112">
      <g>
       <use xlink:href="#maca0c11fba" x="325.22" y="135.183529" style="fill-opacity: 0; stroke: #000000"/>
      </g>
     </g>
    </g>
    <g id="ytick_46">
     <g id="line2d_113">
      <g>
       <use xlink:href="#md7e9c670b2" x="57.38" y="133.722132" style="fill-opacity: 0; stroke: #000000"/>
      </g>
     </g>
     <g id="line2d_114">
      <g>
       <use xlink:href="#maca0c11fba" x="325.22" y="133.722132" style="fill-opacity: 0; stroke: #000000"/>
      </g>
     </g>
    </g>
    <g id="ytick_47">
     <g id="line2d_115">
      <g>
       <use xlink:href="#md7e9c670b2" x="57.38" y="132.433089" style="fill-opacity: 0; stroke: #000000"/>
      </g>
     </g>
     <g id="line2d_116">
      <g>
       <use xlink:href="#maca0c11fba" x="325.22" y="132.433089" style="fill-opacity: 0; stroke: #000000"/>
      </g>
     </g>
    </g>
    <g id="ytick_48">
     <g id="line2d_117">
      <g>
       <use xlink:href="#md7e9c670b2" x="57.38" y="123.694044" style="fill-opacity: 0; stroke: #000000"/>
      </g>
     </g>
     <g id="line2d_118">
      <g>
       <use xlink:href="#maca0c11fba" x="325.22" y="123.694044" style="fill-opacity: 0; stroke: #000000"/>
      </g>
     </g>
    </g>
    <g id="ytick_49">
     <g id="line2d_119">
      <g>
       <use xlink:href="#md7e9c670b2" x="57.38" y="119.256544" style="fill-opacity: 0; stroke: #000000"/>
      </g>
     </g>
     <g id="line2d_120">
      <g>
       <use xlink:href="#maca0c11fba" x="325.22" y="119.256544" style="fill-opacity: 0; stroke: #000000"/>
      </g>
     </g>
    </g>
    <g id="ytick_50">
     <g id="line2d_121">
      <g>
       <use xlink:href="#md7e9c670b2" x="57.38" y="116.108088" style="fill-opacity: 0; stroke: #000000"/>
      </g>
     </g>
     <g id="line2d_122">
      <g>
       <use xlink:href="#maca0c11fba" x="325.22" y="116.108088" style="fill-opacity: 0; stroke: #000000"/>
      </g>
     </g>
    </g>
    <g id="ytick_51">
     <g id="line2d_123">
      <g>
       <use xlink:href="#md7e9c670b2" x="57.38" y="113.665956" style="fill-opacity: 0; stroke: #000000"/>
      </g>
     </g>
     <g id="line2d_124">
      <g>
       <use xlink:href="#maca0c11fba" x="325.22" y="113.665956" style="fill-opacity: 0; stroke: #000000"/>
      </g>
     </g>
    </g>
    <g id="ytick_52">
     <g id="line2d_125">
      <g>
       <use xlink:href="#md7e9c670b2" x="57.38" y="111.670588" style="fill-opacity: 0; stroke: #000000"/>
      </g>
     </g>
     <g id="line2d_126">
      <g>
       <use xlink:href="#maca0c11fba" x="325.22" y="111.670588" style="fill-opacity: 0; stroke: #000000"/>
      </g>
     </g>
    </g>
    <g id="ytick_53">
     <g id="line2d_127">
      <g>
       <use xlink:href="#md7e9c670b2" x="57.38" y="109.983529" style="fill-opacity: 0; stroke: #000000"/>
      </g>
     </g>
     <g id="line2d_128">
      <g>
       <use xlink:href="#maca0c11fba" x="325.22" y="109.983529" style="fill-opacity: 0; stroke: #000000"/>
      </g>
     </g>
    </g>
    <g id="ytick_54">
     <g id="line2d_129">
      <g>
       <use xlink:href="#md7e9c670b2" x="57.38" y="108.522132" style="fill-opacity: 0; stroke: #000000"/>
      </g>
     </g>
     <g id="line2d_130">
      <g>
       <use xlink:href="#maca0c11fba" x="325.22" y="108.522132" style="fill-opacity: 0; stroke: #000000"/>
      </g>
     </g>
    </g>
    <g id="ytick_55">
     <g id="line2d_131">
      <g>
       <use xlink:href="#md7e9c670b2" x="57.38" y="107.233089" style="fill-opacity: 0; stroke: #000000"/>
      </g>
     </g>
     <g id="line2d_132">
      <g>
       <use xlink:href="#maca0c11fba" x="325.22" y="107.233089" style="fill-opacity: 0; stroke: #000000"/>
      </g>
     </g>
    </g>
    <g id="ytick_56">
     <g id="line2d_133">
      <g>
       <use xlink:href="#md7e9c670b2" x="57.38" y="98.494044" style="fill-opacity: 0; stroke: #000000"/>
      </g>
     </g>
     <g id="line2d_134">
      <g>
       <use xlink:href="#maca0c11fba" x="325.22" y="98.494044" style="fill-opacity: 0; stroke: #000000"/>
      </g>
     </g>
    </g>
    <g id="ytick_57">
     <g id="line2d_135">
      <g>
       <use xlink:href="#md7e9c670b2" x="57.38" y="94.056544" style="fill-opacity: 0; stroke: #000000"/>
      </g>
     </g>
     <g id="line2d_136">
      <g>
       <use xlink:href="#maca0c11fba" x="325.22" y="94.056544" style="fill-opacity: 0; stroke: #000000"/>
      </g>
     </g>
    </g>
    <g id="ytick_58">
     <g id="line2d_137">
      <g>
       <use xlink:href="#md7e9c670b2" x="57.38" y="90.908088" style="fill-opacity: 0; stroke: #000000"/>
      </g>
     </g>
     <g id="line2d_138">
      <g>
       <use xlink:href="#maca0c11fba" x="325.22" y="90.908088" style="fill-opacity: 0; stroke: #000000"/>
      </g>
     </g>
    </g>
    <g id="ytick_59">
     <g id="line2d_139">
      <g>
       <use xlink:href="#md7e9c670b2" x="57.38" y="88.465956" style="fill-opacity: 0; stroke: #000000"/>
      </g>
     </g>
     <g id="line2d_140">
      <g>
       <use xlink:href="#maca0c11fba" x="325.22" y="88.465956" style="fill-opacity: 0; stroke: #000000"/>
      </g>
     </g>
    </g>
    <g id="ytick_60">
     <g id="line2d_141">
      <g>
       <use xlink:href="#md7e9c670b2" x="57.38" y="86.470588" style="fill-opacity: 0; stroke: #000000"/>
      </g>
     </g>
     <g id="line2d_142">
      <g>
       <use xlink:href="#maca0c11fba" x="325.22" y="86.470588" style="fill-opacity: 0; stroke: #000000"/>
      </g>
     </g>
    </g>
    <g id="ytick_61">
     <g id="line2d_143">
      <g>
       <use xlink:href="#md7e9c670b2" x="57.38" y="84.783529" style="fill-opacity: 0; stroke: #000000"/>
      </g>
     </g>
     <g id="line2d_144">
      <g>
       <use xlink:href="#maca0c11fba" x="325.22" y="84.783529" style="fill-opacity: 0; stroke: #000000"/>
      </g>
     </g>
    </g>
    <g id="ytick_62">
     <g id="line2d_145">
      <g>
       <use xlink:href="#md7e9c670b2" x="57.38" y="83.322132" style="fill-opacity: 0; stroke: #000000"/>
      </g>
     </g>
     <g id="line2d_146">
      <g>
       <use xlink:href="#maca0c11fba" x="325.22" y="83.322132" style="fill-opacity: 0; stroke: #000000"/>
      </g>
     </g>
    </g>
    <g id="ytick_63">
     <g id="line2d_147">
      <g>
       <use xlink:href="#md7e9c670b2" x="57.38" y="82.033089" style="fill-opacity: 0; stroke: #000000"/>
      </g>
     </g>
     <g id="line2d_148">
      <g>
       <use xlink:href="#maca0c11fba" x="325.22" y="82.033089" style="fill-opacity: 0; stroke: #000000"/>
      </g>
     </g>
    </g>
    <g id="ytick_64">
     <g id="line2d_149">
      <g>
       <use xlink:href="#md7e9c670b2" x="57.38" y="73.294044" style="fill-opacity: 0; stroke: #000000"/>
      </g>
     </g>
     <g id="line2d_150">
      <g>
       <use xlink:href="#maca0c11fba" x="325.22" y="73.294044" style="fill-opacity: 0; stroke: #000000"/>
      </g>
     </g>
    </g>
    <g id="ytick_65">
     <g id="line2d_151">
      <g>
       <use xlink:href="#md7e9c670b2" x="57.38" y="68.856544" style="fill-opacity: 0; stroke: #000000"/>
      </g>
     </g>
     <g id="line2d_152">
      <g>
       <use xlink:href="#maca0c11fba" x="325.22" y="68.856544" style="fill-opacity: 0; stroke: #000000"/>
      </g>
     </g>
    </g>
    <g id="ytick_66">
     <g id="line2d_153">
      <g>
       <use xlink:href="#md7e9c670b2" x="57.38" y="65.708088" style="fill-opacity: 0; stroke: #000000"/>
      </g>
     </g>
     <g id="line2d_154">
      <g>
       <use xlink:href="#maca0c11fba" x="325.22" y="65.708088" style="fill-opacity: 0; stroke: #000000"/>
      </g>
     </g>
    </g>
    <g id="ytick_67">
     <g id="line2d_155">
      <g>
       <use xlink:href="#md7e9c670b2" x="57.38" y="63.265956" style="fill-opacity: 0; stroke: #000000"/>
      </g>
     </g>
     <g id="line2d_156">
      <g>
       <use xlink:href="#maca0c11fba" x="325.22" y="63.265956" style="fill-opacity: 0; stroke: #000000"/>
      </g>
     </g>
    </g>
    <g id="ytick_68">
     <g id="line2d_157">
      <g>
       <use xlink:href="#md7e9c670b2" x="57.38" y="61.270588" style="fill-opacity: 0; stroke: #000000"/>
      </g>
     </g>
     <g id="line2d_158">
      <g>
       <use xlink:href="#maca0c11fba" x="325.22" y="61.270588" style="fill-opacity: 0; stroke: #000000"/>
      </g>
     </g>
    </g>
    <g id="ytick_69">
     <g id="line2d_159">
      <g>
       <use xlink:href="#md7e9c670b2" x="57.38" y="59.583529" style="fill-opacity: 0; stroke: #000000"/>
      </g>
     </g>
     <g id="line2d_160">
      <g>
       <use xlink:href="#maca0c11fba" x="325.22" y="59.583529" style="fill-opacity: 0; stroke: #000000"/>
      </g>
     </g>
    </g>
    <g id="ytick_70">
     <g id="line2d_161">
      <g>
       <use xlink:href="#md7e9c670b2" x="57.38" y="58.122132" style="fill-opacity: 0; stroke: #000000"/>
      </g>
     </g>
     <g id="line2d_162">
      <g>
       <use xlink:href="#maca0c11fba" x="325.22" y="58.122132" style="fill-opacity: 0; stroke: #000000"/>
      </g>
     </g>
    </g>
    <g id="ytick_71">
     <g id="line2d_163">
      <g>
       <use xlink:href="#md7e9c670b2" x="57.38" y="56.833089" style="fill-opacity: 0; stroke: #000000"/>
      </g>
     </g>
     <g id="line2d_164">
      <g>
       <use xlink:href="#maca0c11fba" x="325.22" y="56.833089" style="fill-opacity: 0; stroke: #000000"/>
      </g>
     </g>
    </g>
    <g id="ytick_72">
     <g id="line2d_165">
      <g>
       <use xlink:href="#md7e9c670b2" x="57.38" y="48.094044" style="fill-opacity: 0; stroke: #000000"/>
      </g>
     </g>
     <g id="line2d_166">
      <g>
       <use xlink:href="#maca0c11fba" x="325.22" y="48.094044" style="fill-opacity: 0; stroke: #000000"/>
      </g>
     </g>
    </g>
    <g id="ytick_73">
     <g id="line2d_167">
      <g>
       <use xlink:href="#md7e9c670b2" x="57.38" y="43.656544" style="fill-opacity: 0; stroke: #000000"/>
      </g>
     </g>
     <g id="line2d_168">
      <g>
       <use xlink:href="#maca0c11fba" x="325.22" y="43.656544" style="fill-opacity: 0; stroke: #000000"/>
      </g>
     </g>
    </g>
    <g id="ytick_74">
     <g id="line2d_169">
      <g>
       <use xlink:href="#md7e9c670b2" x="57.38" y="40.508088" style="fill-opacity: 0; stroke: #000000"/>
      </g>
     </g>
     <g id="line2d_170">
      <g>
       <use xlink:href="#maca0c11fba" x="325.22" y="40.508088" style="fill-opacity: 0; stroke: #000000"/>
      </g>
     </g>
    </g>
    <g id="ytick_75">
     <g id="line2d_171">
      <g>
       <use xlink:href="#md7e9c670b2" x="57.38" y="38.065956" style="fill-opacity: 0; stroke: #000000"/>
      </g>
     </g>
     <g id="line2d_172">
      <g>
       <use xlink:href="#maca0c11fba" x="325.22" y="38.065956" style="fill-opacity: 0; stroke: #000000"/>
      </g>
     </g>
    </g>
    <g id="ytick_76">
     <g id="line2d_173">
      <g>
       <use xlink:href="#md7e9c670b2" x="57.38" y="36.070588" style="fill-opacity: 0; stroke: #000000"/>
      </g>
     </g>
     <g id="line2d_174">
      <g>
       <use xlink:href="#maca0c11fba" x="325.22" y="36.070588" style="fill-opacity: 0; stroke: #000000"/>
      </g>
     </g>
    </g>
    <g id="ytick_77">
     <g id="line2d_175">
      <g>
       <use xlink:href="#md7e9c670b2" x="57.38" y="34.383529" style="fill-opacity: 0; stroke: #000000"/>
      </g>
     </g>
     <g id="line2d_176">
      <g>
       <use xlink:href="#maca0c11fba" x="325.22" y="34.383529" style="fill-opacity: 0; stroke: #000000"/>
      </g>
     </g>
    </g>
    <g id="ytick_78">
     <g id="line2d_177">
      <g>
       <use xlink:href="#md7e9c670b2" x="57.38" y="32.922132" style="fill-opacity: 0; stroke: #000000"/>
      </g>
     </g>
     <g id="line2d_178">
      <g>
       <use xlink:href="#maca0c11fba" x="325.22" y="32.922132" style="fill-opacity: 0; stroke: #000000"/>
      </g>
     </g>
    </g>
    <g id="ytick_79">
     <g id="line2d_179">
      <g>
       <use xlink:href="#md7e9c670b2" x="57.38" y="31.633089" style="fill-opacity: 0; stroke: #000000"/>
      </g>
     </g>
     <g id="line2d_180">
      <g>
       <use xlink:href="#maca0c11fba" x="325.22" y="31.633089" style="fill-opacity: 0; stroke: #000000"/>
      </g>
     </g>
    </g>
    <g id="ytick_80">
     <g id="line2d_181">
      <g>
       <use xlink:href="#md7e9c670b2" x="57.38" y="22.894044" style="fill-opacity: 0; stroke: #000000"/>
      </g>
     </g>
     <g id="line2d_182">
      <g>
       <use xlink:href="#maca0c11fba" x="325.22" y="22.894044" style="fill-opacity: 0; stroke: #000000"/>
      </g>
     </g>
    </g>
   </g>
   <g id="line2d_183">
    <path d="M 69.554545 283.409063 
L 69.65175 116.129699 
L 69.871292 103.201443 
L 70.2173 95.121283 
L 70.586682 90.273186 
L 71.161938 85.42509 
L 71.714171 82.193026 
L 72.456129 78.960962 
L 73.452992 75.728898 
L 74.792335 72.496834 
L 75.625771 70.880802 
L 76.591822 69.26477 
L 77.71159 67.648737 
L 79.009536 66.032705 
L 80.514011 64.416673 
L 82.257877 62.800641 
L 84.279226 61.184609 
L 86.622211 59.568577 
L 89.338012 57.952545 
L 92.48595 56.336513 
L 96.134786 54.720481 
L 100.364223 53.104449 
L 105.266648 51.488417 
L 110.949144 49.872385 
L 117.535837 48.256353 
L 125.170601 46.640321 
L 134.020207 45.024289 
L 144.277958 43.408257 
L 156.167919 41.792224 
L 169.949806 40.176192 
L 185.924662 38.56016 
L 204.44143 36.944128 
L 225.90458 35.328096 
L 250.782938 33.712064 
L 279.619931 32.096032 
L 313.045455 30.48 
L 313.045455 30.48 
" clip-path="url(#p5d16dec19e)" style="fill: none; stroke: #000000; stroke-width: 2"/>
   </g>
   <g id="line2d_184">
    <path d="M 69.554545 30.48 
L 313.045455 139.922209 
L 313.045455 139.922209 
" clip-path="url(#p5d16dec19e)" style="fill: none; stroke: #b5443c; stroke-width: 2"/>
   </g>
   <g id="patch_3">
    <path d="M 57.38 242.16 
L 57.38 20.4 
" style="fill: none; stroke: #000000; stroke-linejoin: miter; stroke-linecap: square"/>
   </g>
   <g id="patch_4">
    <path d="M 325.22 242.16 
L 325.22 20.4 
" style="fill: none; stroke: #000000; stroke-linejoin: miter; stroke-linecap: square"/>
   </g>
   <g id="patch_5">
    <path d="M 57.38 242.16 
L 325.22 242.16 
" style="fill: none; stroke: #000000; stroke-linejoin: miter; stroke-linecap: square"/>
   </g>
   <g id="patch_6">
    <path d="M 57.38 20.4 
L 325.22 20.4 
" style="fill: none; stroke: #000000; stroke-linejoin: miter; stroke-linecap: square"/>
   </g>
  </g>
 </g>
 <defs>
  <clipPath id="p5d16dec19e">
   <rect x="57.38" y="20.4" width="267.84" height="221.76"/>
  </clipPath>
 </defs>
</svg>
