<?xml version="1.0" encoding="utf-8" standalone="no"?>
<!DOCTYPE svg PUBLIC "-//W3C//DTD SVG 1.1//EN"
  "http://www.w3.org/Graphics/SVG/1.1/DTD/svg11.dtd">
<svg xmlns:xlink="http://www.w3.org/1999/xlink" width="348.86pt" height="282.521562pt" viewBox="0 0 348.86 282.521562" xmlns="http://www.w3.org/2000/svg" version="1.1">
 <metadata>
  <rdf:RDF xmlns:dc="http://purl.org/dc/elements/1.1/" xmlns:cc="http://creativecommons.org/ns#" xmlns:rdf="http://www.w3.org/1999/02/22-rdf-syntax-ns#">
   <cc:Work>
    <dc:type rdf:resource="http://purl.org/dc/dcmitype/StillImage"/>
    <dc:date>2024-07-03T11:14:56.629791</dc:date>
    <dc:format>image/svg+xml</dc:format>
    <dc:creator>
     <cc:Agent>
      <dc:title>Matplotlib v3.8.0, https://matplotlib.org/</dc:title>
     </cc:Agent>
    </dc:creator>
   </cc:Work>
  </rdf:RDF>
 </metadata>
 <defs>
  <style type="text/css">*{stroke-linejoin: round; stroke-linecap: butt}</style>
 </defs>
 <g id="figure_1">
  <g id="patch_1">
   <path d="M 0 282.521562 
L 348.86 282.521562 
L 348.86 0 
L 0 0 
z
" style="fill: #ffffff"/>
  </g>
  <g id="axes_1">
   <g id="patch_2">
    <path d="M 60.62 242.16 
L 328.46 242.16 
L 328.46 20.4 
L 60.62 20.4 
z
" style="fill: #ffffff"/>
   </g>
   <g id="matplotlib.axis_1">
    <g id="xtick_1">
     <g id="line2d_1">
      <defs>
       <path id="med1237c2b0" d="M 0 0 
L 0 6 
" style="stroke: #000000"/>
      </defs>
      <g>
       <use xlink:href="#med1237c2b0" x="72.794545" y="242.16" style="fill-opacity: 0; stroke: #000000"/>
      </g>
     </g>
     <g id="line2d_2">
      <defs>
       <path id="mc2d99eb58f" d="M 0 0 
L 0 -6 
" style="stroke: #000000"/>
      </defs>
      <g>
       <use xlink:href="#mc2d99eb58f" x="72.794545" y="20.4" style="fill-opacity: 0; stroke: #000000"/>
      </g>
     </g>
     <g id="text_1">
      <!-- 0 -->
      <g transform="translate(67.789702 264.544062) scale(0.18 -0.18)">
       <defs>
        <path id="ArialMT-30" d="M 266 2259 
Q 266 3072 433 3567 
Q 600 4063 929 4331 
Q 1259 4600 1759 4600 
Q 2128 4600 2406 4451 
Q 2684 4303 2865 4023 
Q 3047 3744 3150 3342 
Q 3253 2941 3253 2259 
Q 3253 1453 3087 958 
Q 2922 463 2592 192 
Q 2263 -78 1759 -78 
Q 1097 -78 719 397 
Q 266 969 266 2259 
z
M 844 2259 
Q 844 1131 1108 757 
Q 1372 384 1759 384 
Q 2147 384 2411 759 
Q 2675 1134 2675 2259 
Q 2675 3391 2411 3762 
Q 2147 4134 1753 4134 
Q 1366 4134 1134 3806 
Q 844 3388 844 2259 
z
" transform="scale(0.015625)"/>
       </defs>
       <use xlink:href="#ArialMT-30"/>
      </g>
     </g>
    </g>
    <g id="xtick_2">
     <g id="line2d_3">
      <g>
       <use xlink:href="#med1237c2b0" x="194.54" y="242.16" style="fill-opacity: 0; stroke: #000000"/>
      </g>
     </g>
     <g id="line2d_4">
      <g>
       <use xlink:href="#mc2d99eb58f" x="194.54" y="20.4" style="fill-opacity: 0; stroke: #000000"/>
      </g>
     </g>
     <g id="text_2">
      <!-- 5 -->
      <g transform="translate(189.535156 264.544062) scale(0.18 -0.18)">
       <defs>
        <path id="ArialMT-35" d="M 266 1200 
L 856 1250 
Q 922 819 1161 601 
Q 1400 384 1738 384 
Q 2144 384 2425 690 
Q 2706 997 2706 1503 
Q 2706 1984 2436 2262 
Q 2166 2541 1728 2541 
Q 1456 2541 1237 2417 
Q 1019 2294 894 2097 
L 366 2166 
L 809 4519 
L 3088 4519 
L 3088 3981 
L 1259 3981 
L 1013 2750 
Q 1425 3038 1878 3038 
Q 2478 3038 2890 2622 
Q 3303 2206 3303 1553 
Q 3303 931 2941 478 
Q 2500 -78 1738 -78 
Q 1113 -78 717 272 
Q 322 622 266 1200 
z
" transform="scale(0.015625)"/>
       </defs>
       <use xlink:href="#ArialMT-35"/>
      </g>
     </g>
    </g>
    <g id="xtick_3">
     <g id="line2d_5">
      <g>
       <use xlink:href="#med1237c2b0" x="316.285455" y="242.16" style="fill-opacity: 0; stroke: #000000"/>
      </g>
     </g>
     <g id="line2d_6">
      <g>
       <use xlink:href="#mc2d99eb58f" x="316.285455" y="20.4" style="fill-opacity: 0; stroke: #000000"/>
      </g>
     </g>
     <g id="text_3">
      <!-- 10 -->
      <g transform="translate(306.275767 264.544062) scale(0.18 -0.18)">
       <defs>
        <path id="ArialMT-31" d="M 2384 0 
L 1822 0 
L 1822 3584 
Q 1619 3391 1289 3197 
Q 959 3003 697 2906 
L 697 3450 
Q 1169 3672 1522 3987 
Q 1875 4303 2022 4600 
L 2384 4600 
L 2384 0 
z
" transform="scale(0.015625)"/>
       </defs>
       <use xlink:href="#ArialMT-31"/>
       <use xlink:href="#ArialMT-30" x="55.615234"/>
      </g>
     </g>
    </g>
    <g id="xtick_4">
     <g id="line2d_7">
      <defs>
       <path id="m5a7cfeab1e" d="M 0 0 
L 0 3 
" style="stroke: #000000"/>
      </defs>
      <g>
       <use xlink:href="#m5a7cfeab1e" x="97.143636" y="242.16" style="fill-opacity: 0; stroke: #000000"/>
      </g>
     </g>
     <g id="line2d_8">
      <defs>
       <path id="m07d8ba38ea" d="M 0 0 
L 0 -3 
" style="stroke: #000000"/>
      </defs>
      <g>
       <use xlink:href="#m07d8ba38ea" x="97.143636" y="20.4" style="fill-opacity: 0; stroke: #000000"/>
      </g>
     </g>
    </g>
    <g id="xtick_5">
     <g id="line2d_9">
      <g>
       <use xlink:href="#m5a7cfeab1e" x="121.492727" y="242.16" style="fill-opacity: 0; stroke: #000000"/>
      </g>
     </g>
     <g id="line2d_10">
      <g>
       <use xlink:href="#m07d8ba38ea" x="121.492727" y="20.4" style="fill-opacity: 0; stroke: #000000"/>
      </g>
     </g>
    </g>
    <g id="xtick_6">
     <g id="line2d_11">
      <g>
       <use xlink:href="#m5a7cfeab1e" x="145.841818" y="242.16" style="fill-opacity: 0; stroke: #000000"/>
      </g>
     </g>
     <g id="line2d_12">
      <g>
       <use xlink:href="#m07d8ba38ea" x="145.841818" y="20.4" style="fill-opacity: 0; stroke: #000000"/>
      </g>
     </g>
    </g>
    <g id="xtick_7">
     <g id="line2d_13">
      <g>
       <use xlink:href="#m5a7cfeab1e" x="170.190909" y="242.16" style="fill-opacity: 0; stroke: #000000"/>
      </g>
     </g>
     <g id="line2d_14">
      <g>
       <use xlink:href="#m07d8ba38ea" x="170.190909" y="20.4" style="fill-opacity: 0; stroke: #000000"/>
      </g>
     </g>
    </g>
    <g id="xtick_8">
     <g id="line2d_15">
      <g>
       <use xlink:href="#m5a7cfeab1e" x="218.889091" y="242.16" style="fill-opacity: 0; stroke: #000000"/>
      </g>
     </g>
     <g id="line2d_16">
      <g>
       <use xlink:href="#m07d8ba38ea" x="218.889091" y="20.4" style="fill-opacity: 0; stroke: #000000"/>
      </g>
     </g>
    </g>
    <g id="xtick_9">
     <g id="line2d_17">
      <g>
       <use xlink:href="#m5a7cfeab1e" x="243.238182" y="242.16" style="fill-opacity: 0; stroke: #000000"/>
      </g>
     </g>
     <g id="line2d_18">
      <g>
       <use xlink:href="#m07d8ba38ea" x="243.238182" y="20.4" style="fill-opacity: 0; stroke: #000000"/>
      </g>
     </g>
    </g>
    <g id="xtick_10">
     <g id="line2d_19">
      <g>
       <use xlink:href="#m5a7cfeab1e" x="267.587273" y="242.16" style="fill-opacity: 0; stroke: #000000"/>
      </g>
     </g>
     <g id="line2d_20">
      <g>
       <use xlink:href="#m07d8ba38ea" x="267.587273" y="20.4" style="fill-opacity: 0; stroke: #000000"/>
      </g>
     </g>
    </g>
    <g id="xtick_11">
     <g id="line2d_21">
      <g>
       <use xlink:href="#m5a7cfeab1e" x="291.936364" y="242.16" style="fill-opacity: 0; stroke: #000000"/>
      </g>
     </g>
     <g id="line2d_22">
      <g>
       <use xlink:href="#m07d8ba38ea" x="291.936364" y="20.4" style="fill-opacity: 0; stroke: #000000"/>
      </g>
     </g>
    </g>
   </g>
   <g id="matplotlib.axis_2">
    <g id="ytick_1">
     <g id="line2d_23">
      <defs>
       <path id="m902dfb3f88" d="M 0 0 
L -6 0 
" style="stroke: #000000"/>
      </defs>
      <g>
       <use xlink:href="#m902dfb3f88" x="60.62" y="232.08" style="fill-opacity: 0; stroke: #000000"/>
      </g>
     </g>
     <g id="line2d_24">
      <defs>
       <path id="m48a7334176" d="M 0 0 
L 6 0 
" style="stroke: #000000"/>
      </defs>
      <g>
       <use xlink:href="#m48a7334176" x="328.46" y="232.08" style="fill-opacity: 0; stroke: #000000"/>
      </g>
     </g>
     <g id="text_4">
      <!-- $\mathdefault{10^{-7}}$ -->
      <g transform="translate(14.4 238.57125) scale(0.18 -0.18)">
       <defs>
        <path id="ArialMT-2212" d="M 3381 1997 
L 356 1997 
L 356 2522 
L 3381 2522 
L 3381 1997 
z
" transform="scale(0.015625)"/>
        <path id="ArialMT-37" d="M 303 3981 
L 303 4522 
L 3269 4522 
L 3269 4084 
Q 2831 3619 2401 2847 
Q 1972 2075 1738 1259 
Q 1569 684 1522 0 
L 944 0 
Q 953 541 1156 1306 
Q 1359 2072 1739 2783 
Q 2119 3494 2547 3981 
L 303 3981 
z
" transform="scale(0.015625)"/>
       </defs>
       <use xlink:href="#ArialMT-31" transform="translate(0 0.715625)"/>
       <use xlink:href="#ArialMT-30" transform="translate(55.615234 0.715625)"/>
       <use xlink:href="#ArialMT-2212" transform="translate(116.4575 40.540625) scale(0.7)"/>
       <use xlink:href="#ArialMT-37" transform="translate(157.336406 40.540625) scale(0.7)"/>
      </g>
     </g>
    </g>
    <g id="ytick_2">
     <g id="line2d_25">
      <g>
       <use xlink:href="#m902dfb3f88" x="60.62" y="206.88" style="fill-opacity: 0; stroke: #000000"/>
      </g>
     </g>
     <g id="line2d_26">
      <g>
       <use xlink:href="#m48a7334176" x="328.46" y="206.88" style="fill-opacity: 0; stroke: #000000"/>
      </g>
     </g>
     <g id="text_5">
      <!-- $\mathdefault{10^{-6}}$ -->
      <g transform="translate(14.4 213.46125) scale(0.18 -0.18)">
       <defs>
        <path id="ArialMT-36" d="M 3184 3459 
L 2625 3416 
Q 2550 3747 2413 3897 
Q 2184 4138 1850 4138 
Q 1581 4138 1378 3988 
Q 1113 3794 959 3422 
Q 806 3050 800 2363 
Q 1003 2672 1297 2822 
Q 1591 2972 1913 2972 
Q 2475 2972 2870 2558 
Q 3266 2144 3266 1488 
Q 3266 1056 3080 686 
Q 2894 316 2569 119 
Q 2244 -78 1831 -78 
Q 1128 -78 684 439 
Q 241 956 241 2144 
Q 241 3472 731 4075 
Q 1159 4600 1884 4600 
Q 2425 4600 2770 4297 
Q 3116 3994 3184 3459 
z
M 888 1484 
Q 888 1194 1011 928 
Q 1134 663 1356 523 
Q 1578 384 1822 384 
Q 2178 384 2434 671 
Q 2691 959 2691 1453 
Q 2691 1928 2437 2201 
Q 2184 2475 1800 2475 
Q 1419 2475 1153 2201 
Q 888 1928 888 1484 
z
" transform="scale(0.015625)"/>
       </defs>
       <use xlink:href="#ArialMT-31" transform="translate(0 0.8625)"/>
       <use xlink:href="#ArialMT-30" transform="translate(55.615234 0.8625)"/>
       <use xlink:href="#ArialMT-2212" transform="translate(116.4575 40.6875) scale(0.7)"/>
       <use xlink:href="#ArialMT-36" transform="translate(157.336406 40.6875) scale(0.7)"/>
      </g>
     </g>
    </g>
    <g id="ytick_3">
     <g id="line2d_27">
      <g>
       <use xlink:href="#m902dfb3f88" x="60.62" y="181.68" style="fill-opacity: 0; stroke: #000000"/>
      </g>
     </g>
     <g id="line2d_28">
      <g>
       <use xlink:href="#m48a7334176" x="328.46" y="181.68" style="fill-opacity: 0; stroke: #000000"/>
      </g>
     </g>
     <g id="text_6">
      <!-- $\mathdefault{10^{-5}}$ -->
      <g transform="translate(14.4 188.17125) scale(0.18 -0.18)">
       <use xlink:href="#ArialMT-31" transform="translate(0 0.748437)"/>
       <use xlink:href="#ArialMT-30" transform="translate(55.615234 0.748437)"/>
       <use xlink:href="#ArialMT-2212" transform="translate(116.4575 40.573437) scale(0.7)"/>
       <use xlink:href="#ArialMT-35" transform="translate(157.336406 40.573437) scale(0.7)"/>
      </g>
     </g>
    </g>
    <g id="ytick_4">
     <g id="line2d_29">
      <g>
       <use xlink:href="#m902dfb3f88" x="60.62" y="156.48" style="fill-opacity: 0; stroke: #000000"/>
      </g>
     </g>
     <g id="line2d_30">
      <g>
       <use xlink:href="#m48a7334176" x="328.46" y="156.48" style="fill-opacity: 0; stroke: #000000"/>
      </g>
     </g>
     <g id="text_7">
      <!-- $\mathdefault{10^{-4}}$ -->
      <g transform="translate(14.4 162.97125) scale(0.18 -0.18)">
       <defs>
        <path id="ArialMT-34" d="M 2069 0 
L 2069 1097 
L 81 1097 
L 81 1613 
L 2172 4581 
L 2631 4581 
L 2631 1613 
L 3250 1613 
L 3250 1097 
L 2631 1097 
L 2631 0 
L 2069 0 
z
M 2069 1613 
L 2069 3678 
L 634 1613 
L 2069 1613 
z
" transform="scale(0.015625)"/>
       </defs>
       <use xlink:href="#ArialMT-31" transform="translate(0 0.070312)"/>
       <use xlink:href="#ArialMT-30" transform="translate(55.615234 0.070312)"/>
       <use xlink:href="#ArialMT-2212" transform="translate(116.4575 39.895313) scale(0.7)"/>
       <use xlink:href="#ArialMT-34" transform="translate(157.336406 39.895313) scale(0.7)"/>
      </g>
     </g>
    </g>
    <g id="ytick_5">
     <g id="line2d_31">
      <g>
       <use xlink:href="#m902dfb3f88" x="60.62" y="131.28" style="fill-opacity: 0; stroke: #000000"/>
      </g>
     </g>
     <g id="line2d_32">
      <g>
       <use xlink:href="#m48a7334176" x="328.46" y="131.28" style="fill-opacity: 0; stroke: #000000"/>
      </g>
     </g>
     <g id="text_8">
      <!-- $\mathdefault{10^{-3}}$ -->
      <g transform="translate(14.4 137.86125) scale(0.18 -0.18)">
       <defs>
        <path id="ArialMT-33" d="M 269 1209 
L 831 1284 
Q 928 806 1161 595 
Q 1394 384 1728 384 
Q 2125 384 2398 659 
Q 2672 934 2672 1341 
Q 2672 1728 2419 1979 
Q 2166 2231 1775 2231 
Q 1616 2231 1378 2169 
L 1441 2663 
Q 1497 2656 1531 2656 
Q 1891 2656 2178 2843 
Q 2466 3031 2466 3422 
Q 2466 3731 2256 3934 
Q 2047 4138 1716 4138 
Q 1388 4138 1169 3931 
Q 950 3725 888 3313 
L 325 3413 
Q 428 3978 793 4289 
Q 1159 4600 1703 4600 
Q 2078 4600 2393 4439 
Q 2709 4278 2876 4000 
Q 3044 3722 3044 3409 
Q 3044 3113 2884 2869 
Q 2725 2625 2413 2481 
Q 2819 2388 3044 2092 
Q 3269 1797 3269 1353 
Q 3269 753 2831 336 
Q 2394 -81 1725 -81 
Q 1122 -81 723 278 
Q 325 638 269 1209 
z
" transform="scale(0.015625)"/>
       </defs>
       <use xlink:href="#ArialMT-31" transform="translate(0 0.8625)"/>
       <use xlink:href="#ArialMT-30" transform="translate(55.615234 0.8625)"/>
       <use xlink:href="#ArialMT-2212" transform="translate(116.4575 40.6875) scale(0.7)"/>
       <use xlink:href="#ArialMT-33" transform="translate(157.336406 40.6875) scale(0.7)"/>
      </g>
     </g>
    </g>
    <g id="ytick_6">
     <g id="line2d_33">
      <g>
       <use xlink:href="#m902dfb3f88" x="60.62" y="106.08" style="fill-opacity: 0; stroke: #000000"/>
      </g>
     </g>
     <g id="line2d_34">
      <g>
       <use xlink:href="#m48a7334176" x="328.46" y="106.08" style="fill-opacity: 0; stroke: #000000"/>
      </g>
     </g>
     <g id="text_9">
      <!-- $\mathdefault{10^{-2}}$ -->
      <g transform="translate(14.4 112.66125) scale(0.18 -0.18)">
       <defs>
        <path id="ArialMT-32" d="M 3222 541 
L 3222 0 
L 194 0 
Q 188 203 259 391 
Q 375 700 629 1000 
Q 884 1300 1366 1694 
Q 2113 2306 2375 2664 
Q 2638 3022 2638 3341 
Q 2638 3675 2398 3904 
Q 2159 4134 1775 4134 
Q 1369 4134 1125 3890 
Q 881 3647 878 3216 
L 300 3275 
Q 359 3922 746 4261 
Q 1134 4600 1788 4600 
Q 2447 4600 2831 4234 
Q 3216 3869 3216 3328 
Q 3216 3053 3103 2787 
Q 2991 2522 2730 2228 
Q 2469 1934 1863 1422 
Q 1356 997 1212 845 
Q 1069 694 975 541 
L 3222 541 
z
" transform="scale(0.015625)"/>
       </defs>
       <use xlink:href="#ArialMT-31" transform="translate(0 0.8625)"/>
       <use xlink:href="#ArialMT-30" transform="translate(55.615234 0.8625)"/>
       <use xlink:href="#ArialMT-2212" transform="translate(116.4575 40.6875) scale(0.7)"/>
       <use xlink:href="#ArialMT-32" transform="translate(157.336406 40.6875) scale(0.7)"/>
      </g>
     </g>
    </g>
    <g id="ytick_7">
     <g id="line2d_35">
      <g>
       <use xlink:href="#m902dfb3f88" x="60.62" y="80.88" style="fill-opacity: 0; stroke: #000000"/>
      </g>
     </g>
     <g id="line2d_36">
      <g>
       <use xlink:href="#m48a7334176" x="328.46" y="80.88" style="fill-opacity: 0; stroke: #000000"/>
      </g>
     </g>
     <g id="text_10">
      <!-- $\mathdefault{10^{-1}}$ -->
      <g transform="translate(14.4 87.46125) scale(0.18 -0.18)">
       <use xlink:href="#ArialMT-31" transform="translate(0 0.8625)"/>
       <use xlink:href="#ArialMT-30" transform="translate(55.615234 0.8625)"/>
       <use xlink:href="#ArialMT-2212" transform="translate(116.4575 40.6875) scale(0.7)"/>
       <use xlink:href="#ArialMT-31" transform="translate(157.336406 40.6875) scale(0.7)"/>
      </g>
     </g>
    </g>
    <g id="ytick_8">
     <g id="line2d_37">
      <g>
       <use xlink:href="#m902dfb3f88" x="60.62" y="55.68" style="fill-opacity: 0; stroke: #000000"/>
      </g>
     </g>
     <g id="line2d_38">
      <g>
       <use xlink:href="#m48a7334176" x="328.46" y="55.68" style="fill-opacity: 0; stroke: #000000"/>
      </g>
     </g>
     <g id="text_11">
      <!-- $\mathdefault{10^{0}}$ -->
      <g transform="translate(21.78 62.26125) scale(0.18 -0.18)">
       <use xlink:href="#ArialMT-31" transform="translate(0 0.8625)"/>
       <use xlink:href="#ArialMT-30" transform="translate(55.615234 0.8625)"/>
       <use xlink:href="#ArialMT-30" transform="translate(116.4575 40.6875) scale(0.7)"/>
      </g>
     </g>
    </g>
    <g id="ytick_9">
     <g id="line2d_39">
      <g>
       <use xlink:href="#m902dfb3f88" x="60.62" y="30.48" style="fill-opacity: 0; stroke: #000000"/>
      </g>
     </g>
     <g id="line2d_40">
      <g>
       <use xlink:href="#m48a7334176" x="328.46" y="30.48" style="fill-opacity: 0; stroke: #000000"/>
      </g>
     </g>
     <g id="text_12">
      <!-- $\mathdefault{10^{1}}$ -->
      <g transform="translate(21.78 37.06125) scale(0.18 -0.18)">
       <use xlink:href="#ArialMT-31" transform="translate(0 0.8625)"/>
       <use xlink:href="#ArialMT-30" transform="translate(55.615234 0.8625)"/>
       <use xlink:href="#ArialMT-31" transform="translate(116.4575 40.6875) scale(0.7)"/>
      </g>
     </g>
    </g>
    <g id="ytick_10">
     <g id="line2d_41">
      <defs>
       <path id="m69a96221fe" d="M 0 0 
L -3 0 
" style="stroke: #000000"/>
      </defs>
      <g>
       <use xlink:href="#m69a96221fe" x="60.62" y="242.108088" style="fill-opacity: 0; stroke: #000000"/>
      </g>
     </g>
     <g id="line2d_42">
      <defs>
       <path id="m02f86ef9a6" d="M 0 0 
L 3 0 
" style="stroke: #000000"/>
      </defs>
      <g>
       <use xlink:href="#m02f86ef9a6" x="328.46" y="242.108088" style="fill-opacity: 0; stroke: #000000"/>
      </g>
     </g>
    </g>
    <g id="ytick_11">
     <g id="line2d_43">
      <g>
       <use xlink:href="#m69a96221fe" x="60.62" y="239.665956" style="fill-opacity: 0; stroke: #000000"/>
      </g>
     </g>
     <g id="line2d_44">
      <g>
       <use xlink:href="#m02f86ef9a6" x="328.46" y="239.665956" style="fill-opacity: 0; stroke: #000000"/>
      </g>
     </g>
    </g>
    <g id="ytick_12">
     <g id="line2d_45">
      <g>
       <use xlink:href="#m69a96221fe" x="60.62" y="237.670588" style="fill-opacity: 0; stroke: #000000"/>
      </g>
     </g>
     <g id="line2d_46">
      <g>
       <use xlink:href="#m02f86ef9a6" x="328.46" y="237.670588" style="fill-opacity: 0; stroke: #000000"/>
      </g>
     </g>
    </g>
    <g id="ytick_13">
     <g id="line2d_47">
      <g>
       <use xlink:href="#m69a96221fe" x="60.62" y="235.983529" style="fill-opacity: 0; stroke: #000000"/>
      </g>
     </g>
     <g id="line2d_48">
      <g>
       <use xlink:href="#m02f86ef9a6" x="328.46" y="235.983529" style="fill-opacity: 0; stroke: #000000"/>
      </g>
     </g>
    </g>
    <g id="ytick_14">
     <g id="line2d_49">
      <g>
       <use xlink:href="#m69a96221fe" x="60.62" y="234.522132" style="fill-opacity: 0; stroke: #000000"/>
      </g>
     </g>
     <g id="line2d_50">
      <g>
       <use xlink:href="#m02f86ef9a6" x="328.46" y="234.522132" style="fill-opacity: 0; stroke: #000000"/>
      </g>
     </g>
    </g>
    <g id="ytick_15">
     <g id="line2d_51">
      <g>
       <use xlink:href="#m69a96221fe" x="60.62" y="233.233089" style="fill-opacity: 0; stroke: #000000"/>
      </g>
     </g>
     <g id="line2d_52">
      <g>
       <use xlink:href="#m02f86ef9a6" x="328.46" y="233.233089" style="fill-opacity: 0; stroke: #000000"/>
      </g>
     </g>
    </g>
    <g id="ytick_16">
     <g id="line2d_53">
      <g>
       <use xlink:href="#m69a96221fe" x="60.62" y="224.494044" style="fill-opacity: 0; stroke: #000000"/>
      </g>
     </g>
     <g id="line2d_54">
      <g>
       <use xlink:href="#m02f86ef9a6" x="328.46" y="224.494044" style="fill-opacity: 0; stroke: #000000"/>
      </g>
     </g>
    </g>
    <g id="ytick_17">
     <g id="line2d_55">
      <g>
       <use xlink:href="#m69a96221fe" x="60.62" y="220.056544" style="fill-opacity: 0; stroke: #000000"/>
      </g>
     </g>
     <g id="line2d_56">
      <g>
       <use xlink:href="#m02f86ef9a6" x="328.46" y="220.056544" style="fill-opacity: 0; stroke: #000000"/>
      </g>
     </g>
    </g>
    <g id="ytick_18">
     <g id="line2d_57">
      <g>
       <use xlink:href="#m69a96221fe" x="60.62" y="216.908088" style="fill-opacity: 0; stroke: #000000"/>
      </g>
     </g>
     <g id="line2d_58">
      <g>
       <use xlink:href="#m02f86ef9a6" x="328.46" y="216.908088" style="fill-opacity: 0; stroke: #000000"/>
      </g>
     </g>
    </g>
    <g id="ytick_19">
     <g id="line2d_59">
      <g>
       <use xlink:href="#m69a96221fe" x="60.62" y="214.465956" style="fill-opacity: 0; stroke: #000000"/>
      </g>
     </g>
     <g id="line2d_60">
      <g>
       <use xlink:href="#m02f86ef9a6" x="328.46" y="214.465956" style="fill-opacity: 0; stroke: #000000"/>
      </g>
     </g>
    </g>
    <g id="ytick_20">
     <g id="line2d_61">
      <g>
       <use xlink:href="#m69a96221fe" x="60.62" y="212.470588" style="fill-opacity: 0; stroke: #000000"/>
      </g>
     </g>
     <g id="line2d_62">
      <g>
       <use xlink:href="#m02f86ef9a6" x="328.46" y="212.470588" style="fill-opacity: 0; stroke: #000000"/>
      </g>
     </g>
    </g>
    <g id="ytick_21">
     <g id="line2d_63">
      <g>
       <use xlink:href="#m69a96221fe" x="60.62" y="210.783529" style="fill-opacity: 0; stroke: #000000"/>
      </g>
     </g>
     <g id="line2d_64">
      <g>
       <use xlink:href="#m02f86ef9a6" x="328.46" y="210.783529" style="fill-opacity: 0; stroke: #000000"/>
      </g>
     </g>
    </g>
    <g id="ytick_22">
     <g id="line2d_65">
      <g>
       <use xlink:href="#m69a96221fe" x="60.62" y="209.322132" style="fill-opacity: 0; stroke: #000000"/>
      </g>
     </g>
     <g id="line2d_66">
      <g>
       <use xlink:href="#m02f86ef9a6" x="328.46" y="209.322132" style="fill-opacity: 0; stroke: #000000"/>
      </g>
     </g>
    </g>
    <g id="ytick_23">
     <g id="line2d_67">
      <g>
       <use xlink:href="#m69a96221fe" x="60.62" y="208.033089" style="fill-opacity: 0; stroke: #000000"/>
      </g>
     </g>
     <g id="line2d_68">
      <g>
       <use xlink:href="#m02f86ef9a6" x="328.46" y="208.033089" style="fill-opacity: 0; stroke: #000000"/>
      </g>
     </g>
    </g>
    <g id="ytick_24">
     <g id="line2d_69">
      <g>
       <use xlink:href="#m69a96221fe" x="60.62" y="199.294044" style="fill-opacity: 0; stroke: #000000"/>
      </g>
     </g>
     <g id="line2d_70">
      <g>
       <use xlink:href="#m02f86ef9a6" x="328.46" y="199.294044" style="fill-opacity: 0; stroke: #000000"/>
      </g>
     </g>
    </g>
    <g id="ytick_25">
     <g id="line2d_71">
      <g>
       <use xlink:href="#m69a96221fe" x="60.62" y="194.856544" style="fill-opacity: 0; stroke: #000000"/>
      </g>
     </g>
     <g id="line2d_72">
      <g>
       <use xlink:href="#m02f86ef9a6" x="328.46" y="194.856544" style="fill-opacity: 0; stroke: #000000"/>
      </g>
     </g>
    </g>
    <g id="ytick_26">
     <g id="line2d_73">
      <g>
       <use xlink:href="#m69a96221fe" x="60.62" y="191.708088" style="fill-opacity: 0; stroke: #000000"/>
      </g>
     </g>
     <g id="line2d_74">
      <g>
       <use xlink:href="#m02f86ef9a6" x="328.46" y="191.708088" style="fill-opacity: 0; stroke: #000000"/>
      </g>
     </g>
    </g>
    <g id="ytick_27">
     <g id="line2d_75">
      <g>
       <use xlink:href="#m69a96221fe" x="60.62" y="189.265956" style="fill-opacity: 0; stroke: #000000"/>
      </g>
     </g>
     <g id="line2d_76">
      <g>
       <use xlink:href="#m02f86ef9a6" x="328.46" y="189.265956" style="fill-opacity: 0; stroke: #000000"/>
      </g>
     </g>
    </g>
    <g id="ytick_28">
     <g id="line2d_77">
      <g>
       <use xlink:href="#m69a96221fe" x="60.62" y="187.270588" style="fill-opacity: 0; stroke: #000000"/>
      </g>
     </g>
     <g id="line2d_78">
      <g>
       <use xlink:href="#m02f86ef9a6" x="328.46" y="187.270588" style="fill-opacity: 0; stroke: #000000"/>
      </g>
     </g>
    </g>
    <g id="ytick_29">
     <g id="line2d_79">
      <g>
       <use xlink:href="#m69a96221fe" x="60.62" y="185.583529" style="fill-opacity: 0; stroke: #000000"/>
      </g>
     </g>
     <g id="line2d_80">
      <g>
       <use xlink:href="#m02f86ef9a6" x="328.46" y="185.583529" style="fill-opacity: 0; stroke: #000000"/>
      </g>
     </g>
    </g>
    <g id="ytick_30">
     <g id="line2d_81">
      <g>
       <use xlink:href="#m69a96221fe" x="60.62" y="184.122132" style="fill-opacity: 0; stroke: #000000"/>
      </g>
     </g>
     <g id="line2d_82">
      <g>
       <use xlink:href="#m02f86ef9a6" x="328.46" y="184.122132" style="fill-opacity: 0; stroke: #000000"/>
      </g>
     </g>
    </g>
    <g id="ytick_31">
     <g id="line2d_83">
      <g>
       <use xlink:href="#m69a96221fe" x="60.62" y="182.833089" style="fill-opacity: 0; stroke: #000000"/>
      </g>
     </g>
     <g id="line2d_84">
      <g>
       <use xlink:href="#m02f86ef9a6" x="328.46" y="182.833089" style="fill-opacity: 0; stroke: #000000"/>
      </g>
     </g>
    </g>
    <g id="ytick_32">
     <g id="line2d_85">
      <g>
       <use xlink:href="#m69a96221fe" x="60.62" y="174.094044" style="fill-opacity: 0; stroke: #000000"/>
      </g>
     </g>
     <g id="line2d_86">
      <g>
       <use xlink:href="#m02f86ef9a6" x="328.46" y="174.094044" style="fill-opacity: 0; stroke: #000000"/>
      </g>
     </g>
    </g>
    <g id="ytick_33">
     <g id="line2d_87">
      <g>
       <use xlink:href="#m69a96221fe" x="60.62" y="169.656544" style="fill-opacity: 0; stroke: #000000"/>
      </g>
     </g>
     <g id="line2d_88">
      <g>
       <use xlink:href="#m02f86ef9a6" x="328.46" y="169.656544" style="fill-opacity: 0; stroke: #000000"/>
      </g>
     </g>
    </g>
    <g id="ytick_34">
     <g id="line2d_89">
      <g>
       <use xlink:href="#m69a96221fe" x="60.62" y="166.508088" style="fill-opacity: 0; stroke: #000000"/>
      </g>
     </g>
     <g id="line2d_90">
      <g>
       <use xlink:href="#m02f86ef9a6" x="328.46" y="166.508088" style="fill-opacity: 0; stroke: #000000"/>
      </g>
     </g>
    </g>
    <g id="ytick_35">
     <g id="line2d_91">
      <g>
       <use xlink:href="#m69a96221fe" x="60.62" y="164.065956" style="fill-opacity: 0; stroke: #000000"/>
      </g>
     </g>
     <g id="line2d_92">
      <g>
       <use xlink:href="#m02f86ef9a6" x="328.46" y="164.065956" style="fill-opacity: 0; stroke: #000000"/>
      </g>
     </g>
    </g>
    <g id="ytick_36">
     <g id="line2d_93">
      <g>
       <use xlink:href="#m69a96221fe" x="60.62" y="162.070588" style="fill-opacity: 0; stroke: #000000"/>
      </g>
     </g>
     <g id="line2d_94">
      <g>
       <use xlink:href="#m02f86ef9a6" x="328.46" y="162.070588" style="fill-opacity: 0; stroke: #000000"/>
      </g>
     </g>
    </g>
    <g id="ytick_37">
     <g id="line2d_95">
      <g>
       <use xlink:href="#m69a96221fe" x="60.62" y="160.383529" style="fill-opacity: 0; stroke: #000000"/>
      </g>
     </g>
     <g id="line2d_96">
      <g>
       <use xlink:href="#m02f86ef9a6" x="328.46" y="160.383529" style="fill-opacity: 0; stroke: #000000"/>
      </g>
     </g>
    </g>
    <g id="ytick_38">
     <g id="line2d_97">
      <g>
       <use xlink:href="#m69a96221fe" x="60.62" y="158.922132" style="fill-opacity: 0; stroke: #000000"/>
      </g>
     </g>
     <g id="line2d_98">
      <g>
       <use xlink:href="#m02f86ef9a6" x="328.46" y="158.922132" style="fill-opacity: 0; stroke: #000000"/>
      </g>
     </g>
    </g>
    <g id="ytick_39">
     <g id="line2d_99">
      <g>
       <use xlink:href="#m69a96221fe" x="60.62" y="157.633089" style="fill-opacity: 0; stroke: #000000"/>
      </g>
     </g>
     <g id="line2d_100">
      <g>
       <use xlink:href="#m02f86ef9a6" x="328.46" y="157.633089" style="fill-opacity: 0; stroke: #000000"/>
      </g>
     </g>
    </g>
    <g id="ytick_40">
     <g id="line2d_101">
      <g>
       <use xlink:href="#m69a96221fe" x="60.62" y="148.894044" style="fill-opacity: 0; stroke: #000000"/>
      </g>
     </g>
     <g id="line2d_102">
      <g>
       <use xlink:href="#m02f86ef9a6" x="328.46" y="148.894044" style="fill-opacity: 0; stroke: #000000"/>
      </g>
     </g>
    </g>
    <g id="ytick_41">
     <g id="line2d_103">
      <g>
       <use xlink:href="#m69a96221fe" x="60.62" y="144.456544" style="fill-opacity: 0; stroke: #000000"/>
      </g>
     </g>
     <g id="line2d_104">
      <g>
       <use xlink:href="#m02f86ef9a6" x="328.46" y="144.456544" style="fill-opacity: 0; stroke: #000000"/>
      </g>
     </g>
    </g>
    <g id="ytick_42">
     <g id="line2d_105">
      <g>
       <use xlink:href="#m69a96221fe" x="60.62" y="141.308088" style="fill-opacity: 0; stroke: #000000"/>
      </g>
     </g>
     <g id="line2d_106">
      <g>
       <use xlink:href="#m02f86ef9a6" x="328.46" y="141.308088" style="fill-opacity: 0; stroke: #000000"/>
      </g>
     </g>
    </g>
    <g id="ytick_43">
     <g id="line2d_107">
      <g>
       <use xlink:href="#m69a96221fe" x="60.62" y="138.865956" style="fill-opacity: 0; stroke: #000000"/>
      </g>
     </g>
     <g id="line2d_108">
      <g>
       <use xlink:href="#m02f86ef9a6" x="328.46" y="138.865956" style="fill-opacity: 0; stroke: #000000"/>
      </g>
     </g>
    </g>
    <g id="ytick_44">
     <g id="line2d_109">
      <g>
       <use xlink:href="#m69a96221fe" x="60.62" y="136.870588" style="fill-opacity: 0; stroke: #000000"/>
      </g>
     </g>
     <g id="line2d_110">
      <g>
       <use xlink:href="#m02f86ef9a6" x="328.46" y="136.870588" style="fill-opacity: 0; stroke: #000000"/>
      </g>
     </g>
    </g>
    <g id="ytick_45">
     <g id="line2d_111">
      <g>
       <use xlink:href="#m69a96221fe" x="60.62" y="135.183529" style="fill-opacity: 0; stroke: #000000"/>
      </g>
     </g>
     <g id="line2d_112">
      <g>
       <use xlink:href="#m02f86ef9a6" x="328.46" y="135.183529" style="fill-opacity: 0; stroke: #000000"/>
      </g>
     </g>
    </g>
    <g id="ytick_46">
     <g id="line2d_113">
      <g>
       <use xlink:href="#m69a96221fe" x="60.62" y="133.722132" style="fill-opacity: 0; stroke: #000000"/>
      </g>
     </g>
     <g id="line2d_114">
      <g>
       <use xlink:href="#m02f86ef9a6" x="328.46" y="133.722132" style="fill-opacity: 0; stroke: #000000"/>
      </g>
     </g>
    </g>
    <g id="ytick_47">
     <g id="line2d_115">
      <g>
       <use xlink:href="#m69a96221fe" x="60.62" y="132.433089" style="fill-opacity: 0; stroke: #000000"/>
      </g>
     </g>
     <g id="line2d_116">
      <g>
       <use xlink:href="#m02f86ef9a6" x="328.46" y="132.433089" style="fill-opacity: 0; stroke: #000000"/>
      </g>
     </g>
    </g>
    <g id="ytick_48">
     <g id="line2d_117">
      <g>
       <use xlink:href="#m69a96221fe" x="60.62" y="123.694044" style="fill-opacity: 0; stroke: #000000"/>
      </g>
     </g>
     <g id="line2d_118">
      <g>
       <use xlink:href="#m02f86ef9a6" x="328.46" y="123.694044" style="fill-opacity: 0; stroke: #000000"/>
      </g>
     </g>
    </g>
    <g id="ytick_49">
     <g id="line2d_119">
      <g>
       <use xlink:href="#m69a96221fe" x="60.62" y="119.256544" style="fill-opacity: 0; stroke: #000000"/>
      </g>
     </g>
     <g id="line2d_120">
      <g>
       <use xlink:href="#m02f86ef9a6" x="328.46" y="119.256544" style="fill-opacity: 0; stroke: #000000"/>
      </g>
     </g>
    </g>
    <g id="ytick_50">
     <g id="line2d_121">
      <g>
       <use xlink:href="#m69a96221fe" x="60.62" y="116.108088" style="fill-opacity: 0; stroke: #000000"/>
      </g>
     </g>
     <g id="line2d_122">
      <g>
       <use xlink:href="#m02f86ef9a6" x="328.46" y="116.108088" style="fill-opacity: 0; stroke: #000000"/>
      </g>
     </g>
    </g>
    <g id="ytick_51">
     <g id="line2d_123">
      <g>
       <use xlink:href="#m69a96221fe" x="60.62" y="113.665956" style="fill-opacity: 0; stroke: #000000"/>
      </g>
     </g>
     <g id="line2d_124">
      <g>
       <use xlink:href="#m02f86ef9a6" x="328.46" y="113.665956" style="fill-opacity: 0; stroke: #000000"/>
      </g>
     </g>
    </g>
    <g id="ytick_52">
     <g id="line2d_125">
      <g>
       <use xlink:href="#m69a96221fe" x="60.62" y="111.670588" style="fill-opacity: 0; stroke: #000000"/>
      </g>
     </g>
     <g id="line2d_126">
      <g>
       <use xlink:href="#m02f86ef9a6" x="328.46" y="111.670588" style="fill-opacity: 0; stroke: #000000"/>
      </g>
     </g>
    </g>
    <g id="ytick_53">
     <g id="line2d_127">
      <g>
       <use xlink:href="#m69a96221fe" x="60.62" y="109.983529" style="fill-opacity: 0; stroke: #000000"/>
      </g>
     </g>
     <g id="line2d_128">
      <g>
       <use xlink:href="#m02f86ef9a6" x="328.46" y="109.983529" style="fill-opacity: 0; stroke: #000000"/>
      </g>
     </g>
    </g>
    <g id="ytick_54">
     <g id="line2d_129">
      <g>
       <use xlink:href="#m69a96221fe" x="60.62" y="108.522132" style="fill-opacity: 0; stroke: #000000"/>
      </g>
     </g>
     <g id="line2d_130">
      <g>
       <use xlink:href="#m02f86ef9a6" x="328.46" y="108.522132" style="fill-opacity: 0; stroke: #000000"/>
      </g>
     </g>
    </g>
    <g id="ytick_55">
     <g id="line2d_131">
      <g>
       <use xlink:href="#m69a96221fe" x="60.62" y="107.233089" style="fill-opacity: 0; stroke: #000000"/>
      </g>
     </g>
     <g id="line2d_132">
      <g>
       <use xlink:href="#m02f86ef9a6" x="328.46" y="107.233089" style="fill-opacity: 0; stroke: #000000"/>
      </g>
     </g>
    </g>
    <g id="ytick_56">
     <g id="line2d_133">
      <g>
       <use xlink:href="#m69a96221fe" x="60.62" y="98.494044" style="fill-opacity: 0; stroke: #000000"/>
      </g>
     </g>
     <g id="line2d_134">
      <g>
       <use xlink:href="#m02f86ef9a6" x="328.46" y="98.494044" style="fill-opacity: 0; stroke: #000000"/>
      </g>
     </g>
    </g>
    <g id="ytick_57">
     <g id="line2d_135">
      <g>
       <use xlink:href="#m69a96221fe" x="60.62" y="94.056544" style="fill-opacity: 0; stroke: #000000"/>
      </g>
     </g>
     <g id="line2d_136">
      <g>
       <use xlink:href="#m02f86ef9a6" x="328.46" y="94.056544" style="fill-opacity: 0; stroke: #000000"/>
      </g>
     </g>
    </g>
    <g id="ytick_58">
     <g id="line2d_137">
      <g>
       <use xlink:href="#m69a96221fe" x="60.62" y="90.908088" style="fill-opacity: 0; stroke: #000000"/>
      </g>
     </g>
     <g id="line2d_138">
      <g>
       <use xlink:href="#m02f86ef9a6" x="328.46" y="90.908088" style="fill-opacity: 0; stroke: #000000"/>
      </g>
     </g>
    </g>
    <g id="ytick_59">
     <g id="line2d_139">
      <g>
       <use xlink:href="#m69a96221fe" x="60.62" y="88.465956" style="fill-opacity: 0; stroke: #000000"/>
      </g>
     </g>
     <g id="line2d_140">
      <g>
       <use xlink:href="#m02f86ef9a6" x="328.46" y="88.465956" style="fill-opacity: 0; stroke: #000000"/>
      </g>
     </g>
    </g>
    <g id="ytick_60">
     <g id="line2d_141">
      <g>
       <use xlink:href="#m69a96221fe" x="60.62" y="86.470588" style="fill-opacity: 0; stroke: #000000"/>
      </g>
     </g>
     <g id="line2d_142">
      <g>
       <use xlink:href="#m02f86ef9a6" x="328.46" y="86.470588" style="fill-opacity: 0; stroke: #000000"/>
      </g>
     </g>
    </g>
    <g id="ytick_61">
     <g id="line2d_143">
      <g>
       <use xlink:href="#m69a96221fe" x="60.62" y="84.783529" style="fill-opacity: 0; stroke: #000000"/>
      </g>
     </g>
     <g id="line2d_144">
      <g>
       <use xlink:href="#m02f86ef9a6" x="328.46" y="84.783529" style="fill-opacity: 0; stroke: #000000"/>
      </g>
     </g>
    </g>
    <g id="ytick_62">
     <g id="line2d_145">
      <g>
       <use xlink:href="#m69a96221fe" x="60.62" y="83.322132" style="fill-opacity: 0; stroke: #000000"/>
      </g>
     </g>
     <g id="line2d_146">
      <g>
       <use xlink:href="#m02f86ef9a6" x="328.46" y="83.322132" style="fill-opacity: 0; stroke: #000000"/>
      </g>
     </g>
    </g>
    <g id="ytick_63">
     <g id="line2d_147">
      <g>
       <use xlink:href="#m69a96221fe" x="60.62" y="82.033089" style="fill-opacity: 0; stroke: #000000"/>
      </g>
     </g>
     <g id="line2d_148">
      <g>
       <use xlink:href="#m02f86ef9a6" x="328.46" y="82.033089" style="fill-opacity: 0; stroke: #000000"/>
      </g>
     </g>
    </g>
    <g id="ytick_64">
     <g id="line2d_149">
      <g>
       <use xlink:href="#m69a96221fe" x="60.62" y="73.294044" style="fill-opacity: 0; stroke: #000000"/>
      </g>
     </g>
     <g id="line2d_150">
      <g>
       <use xlink:href="#m02f86ef9a6" x="328.46" y="73.294044" style="fill-opacity: 0; stroke: #000000"/>
      </g>
     </g>
    </g>
    <g id="ytick_65">
     <g id="line2d_151">
      <g>
       <use xlink:href="#m69a96221fe" x="60.62" y="68.856544" style="fill-opacity: 0; stroke: #000000"/>
      </g>
     </g>
     <g id="line2d_152">
      <g>
       <use xlink:href="#m02f86ef9a6" x="328.46" y="68.856544" style="fill-opacity: 0; stroke: #000000"/>
      </g>
     </g>
    </g>
    <g id="ytick_66">
     <g id="line2d_153">
      <g>
       <use xlink:href="#m69a96221fe" x="60.62" y="65.708088" style="fill-opacity: 0; stroke: #000000"/>
      </g>
     </g>
     <g id="line2d_154">
      <g>
       <use xlink:href="#m02f86ef9a6" x="328.46" y="65.708088" style="fill-opacity: 0; stroke: #000000"/>
      </g>
     </g>
    </g>
    <g id="ytick_67">
     <g id="line2d_155">
      <g>
       <use xlink:href="#m69a96221fe" x="60.62" y="63.265956" style="fill-opacity: 0; stroke: #000000"/>
      </g>
     </g>
     <g id="line2d_156">
      <g>
       <use xlink:href="#m02f86ef9a6" x="328.46" y="63.265956" style="fill-opacity: 0; stroke: #000000"/>
      </g>
     </g>
    </g>
    <g id="ytick_68">
     <g id="line2d_157">
      <g>
       <use xlink:href="#m69a96221fe" x="60.62" y="61.270588" style="fill-opacity: 0; stroke: #000000"/>
      </g>
     </g>
     <g id="line2d_158">
      <g>
       <use xlink:href="#m02f86ef9a6" x="328.46" y="61.270588" style="fill-opacity: 0; stroke: #000000"/>
      </g>
     </g>
    </g>
    <g id="ytick_69">
     <g id="line2d_159">
      <g>
       <use xlink:href="#m69a96221fe" x="60.62" y="59.583529" style="fill-opacity: 0; stroke: #000000"/>
      </g>
     </g>
     <g id="line2d_160">
      <g>
       <use xlink:href="#m02f86ef9a6" x="328.46" y="59.583529" style="fill-opacity: 0; stroke: #000000"/>
      </g>
     </g>
    </g>
    <g id="ytick_70">
     <g id="line2d_161">
      <g>
       <use xlink:href="#m69a96221fe" x="60.62" y="58.122132" style="fill-opacity: 0; stroke: #000000"/>
      </g>
     </g>
     <g id="line2d_162">
      <g>
       <use xlink:href="#m02f86ef9a6" x="328.46" y="58.122132" style="fill-opacity: 0; stroke: #000000"/>
      </g>
     </g>
    </g>
    <g id="ytick_71">
     <g id="line2d_163">
      <g>
       <use xlink:href="#m69a96221fe" x="60.62" y="56.833089" style="fill-opacity: 0; stroke: #000000"/>
      </g>
     </g>
     <g id="line2d_164">
      <g>
       <use xlink:href="#m02f86ef9a6" x="328.46" y="56.833089" style="fill-opacity: 0; stroke: #000000"/>
      </g>
     </g>
    </g>
    <g id="ytick_72">
     <g id="line2d_165">
      <g>
       <use xlink:href="#m69a96221fe" x="60.62" y="48.094044" style="fill-opacity: 0; stroke: #000000"/>
      </g>
     </g>
     <g id="line2d_166">
      <g>
       <use xlink:href="#m02f86ef9a6" x="328.46" y="48.094044" style="fill-opacity: 0; stroke: #000000"/>
      </g>
     </g>
    </g>
    <g id="ytick_73">
     <g id="line2d_167">
      <g>
       <use xlink:href="#m69a96221fe" x="60.62" y="43.656544" style="fill-opacity: 0; stroke: #000000"/>
      </g>
     </g>
     <g id="line2d_168">
      <g>
       <use xlink:href="#m02f86ef9a6" x="328.46" y="43.656544" style="fill-opacity: 0; stroke: #000000"/>
      </g>
     </g>
    </g>
    <g id="ytick_74">
     <g id="line2d_169">
      <g>
       <use xlink:href="#m69a96221fe" x="60.62" y="40.508088" style="fill-opacity: 0; stroke: #000000"/>
      </g>
     </g>
     <g id="line2d_170">
      <g>
       <use xlink:href="#m02f86ef9a6" x="328.46" y="40.508088" style="fill-opacity: 0; stroke: #000000"/>
      </g>
     </g>
    </g>
    <g id="ytick_75">
     <g id="line2d_171">
      <g>
       <use xlink:href="#m69a96221fe" x="60.62" y="38.065956" style="fill-opacity: 0; stroke: #000000"/>
      </g>
     </g>
     <g id="line2d_172">
      <g>
       <use xlink:href="#m02f86ef9a6" x="328.46" y="38.065956" style="fill-opacity: 0; stroke: #000000"/>
      </g>
     </g>
    </g>
    <g id="ytick_76">
     <g id="line2d_173">
      <g>
       <use xlink:href="#m69a96221fe" x="60.62" y="36.070588" style="fill-opacity: 0; stroke: #000000"/>
      </g>
     </g>
     <g id="line2d_174">
      <g>
       <use xlink:href="#m02f86ef9a6" x="328.46" y="36.070588" style="fill-opacity: 0; stroke: #000000"/>
      </g>
     </g>
    </g>
    <g id="ytick_77">
     <g id="line2d_175">
      <g>
       <use xlink:href="#m69a96221fe" x="60.62" y="34.383529" style="fill-opacity: 0; stroke: #000000"/>
      </g>
     </g>
     <g id="line2d_176">
      <g>
       <use xlink:href="#m02f86ef9a6" x="328.46" y="34.383529" style="fill-opacity: 0; stroke: #000000"/>
      </g>
     </g>
    </g>
    <g id="ytick_78">
     <g id="line2d_177">
      <g>
       <use xlink:href="#m69a96221fe" x="60.62" y="32.922132" style="fill-opacity: 0; stroke: #000000"/>
      </g>
     </g>
     <g id="line2d_178">
      <g>
       <use xlink:href="#m02f86ef9a6" x="328.46" y="32.922132" style="fill-opacity: 0; stroke: #000000"/>
      </g>
     </g>
    </g>
    <g id="ytick_79">
     <g id="line2d_179">
      <g>
       <use xlink:href="#m69a96221fe" x="60.62" y="31.633089" style="fill-opacity: 0; stroke: #000000"/>
      </g>
     </g>
     <g id="line2d_180">
      <g>
       <use xlink:href="#m02f86ef9a6" x="328.46" y="31.633089" style="fill-opacity: 0; stroke: #000000"/>
      </g>
     </g>
    </g>
    <g id="ytick_80">
     <g id="line2d_181">
      <g>
       <use xlink:href="#m69a96221fe" x="60.62" y="22.894044" style="fill-opacity: 0; stroke: #000000"/>
      </g>
     </g>
     <g id="line2d_182">
      <g>
       <use xlink:href="#m02f86ef9a6" x="328.46" y="22.894044" style="fill-opacity: 0; stroke: #000000"/>
      </g>
     </g>
    </g>
   </g>
   <g id="line2d_183">
    <path d="M 72.794545 38.065956 
L 127.404379 283.521562 
L 127.404379 283.521562 
" clip-path="url(#p2dc80b2cd6)" style="fill: none; stroke: #000000; stroke-width: 2"/>
   </g>
   <g id="patch_3">
    <path d="M 60.62 242.16 
L 60.62 20.4 
" style="fill: none; stroke: #000000; stroke-linejoin: miter; stroke-linecap: square"/>
   </g>
   <g id="patch_4">
    <path d="M 328.46 242.16 
L 328.46 20.4 
" style="fill: none; stroke: #000000; stroke-linejoin: miter; stroke-linecap: square"/>
   </g>
   <g id="patch_5">
    <path d="M 60.62 242.16 
L 328.46 242.16 
" style="fill: none; stroke: #000000; stroke-linejoin: miter; stroke-linecap: square"/>
   </g>
   <g id="patch_6">
    <path d="M 60.62 20.4 
L 328.46 20.4 
" style="fill: none; stroke: #000000; stroke-linejoin: miter; stroke-linecap: square"/>
   </g>
  </g>
 </g>
 <defs>
  <clipPath id="p2dc80b2cd6">
   <rect x="60.62" y="20.4" width="267.84" height="221.76"/>
  </clipPath>
 </defs>
</svg>
